<svg width="161" height="139" viewBox="0 0 161 139" fill="none" xmlns="http://www.w3.org/2000/svg">
<path d="M38.1533 108.914C38.1533 108.914 53.1828 142.832 58.8695 138.465C64.5563 134.098 54.706 101.907 54.706 101.907L38.1533 108.914Z" fill="#F9BE3C"/>
<path d="M25.8158 105.867C25.8158 105.867 6.05203 137.263 1.05446 132.121C-3.94312 126.979 10.4464 96.545 10.4464 96.545L25.8158 105.867Z" fill="#F9BE3C"/>
<path d="M34.7374 117.073C50.7685 117.073 63.7642 104.077 63.7642 88.0458C63.7642 72.0148 50.7685 59.019 34.7374 59.019C18.7064 59.019 5.71069 72.0148 5.71069 88.0458C5.71069 104.077 18.7064 117.073 34.7374 117.073Z" fill="#F9BE3C"/>
<path d="M45.5349 59.044C60.7534 59.044 73.0904 46.707 73.0904 31.4886C73.0904 16.2701 60.7534 3.93314 45.5349 3.93314C30.3165 3.93314 17.9795 16.2701 17.9795 31.4886C17.9795 46.707 30.3165 59.044 45.5349 59.044Z" fill="#F9BE3C"/>
<path d="M62.522 78.7198C68.4052 64.5312 61.7598 48.296 47.679 42.4575C33.5982 36.619 17.4141 43.3881 11.5309 57.5767C5.64771 71.7654 12.2932 88.0006 26.374 93.8391C40.4548 99.6776 56.6388 92.9085 62.522 78.7198Z" fill="#F9BE3C"/>
<path d="M63.6145 89.7913L5.71069 88.9061C5.71069 88.9061 6.33578 61.0389 13.2168 54.1562C20.0979 47.2736 64.5131 70.8383 64.5131 70.8383L63.6145 89.7913Z" fill="#F9BE3C"/>
<path d="M2.56815 16.4763C-6.02993 20.5226 12.6676 58.9433 12.6676 58.9433L24.1888 49.5173C24.1888 49.5173 11.0467 12.4863 2.56815 16.4763Z" fill="#F9BE3C"/>
<path d="M92.9396 35.2641C98.5228 42.9535 63.4167 67.4065 63.4167 67.4065L58.377 54.8423C58.377 54.8423 87.4342 27.6814 92.9396 35.2641Z" fill="#F9BE3C"/>
<mask id="mask0_1930_28893" style="mask-type:luminance" maskUnits="userSpaceOnUse" x="58" y="33" width="36" height="35">
<path d="M92.9396 35.2641C98.5228 42.9535 63.4167 67.4065 63.4167 67.4065L58.377 54.8423C58.377 54.8423 87.4342 27.6814 92.9396 35.2641Z" fill="white"/>
</mask>
<g mask="url(#mask0_1930_28893)">
<path d="M64.4373 66.4252C64.4373 66.4252 93.2394 39.119 93.7633 35.304C94.2872 31.489 101.993 41.2888 101.993 41.2888L86.9553 61.6374L67.1306 68.8939L64.4373 66.4252Z" fill="#F28B0E"/>
</g>
<path d="M60.3992 9.26941C60.3992 9.26941 77.6805 3.28459 81.3463 7.84812C85.012 12.4117 71.3214 27.7478 71.3214 27.7478L60.3992 9.26941Z" fill="#F9BE3C"/>
<path d="M37.2807 7.69658C37.2807 7.69658 24.3371 -2.17591 19.1016 0.44165C13.8661 3.05921 21.1253 20.5792 21.1253 20.5792L37.2807 7.69658Z" fill="#F9BE3C"/>
<path d="M58.9759 97.9956C58.9759 97.9956 83.4391 68.5946 96.2319 80.9385C109.025 93.2825 148.974 54.6798 127.652 37.3984C106.331 20.1171 130.121 2.83574 149.198 17.873C168.274 32.9103 165.507 85.5779 124.435 88.27C108.725 90.5145 108.052 89.3174 104.461 89.916C98.7408 90.8692 92.5661 90.0406 86.8806 87.7465C81.195 85.4524 60.0483 102.285 55.5598 108.17C51.0712 114.055 58.9759 97.9956 58.9759 97.9956Z" fill="#F9BE3C"/>
<mask id="mask1_1930_28893" style="mask-type:luminance" maskUnits="userSpaceOnUse" x="54" y="12" width="107" height="98">
<path d="M58.9759 97.9956C58.9759 97.9956 83.4391 68.5946 96.2319 80.9385C109.025 93.2825 148.974 54.6798 127.652 37.3984C106.331 20.1171 130.121 2.83574 149.198 17.873C168.274 32.9103 165.507 85.5779 124.435 88.27C108.725 90.5145 108.052 89.3174 104.461 89.916C98.7408 90.8692 92.5661 90.0406 86.8806 87.7465C81.195 85.4524 60.0483 102.285 55.5598 108.17C51.0712 114.055 58.9759 97.9956 58.9759 97.9956Z" fill="white"/>
</mask>
<g mask="url(#mask1_1930_28893)">
<path d="M56.2078 107.422C56.2078 107.422 71.8432 84.5297 84.8606 84.9035C97.8781 85.2774 92.6406 89.0182 105.658 86.9984C118.676 84.9785 142.989 88.7935 150.844 59.768C158.699 30.7424 147.702 14.5819 147.702 14.5819L167.851 29.4445L172.339 64.5557L135.533 96.8732L56.2078 107.422Z" fill="#F28B0E"/>
</g>
<path d="M45.52 20.1882C51.2501 21.0332 54.3232 32.3934 54.3232 32.3934C54.3232 32.3934 55.344 42.6718 42.6106 40.793L42.4879 40.7751C29.7545 38.8967 33.6976 29.3512 33.6976 29.3512C33.6976 29.3512 39.92 19.3619 45.6497 20.2073" fill="#D66709"/>
<path d="M47.8805 25.148C48.0638 23.9057 46.9133 22.707 45.3109 22.4706C43.7085 22.2342 42.2609 23.0497 42.0777 24.292C41.8944 25.5343 43.0449 26.7331 44.6473 26.9694C46.2497 27.2058 47.6973 26.3903 47.8805 25.148Z" fill="black"/>
<path d="M39.508 28.9847L48.8917 30.3521C49.1454 30.3888 49.3875 30.4819 49.6004 30.6246C49.8132 30.7674 49.9913 30.956 50.1216 31.1768C50.2518 31.3975 50.3308 31.6446 50.3528 31.9C50.3748 32.1553 50.3391 32.4123 50.2486 32.652C49.3648 34.986 47.2489 38.4236 42.5573 37.7215C37.6757 36.9909 37.3253 32.8997 37.5565 30.5006C37.58 30.2708 37.6497 30.0481 37.7617 29.846C37.8736 29.644 38.0254 29.4667 38.2079 29.325C38.3903 29.1833 38.5996 29.0801 38.823 29.0216C39.0465 28.9631 39.2795 28.9506 39.508 28.9847Z" fill="#FC9675"/>
<path d="M64.9595 29.0402C64.6131 29.0399 64.2796 28.9081 64.0266 28.6714C63.7735 28.4347 63.6198 28.1107 63.5965 27.765C63.337 23.9391 62.2525 21.4126 60.3726 20.2558C57.8035 18.6743 54.3846 20.0886 54.3506 20.1026C54.0184 20.2395 53.6457 20.2401 53.3131 20.1043C52.9804 19.9686 52.7146 19.7073 52.573 19.3771C52.4315 19.0469 52.4255 18.6743 52.5566 18.3397C52.6876 18.0052 52.945 17.7356 53.2731 17.5894C53.4642 17.5073 57.9964 15.6012 61.7845 17.9132C64.4739 19.5541 66.0015 22.8081 66.3254 27.5806C66.3498 27.9424 66.2295 28.2992 65.991 28.5723C65.7524 28.8454 65.4151 29.0126 65.0533 29.0371C65.022 29.039 64.9908 29.0402 64.9595 29.0402Z" fill="black"/>
<path d="M26.921 23.5972C26.6992 23.5968 26.4809 23.5424 26.2848 23.4389C26.0887 23.3354 25.9207 23.1858 25.7951 23.003C25.6696 22.8201 25.5904 22.6096 25.5642 22.3894C25.5381 22.1692 25.5658 21.9459 25.645 21.7388C27.3609 17.2741 29.7796 14.6163 32.8335 13.8396C37.1361 12.7481 40.9038 15.904 41.0624 16.0388C41.1993 16.155 41.3119 16.2971 41.3938 16.4569C41.4758 16.6167 41.5254 16.7911 41.54 16.9701C41.5545 17.1491 41.5337 17.3292 41.4786 17.5002C41.4236 17.6711 41.3354 17.8295 41.2191 17.9664C41.1028 18.1032 40.9607 18.2158 40.8009 18.2978C40.6411 18.3797 40.4667 18.4294 40.2877 18.4439C40.1087 18.4585 39.9286 18.4376 39.7577 18.3826C39.5868 18.3275 39.4283 18.2393 39.2915 18.123C39.2466 18.084 36.4044 15.7454 33.4926 16.4939C31.3552 17.0432 29.5745 19.138 28.1981 22.7182C28.0993 22.9768 27.9242 23.1993 27.6962 23.3562C27.4681 23.5132 27.1978 23.5972 26.921 23.5972Z" fill="black"/>
<path d="M53.8904 80.7529C55.7852 67.5009 48.612 55.5127 37.8686 53.9767C27.1252 52.4406 16.88 61.9382 14.9852 75.1903C13.0905 88.4423 20.2637 100.43 31.007 101.967C41.7504 103.503 51.9956 94.0049 53.8904 80.7529Z" fill="#FBDC8C"/>
<path d="M39.6947 57.0742L37.0645 56.6835C35.6471 56.473 34.1785 57.8493 33.4977 60.0267L28.2579 77.7251C27.2857 80.8326 30.724 90.0196 32.7465 90.3199L34.0566 90.5146C36.0828 90.8154 41.9543 83.0007 41.9213 79.74L42.1355 61.2953C42.1144 59.0203 41.1084 57.2839 39.6947 57.0742Z" fill="#45BC9E"/>
<path d="M37.3578 50.8769C46.801 52.7319 62.3665 47.6045 68.4792 45.567L69.0754 46.958C63.595 49.5577 49.4709 58.6352 36.1493 56.2744C22.8278 53.9136 18.3622 41.618 17.3083 37.1213L18.8981 35.8296C21.2167 39.694 27.9147 49.022 37.3578 50.8769Z" fill="#45BC9E"/>
<path d="M34.2875 54.6406C34.2452 51.7904 36.7141 49.5502 39.5468 49.8684C42.3707 50.1856 44.28 52.9028 43.6213 55.6671L43.5506 55.9637C43.0013 58.269 40.8198 59.8031 38.4646 59.5403C36.115 59.2782 34.3272 57.3094 34.2921 54.9455L34.2875 54.6406Z" fill="#A6E9D4"/>
</svg>
