<svg width="241" height="193" viewBox="0 0 241 193" fill="none" xmlns="http://www.w3.org/2000/svg">
<path d="M117.463 92.5115H124.276V158.052C124.276 158.907 123.935 159.727 123.329 160.332C122.722 160.937 121.9 161.277 121.042 161.277H120.997C120.059 161.277 119.16 160.906 118.496 160.244C117.833 159.583 117.461 158.686 117.461 157.751V92.5115H117.463Z" fill="#249079"/>
<path d="M65.8902 92.5115H72.7035V158.052C72.7035 158.475 72.6199 158.895 72.4574 159.286C72.2948 159.677 72.0566 160.033 71.7563 160.332C71.456 160.632 71.0994 160.869 70.707 161.032C70.3147 161.194 69.8941 161.277 69.4694 161.277H69.4243C68.4866 161.277 67.5872 160.906 66.9241 160.244C66.261 159.583 65.8884 158.686 65.8884 157.751V92.5115H65.8902Z" fill="#249079"/>
<path d="M124.189 89.7711L0 111.571V118.955L100.731 121.571L124.189 97.1563V89.7711Z" fill="#249079"/>
<path d="M70.3738 88.8993L0 111.571L100.731 114.186L124.189 89.7711L70.3738 88.8993Z" fill="#ECA295"/>
<path d="M97.3069 192.112H96.9763C93.9349 192.112 92.2798 190.104 92.2798 187.468V116.638L101.508 116.509V187.338C101.508 189.975 100.348 192.112 97.3069 192.112Z" fill="#249079"/>
<path d="M5.02757 192.112H4.69654C1.65514 192.112 0 190.104 0 187.468V116.638L9.22779 116.509V187.338C9.22779 189.975 8.06897 192.112 5.02757 192.112Z" fill="#249079"/>
<path d="M190.129 46.926H191.719C192.291 46.926 192.839 47.1526 193.244 47.5558C193.648 47.959 193.875 48.5059 193.875 49.0762V118.052C193.875 118.622 193.648 119.169 193.244 119.572C192.839 119.975 192.291 120.202 191.719 120.202H186.377C184.033 120.201 181.784 119.272 180.127 117.618C178.47 115.965 177.539 113.722 177.539 111.384V59.4834C177.539 56.153 178.866 52.9589 181.227 50.604C183.588 48.249 186.791 46.926 190.13 46.926H190.129Z" fill="#292929"/>
<path d="M180.286 132.979L133.492 134.652C132.58 134.685 131.671 134.533 130.82 134.204C129.969 133.876 129.194 133.379 128.541 132.742C127.889 132.106 127.373 131.344 127.025 130.503C126.677 129.662 126.503 128.759 126.516 127.849L126.521 127.526L128.731 120.155C129.135 118.807 129.953 117.62 131.07 116.761C132.187 115.901 133.547 115.414 134.957 115.366L175.252 114.009C176.407 113.97 177.552 114.228 178.578 114.759C179.604 115.289 180.476 116.073 181.11 117.037L186.763 125.625L186.778 125.65V125.695V126.238C186.785 127.982 186.112 129.661 184.9 130.919C183.689 132.177 182.034 132.916 180.286 132.979Z" fill="#292929"/>
<path d="M182.319 122.502H182.292V122.46L182.319 122.502Z" fill="#249079"/>
<path d="M182.292 122.438V122.461L182.278 122.438H182.292Z" fill="#249079"/>
<path d="M157.68 128.98H157.68C155.568 128.98 153.857 130.687 153.857 132.793V165.248C153.857 167.354 155.568 169.061 157.68 169.061H157.68C159.792 169.061 161.504 167.354 161.504 165.248V132.793C161.504 130.687 159.792 128.98 157.68 128.98Z" fill="#292929"/>
<path d="M183.524 165.334H132.814V170.953H183.524V165.334Z" fill="#292929"/>
<path d="M160.383 183.597V158.654H154.748V183.597H160.383Z" fill="#292929"/>
<path d="M107.949 93.1542L88.0025 107.72L48.0747 105.495L80.3281 92.2775L107.949 93.1542Z" fill="#249079"/>
<path d="M151.315 120.023C146.617 120.106 144.033 120.006 143.396 115.249C142.71 110.128 144.662 112.158 149.796 111.472C149.931 111.454 165.441 114.212 176.872 110.808C193.064 105.988 195.194 104.021 198.095 98.732C200.995 93.4431 197.907 91.186 197.813 91.0427C197.331 90.3502 196.769 89.7163 196.139 89.154C194.225 87.4564 192.215 85.8704 190.118 84.4041C186.248 81.5676 182.246 78.6345 179.32 74.8534C174.801 69.0143 173.948 62.2916 176.92 55.9247C179.734 49.8937 184.272 45.8045 190.408 43.7711C195.021 42.244 199.79 42.102 204.401 41.9664C210.14 41.7975 215.561 41.6376 220.113 38.8703C220.518 38.625 221.586 36.655 221.284 32.7989C220.812 26.7603 218.722 23.7203 214.663 22.0476C209.366 19.8647 206.897 28.0957 203.278 31.1931C199.346 34.5578 193.545 36.5112 184.638 29.6242C175.732 22.7371 181.407 14.2209 185.339 10.8557C191.308 5.74917 197.347 2.40333 203.29 0.908956C208.994 -0.598783 215.033 -0.223248 220.505 1.97932C226.204 4.32846 231.089 8.67954 234.629 14.5636C237.67 19.6782 239.503 25.4166 239.988 31.3431C240.799 41.7189 237.019 50.5028 229.878 54.8453C221.082 60.1935 212.14 60.4572 204.954 60.6688C197.092 60.9005 195.367 61.3425 194.308 63.0943C194.253 63.1842 194.229 63.2887 194.237 63.3934C194.245 63.4981 194.285 63.5976 194.353 63.6782C195.708 65.2795 199.082 67.7535 201.229 69.326C205.321 72.3251 209.552 75.4261 212.634 79.5463C217.228 85.6878 218.003 92.7806 214.813 99.5181C210.452 108.726 198.971 115.861 179.712 121.326C166.946 124.949 152.893 119.875 152.403 119.941C152.042 119.989 151.679 120.016 151.315 120.023Z" fill="#F9BE3C"/>
<mask id="mask0_1930_28849" style="mask-type:luminance" maskUnits="userSpaceOnUse" x="143" y="0" width="98" height="123">
<path d="M151.315 120.023C146.617 120.106 144.033 120.006 143.396 115.249C142.71 110.128 144.662 112.158 149.796 111.472C149.931 111.454 165.441 114.212 176.872 110.808C193.064 105.988 195.194 104.021 198.095 98.732C200.995 93.4431 197.907 91.186 197.813 91.0427C197.331 90.3502 196.769 89.7163 196.139 89.154C194.225 87.4564 192.215 85.8704 190.118 84.4041C186.248 81.5676 182.246 78.6345 179.32 74.8534C174.801 69.0143 173.948 62.2916 176.92 55.9247C179.734 49.8937 184.272 45.8045 190.408 43.7711C195.021 42.244 199.79 42.102 204.401 41.9664C210.14 41.7975 215.561 41.6376 220.113 38.8703C220.518 38.625 221.586 36.655 221.284 32.7989C220.812 26.7603 218.722 23.7203 214.663 22.0476C209.366 19.8647 206.897 28.0957 203.278 31.1931C199.346 34.5578 193.545 36.5112 184.638 29.6242C175.732 22.7371 181.407 14.2209 185.339 10.8557C191.308 5.74917 197.347 2.40333 203.29 0.908956C208.994 -0.598783 215.033 -0.223248 220.505 1.97932C226.204 4.32846 231.089 8.67954 234.629 14.5636C237.67 19.6782 239.503 25.4166 239.988 31.3431C240.799 41.7189 237.019 50.5028 229.878 54.8453C221.082 60.1935 212.14 60.4572 204.954 60.6688C197.092 60.9005 195.367 61.3425 194.308 63.0943C194.253 63.1842 194.229 63.2887 194.237 63.3934C194.245 63.4981 194.285 63.5976 194.353 63.6782C195.708 65.2795 199.082 67.7535 201.229 69.326C205.321 72.3251 209.552 75.4261 212.634 79.5463C217.228 85.6878 218.003 92.7806 214.813 99.5181C210.452 108.726 198.971 115.861 179.712 121.326C166.946 124.949 152.893 119.875 152.403 119.941C152.042 119.989 151.679 120.016 151.315 120.023Z" fill="white"/>
</mask>
<g mask="url(#mask0_1930_28849)">
<path d="M194.161 62.411C194.161 62.411 186.646 58.1143 207.681 54.2322C228.716 50.35 231.686 46.0735 234.142 38.5688C236.597 31.0642 237.535 18.62 241.223 22.0314C244.91 25.4428 241.64 59.363 241.64 59.363C241.64 59.363 209.649 66.3251 209.342 66.0138C209.035 65.7025 194.161 62.411 194.161 62.411Z" fill="#F28B0E"/>
<path d="M164.677 122.473C164.677 122.473 193.951 115.517 203.278 105.405C212.606 95.2928 211.941 93.1085 215.889 83.9486C219.837 74.7888 228.76 91.6051 228.819 92.0372C228.878 92.4693 210.591 122.808 209.045 123.106C207.498 123.405 164.677 122.473 164.677 122.473Z" fill="#F28B0E"/>
<path d="M195.167 35.1354C195.419 34.3974 202.122 29.4651 205.96 21.4358C209.797 13.4065 216.598 19.8961 217.697 22.1213C218.796 24.3464 216.195 32.3847 216.195 32.3847L195.167 35.1354Z" fill="#F28B0E"/>
</g>
<path d="M172.875 86.9737C173.383 89.3377 174.6 92.9926 176.152 102.628C178.336 115.775 170.304 120.421 155.35 123.619C140.189 126.862 125.568 118.827 122.412 105.628C121.82 103.534 121.286 101.369 120.816 99.1879C118.338 87.6695 122.893 81.5325 122.893 81.5325C122.893 81.5325 124.056 77.8413 144.646 73.4377C165.235 69.034 167.814 71.9244 167.814 71.9244C167.814 71.9244 170.398 75.4558 172.875 86.9737Z" fill="#F9BE3C"/>
<path d="M175.665 109.197C175.525 110.006 175.341 110.808 175.115 111.598C172.981 119.831 170.142 126.749 166.902 128.762C160.454 132.767 148.987 132.502 143.396 131.542C137.805 130.582 126.909 127.005 122.176 121.082C119.834 118.147 119.305 110.829 120.008 102.51C120.05 101.565 120.152 100.623 120.313 99.6915C122.655 86.1181 136.947 77.2399 152.233 79.8648C167.518 82.4897 178.009 95.6234 175.665 109.197Z" fill="#F9BE3C"/>
<path d="M125.916 121.423C125.79 121.603 125.472 122.052 125.039 122.674C123.438 124.979 120.265 129.629 119.397 131.485C116.724 138.587 125.756 144.874 130.927 138.923C130.927 138.923 132.343 137.002 135.869 134.154C136.966 133.617 137.93 132.844 138.691 131.89C139.453 130.937 139.993 129.828 140.273 128.641C140.553 127.455 140.565 126.222 140.31 125.03C140.055 123.838 139.538 122.717 138.796 121.749C138.055 120.78 137.107 119.988 136.021 119.428C134.936 118.868 133.739 118.556 132.518 118.512C131.297 118.469 130.081 118.696 128.959 119.178C127.836 119.659 126.835 120.383 126.026 121.297C125.988 121.339 125.953 121.382 125.916 121.423Z" fill="#F9BE3C"/>
<path d="M120.711 139.127C121.002 139.594 121.348 140.023 121.743 140.406C121.794 140.47 121.85 140.533 121.908 140.596C123.959 142.764 131.075 149.896 136.356 146.363C139.996 143.927 137.566 140.43 136.626 138.754C136.626 138.754 133.913 134.411 132.765 132.473C132.762 132.473 132.76 132.471 132.761 132.468C132.659 132.259 132.544 132.055 132.418 131.853C131.451 130.305 129.907 129.203 128.125 128.791C126.344 128.378 124.471 128.688 122.919 129.653C121.366 130.618 120.262 132.158 119.848 133.934C119.435 135.711 119.746 137.579 120.713 139.127H120.711Z" fill="#F9BE3C"/>
<path d="M122.742 122.323C122.704 122.539 122.604 123.081 122.472 123.825C121.984 126.587 121.051 132.135 121.043 134.182C121.593 141.747 132.434 143.691 134.634 136.129C134.634 136.129 135.115 133.793 137.122 129.735C137.893 128.789 138.445 127.685 138.737 126.502C139.028 125.318 139.054 124.085 138.81 122.891C138.567 121.697 138.061 120.571 137.33 119.595C136.598 118.619 135.658 117.817 134.579 117.246C133.499 116.676 132.306 116.351 131.085 116.296C129.864 116.24 128.646 116.455 127.519 116.925C126.392 117.395 125.383 118.109 124.565 119.014C123.747 119.92 123.141 120.995 122.79 122.162C122.773 122.216 122.758 122.27 122.742 122.323Z" fill="#F9BE3C"/>
<path d="M121.496 131.809C121.293 132.319 121.153 132.853 121.079 133.397C121.058 133.476 121.04 133.558 121.025 133.642C120.499 136.577 118.988 146.524 124.977 148.654C129.107 150.121 130.478 146.093 131.269 144.342C131.269 144.342 133.153 139.581 134.031 137.51C134.031 137.507 134.031 137.505 134.033 137.503C134.14 137.297 134.237 137.084 134.325 136.862C134.987 135.168 134.949 133.28 134.219 131.613C133.49 129.947 132.128 128.636 130.432 127.968C128.735 127.3 126.843 127.329 125.168 128.05C123.494 128.77 122.173 130.122 121.496 131.811V131.809Z" fill="#F9BE3C"/>
<path d="M110.064 99.7615C107.387 99.1681 105.696 96.3882 106.29 93.5531C106.453 92.7298 106.811 91.9574 107.335 91.3005C107.859 90.6436 108.532 90.1214 109.3 89.7774C109.504 89.5695 116.213 87.5316 121.235 81.2729C121.896 79.9317 122.985 78.8472 124.33 78.1895C125.676 77.5317 127.202 77.3378 128.67 77.6382C132.343 78.4521 134.662 82.2647 133.849 86.1558C133.644 87.183 133.218 88.1536 132.6 89.0005C131.982 89.8474 131.187 90.5505 130.27 91.0611C127.572 92.8205 119.126 98.087 112.541 99.6429C111.741 99.904 110.886 99.9449 110.064 99.7615Z" fill="#F9BE3C"/>
<path d="M91.2267 95.2038C91.0718 90.5976 107.057 90.2495 110.166 89.4572C110.166 89.4572 110.285 90.1309 110.287 90.1309C110.39 90.1053 110.491 90.0722 110.589 90.0316C110.738 89.9653 110.892 89.9117 111.05 89.8713C111.079 89.8636 111.109 89.8578 111.136 89.852C111.776 89.7071 112.441 89.7118 113.079 89.8659C115.505 90.4498 116.964 93.0015 116.344 95.564C115.823 97.7137 114.134 99.5117 112.131 99.5863L111.771 99.8302C111.771 99.8302 91.4105 100.731 91.2267 95.2038Z" fill="#F9BE3C"/>
<path d="M143.588 50.8801C146.259 49.754 147.031 45.3585 145.891 42.6307C144.541 39.3482 142.615 36.3325 140.202 33.7255C134.303 27.461 129.271 29.3277 129.02 30.6739C128.768 32.02 129.734 39.1631 130.792 42.4322C131.337 44.266 132.284 45.9561 133.564 47.3806C134.366 48.8098 135.598 49.951 137.086 50.6425C138.574 51.334 140.243 51.5407 141.856 51.2331L143.588 50.8801Z" fill="#F28B0E"/>
<path d="M143.914 43.286C143.294 41.0052 136.05 28.6153 130.366 29.6026C123.12 30.8603 128.357 48.097 129.265 50.2036C130.173 52.3102 133.837 56.5441 140.369 53.797C146.9 51.0499 144.535 45.5664 143.914 43.286Z" fill="#F9BE3C"/>
<path d="M143.112 89.5142C157.798 89.5142 169.702 77.2814 169.702 62.1914C169.702 47.1015 157.798 34.8686 143.112 34.8686C128.427 34.8686 116.523 47.1015 116.523 62.1914C116.523 77.2814 128.427 89.5142 143.112 89.5142Z" fill="#F9BE3C"/>
<path d="M116.841 62.8319C120.714 62.1941 125.244 70.0447 125.244 70.0447C125.244 70.0447 128.209 77.539 119.6 78.957L119.517 78.9709C110.907 80.389 111.299 72.3417 111.299 72.3417C111.299 72.3417 113.055 63.4558 116.928 62.8194" fill="#D66709"/>
<path d="M111.971 72.4251C113.282 72.0348 114.12 70.9714 113.844 70.0498C113.568 69.1283 112.282 68.6976 110.972 69.0879C109.662 69.4782 108.823 70.5417 109.099 71.4632C109.375 72.3848 110.661 72.8154 111.971 72.4251Z" fill="black"/>
<path d="M124.604 122.666C127.778 122.666 130.351 116.263 130.351 108.363C130.351 100.464 127.778 94.0598 124.604 94.0598C121.43 94.0598 118.857 100.464 118.857 108.363C118.857 116.263 121.43 122.666 124.604 122.666Z" fill="#FBDC8C"/>
<path d="M32.1665 74.1931C31.8954 73.7093 31.748 73.1663 31.7372 72.6121C31.7264 72.058 31.8527 71.5097 32.1048 71.0157C32.4935 70.3129 33.0444 69.7125 33.7118 69.264C34.3793 68.8155 35.1442 68.5319 35.9433 68.4366L59.9422 64.6223C60.2713 64.5701 60.6042 64.5438 60.9375 64.5437C62.9561 64.5437 64.7882 65.5067 65.6052 66.9975L79.9137 92.8362L48.6471 104.295L32.1665 74.1931Z" fill="white"/>
<path d="M60.9361 65.442C62.63 65.442 64.1523 66.2218 64.817 67.4354L78.6166 92.3538L49.0655 103.184L32.96 73.7669C32.7564 73.4092 32.6454 73.0066 32.6371 72.5954C32.6287 72.1842 32.7233 71.7775 32.9123 71.4119C33.2378 70.8383 33.6951 70.3498 34.2467 69.9866C34.7982 69.6235 35.4283 69.396 36.0852 69.3228L60.0835 65.5085C60.3666 65.4638 60.6527 65.4412 60.9393 65.4411M60.9393 63.6445C60.5586 63.6444 60.1785 63.6745 59.8025 63.7343L35.8041 67.5482C31.9349 68.1631 29.7587 71.6419 31.3783 74.6225L48.231 105.405L81.2121 93.3173L66.3978 66.5658C65.407 64.7602 63.2583 63.6463 60.9393 63.6463V63.6445Z" fill="#249079"/>
<path d="M125.523 64.9305C127.765 64.5411 128.992 60.8422 128.263 56.6688C127.535 52.4953 125.126 49.4277 122.884 49.817C120.642 50.2064 119.415 53.9053 120.144 58.0787C120.872 62.2522 123.281 65.3198 125.523 64.9305Z" fill="#1D1D1B"/>
<path d="M124.634 57.6974C125.885 57.4801 126.661 55.9401 126.367 54.2577C126.074 52.5753 124.821 51.3876 123.57 51.6049C122.319 51.8222 121.543 53.3621 121.836 55.0445C122.13 56.7269 123.383 57.9146 124.634 57.6974Z" fill="#DCDCDC"/>
<path d="M168.061 72.1848C150.368 74.8734 141.088 76.0008 122.604 79.2073L120.446 82.0719C140.307 79.9036 158.906 78.4857 169.755 75.7298L168.061 72.1848Z" fill="#45BC9E"/>
</svg>
