<svg width="95" height="146" viewBox="0 0 95 146" fill="none" xmlns="http://www.w3.org/2000/svg">
<path d="M22.5974 8.29124C23.4338 4.95462 26.6944 2.82115 30.0868 3.39032L64.3957 9.1463L84.9374 35.0945L69.7918 98.5215C69.6941 98.9304 69.5584 99.3208 69.3924 99.6914L65.8007 119.285H82.4052C84.9445 119.285 87.2581 120.742 88.3544 123.033L90.6797 127.89C92.7693 132.256 89.6011 137.311 84.7611 137.334L40.156 137.543C34.9787 137.567 31.7925 131.89 34.5111 127.483L37.6375 122.417C38.8387 120.47 40.9633 119.285 43.251 119.285H51.9723L27.3405 97.0408C27.0716 96.7979 26.8582 96.5307 26.6915 96.251L8.58059 92.5642C4.89768 91.8144 2.5848 88.1432 3.49851 84.4975L22.5974 8.29124Z" fill="#E5E1F3"/>
<path d="M82.405 115.987C86.2138 115.987 89.6847 118.173 91.3293 121.608L93.6545 126.466V126.467C96.7886 133.015 92.0362 140.597 84.7762 140.631L40.1711 140.841C32.4056 140.877 27.6262 132.361 31.7042 125.752L34.8306 120.685C36.6327 117.764 39.8199 115.987 43.2508 115.987V119.285C40.9632 119.285 38.8386 120.47 37.6373 122.417L34.511 127.483C31.7924 131.89 34.9785 137.567 40.1558 137.543L84.7609 137.334C89.601 137.311 92.7691 132.256 90.6795 127.89L88.3543 123.033C87.258 120.742 84.9443 119.285 82.405 119.285V115.987ZM19.3984 7.48936C20.6531 2.4842 25.5441 -0.716128 30.6326 0.137579L64.9414 5.89356L65.0912 5.92255C65.837 6.08346 66.5053 6.49899 66.9809 7.09967L87.5225 33.0479C88.15 33.8406 88.3797 34.8769 88.1449 35.8603L72.9993 99.2872C72.8871 99.7573 72.7421 100.208 72.5718 100.637L69.7578 115.987H82.405V119.285H65.8005L69.3923 99.6914C69.5583 99.3208 69.694 98.9305 69.7916 98.5215L84.9372 35.0946L64.3955 9.14635L30.0867 3.39037C26.6942 2.8212 23.4336 4.95467 22.5972 8.29129L3.49836 84.4975C2.58466 88.1432 4.89753 91.8144 8.58044 92.5643L26.6914 96.251C26.8581 96.5308 27.0714 96.798 27.3403 97.0409L51.9721 119.285H43.2508V115.987H43.3998L25.1302 99.4885H25.1294C25.0426 99.4101 24.9595 99.3291 24.8782 99.2478L7.92264 95.7961C2.39825 94.6714 -1.07104 89.1641 0.299518 83.6956L19.3984 7.48936Z" fill="#38274E"/>
<path d="M84.7612 137.333L40.1556 137.543C34.9783 137.567 31.7927 131.89 34.5113 127.484L37.6377 122.417C38.839 120.47 40.9633 119.284 43.251 119.284L82.4051 119.284C84.9444 119.284 87.2582 120.742 88.3545 123.032L90.6795 127.89C92.7692 132.256 89.6013 137.31 84.7612 137.333Z" fill="#B9A9DC"/>
<path d="M27.3406 97.0411L59.4485 126.037C61.365 127.768 64.4371 126.724 64.9027 124.184L69.4589 99.3291C69.8034 97.4498 68.4838 95.6719 66.5852 95.4574L29.9211 91.3165C26.736 90.9568 24.9618 94.8929 27.3406 97.0411Z" fill="#D1C8EA"/>
<path d="M22.5974 8.29165L3.49827 84.4977C2.58456 88.1434 4.89737 91.8145 8.58028 92.5644L62.0606 103.453C65.5457 104.162 68.9657 101.981 69.7918 98.5213L84.9378 35.0946L64.3954 9.14639L30.0867 3.39028C26.6941 2.82109 23.4337 4.95484 22.5974 8.29165Z" fill="#E5E1F3"/>
<mask id="mask0_1873_28547" style="mask-type:alpha" maskUnits="userSpaceOnUse" x="3" y="3" width="82" height="101">
<path d="M22.5974 8.29165L3.49827 84.4977C2.58456 88.1434 4.89737 91.8145 8.58028 92.5644L62.0606 103.453C65.5457 104.162 68.9657 101.981 69.7918 98.5213L84.9378 35.0946L64.3954 9.14639L30.0867 3.39028C26.6941 2.82109 23.4337 4.95484 22.5974 8.29165Z" fill="#E5E1F3"/>
</mask>
<g mask="url(#mask0_1873_28547)">
<rect width="509.688" height="13.6549" transform="matrix(0.767235 -0.641366 0.666374 0.745618 -215.489 209.966)" fill="white" fill-opacity="0.6"/>
<rect width="473.603" height="16.2877" transform="matrix(0.767235 -0.641366 0.666374 0.745618 -169.865 206.773)" fill="white" fill-opacity="0.6"/>
<rect width="449.951" height="5.21747" transform="matrix(0.767235 -0.641366 0.666374 0.745618 -136.935 207.232)" fill="white" fill-opacity="0.6"/>
<rect width="465.373" height="30.1625" transform="matrix(0.767235 -0.641366 0.666374 0.745618 -97.3584 195.755)" fill="white" fill-opacity="0.6"/>
<rect width="482.452" height="20.9129" transform="matrix(0.767235 -0.641366 0.666374 0.745618 -48.2729 217.654)" fill="white" fill-opacity="0.6"/>
<rect width="519.43" height="13.6549" transform="matrix(0.767235 -0.641366 0.666374 0.745618 -6.0957 213.09)" fill="white" fill-opacity="0.6"/>
<rect width="501.977" height="16.2877" transform="matrix(0.767235 -0.641366 0.666374 0.745618 32.3806 215.873)" fill="white" fill-opacity="0.6"/>
<rect width="464.893" height="5.21747" transform="matrix(0.767235 -0.641366 0.666374 0.745618 70.4631 212.023)" fill="white" fill-opacity="0.6"/>
<path d="M23.5609 30.3673C23.7287 29.4723 24.5902 28.8824 25.4852 29.05L73.1949 37.9936C74.0898 38.1615 74.679 39.023 74.5114 39.9179C74.3436 40.813 73.4821 41.4029 72.5871 41.2351L24.8782 32.2916C23.9832 32.1238 23.3933 31.2623 23.5609 30.3673Z" fill="#989898"/>
<path d="M21.7082 39.3108C21.8759 38.4158 22.7375 37.826 23.6325 37.9936L71.3422 46.9371C72.237 47.105 72.8262 47.9665 72.6586 48.8614C72.4908 49.7565 71.6294 50.3464 70.7343 50.1787L23.0254 41.2351C22.1304 41.0673 21.5405 40.2058 21.7082 39.3108Z" fill="#989898"/>
<path d="M19.4362 48.2544C19.604 47.3594 20.4655 46.7695 21.3605 46.9372L69.0702 55.8807C69.9651 56.0486 70.5542 56.9101 70.3866 57.805C70.2188 58.7001 69.3574 59.29 68.4623 59.1222L20.7534 50.1787C19.8584 50.0109 19.2686 49.1494 19.4362 48.2544Z" fill="#989898"/>
<path d="M17.9042 57.1979C18.072 56.3029 18.9335 55.7131 19.8285 55.8807L67.5382 64.8243C68.4331 64.9922 69.0223 65.8537 68.8546 66.7486C68.6868 67.6437 67.8254 68.2336 66.9303 68.0658L19.2214 59.1222C18.3264 58.9545 17.7366 58.0929 17.9042 57.1979Z" fill="#989898"/>
<path d="M60.2317 30.8758L64.3318 9.14603L85.0415 35.2446L60.2317 30.8758Z" fill="#B9A9DC"/>
</g>
</svg>
