<svg width="148" height="145" viewBox="0 0 148 145" fill="none" xmlns="http://www.w3.org/2000/svg">
<path d="M125.082 17.5336C127.044 16.9896 139.402 16.898 141.162 21.5331C143.406 27.4418 128.336 31.1467 126.377 31.4018C124.418 31.657 119.674 30.8096 118.847 24.7745C118.02 18.7394 123.12 18.0776 125.082 17.5336Z" fill="#F9BE3C"/>
<path d="M103.267 14.1413C101.869 12.93 91.8594 8.39584 88.7622 12.0662C84.8141 16.7451 95.7275 25.6105 97.2279 26.5528C98.7284 27.4951 102.888 28.416 105.73 23.1096C108.572 17.8033 104.666 15.3528 103.267 14.1413Z" fill="#F9BE3C"/>
<path d="M133.878 79.1948C134.17 79.5423 134.419 79.9241 134.62 80.3319C134.657 80.3878 134.692 80.4481 134.726 80.5093C135.905 82.6721 139.688 90.0742 135.564 93.3056C132.719 95.5327 130.594 92.733 129.518 91.5658C129.518 91.5658 126.8 88.3279 125.572 86.9319C125.572 86.9313 125.572 86.9308 125.572 86.9302C125.571 86.9297 125.571 86.9292 125.571 86.9287C125.57 86.9283 125.57 86.928 125.569 86.9278C125.569 86.9275 125.568 86.9275 125.568 86.9275C125.43 86.7934 125.299 86.6518 125.172 86.501C124.204 85.3466 123.733 83.8546 123.865 82.3533C123.996 80.852 124.718 79.4643 125.873 78.4956C127.027 77.5268 128.519 77.0564 130.02 77.1876C131.522 77.3189 132.909 78.0413 133.878 79.1957L133.878 79.1948Z" fill="#F9BE3C"/>
<path d="M115.308 93.5506C115.416 93.9919 115.47 94.4446 115.468 94.8988C115.477 94.9655 115.482 95.0351 115.485 95.1051C115.581 97.5665 115.684 105.878 110.555 106.943C107.017 107.676 106.356 104.224 105.909 102.7C105.909 102.7 104.912 98.5924 104.431 96.7961C104.431 96.7957 104.431 96.7951 104.431 96.7946C104.432 96.794 104.432 96.7935 104.431 96.7929C104.431 96.7924 104.431 96.7919 104.431 96.7915C104.43 96.791 104.43 96.7907 104.429 96.7905C104.366 96.6094 104.311 96.4241 104.264 96.2329C103.909 94.7684 104.15 93.2226 104.934 91.9356C105.718 90.6487 106.981 89.7259 108.446 89.3703C109.91 89.0148 111.456 89.2555 112.743 90.0397C114.03 90.8238 114.953 92.0871 115.308 93.5516L115.308 93.5506Z" fill="#F9BE3C"/>
<path d="M114.485 76.2337C114.727 76.1963 115.333 76.0984 116.165 75.9684C119.253 75.4935 125.456 74.5912 127.736 74.6323C136.15 75.4278 138.052 87.5184 129.575 89.7781C129.575 89.7781 126.962 90.2567 122.393 92.3871C121.321 93.2206 120.078 93.8061 118.752 94.1016C117.427 94.3971 116.053 94.3951 114.728 94.0958C113.404 93.7965 112.162 93.2074 111.093 92.3708C110.024 91.5342 109.153 90.4709 108.544 89.2575C107.934 88.0441 107.602 86.7107 107.569 85.3532C107.537 83.9958 107.806 82.6481 108.357 81.4072C108.908 80.1662 109.727 79.0628 110.756 78.1763C111.784 77.2899 112.997 76.6424 114.305 76.2806L114.308 76.2807C114.365 76.2642 114.425 76.2504 114.485 76.2337Z" fill="#F9BE3C"/>
<path d="M101.848 76.2062C102.036 76.3627 102.51 76.752 103.159 77.2902C105.558 79.2911 110.339 83.3447 111.817 85.0815C116.788 91.9163 108.981 101.343 101.678 96.4823C101.678 96.4823 99.5901 94.84 94.9693 92.8236C93.6351 92.5715 92.3733 92.0267 91.2749 91.2286C90.1764 90.4305 89.2686 89.3988 88.6166 88.2077C87.9646 87.0167 87.5848 85.6959 87.5044 84.3405C87.4241 82.9851 87.6451 81.6287 88.1518 80.3689C88.6584 79.1092 89.438 77.9774 90.4344 77.055C91.4308 76.1327 92.6193 75.4426 93.9143 75.0346C95.2094 74.6266 96.5788 74.5107 97.924 74.6953C99.2692 74.8799 100.557 75.3604 101.694 76.1022L101.696 76.1042C101.746 76.1361 101.796 76.1722 101.848 76.2062Z" fill="#F9BE3C"/>
<path d="M136.258 71.2299C138.759 70.6558 140.322 68.0367 139.748 65.381C139.59 64.6096 139.25 63.8872 138.755 63.2744C138.261 62.6615 137.627 62.176 136.906 61.8584C136.714 61.665 130.423 59.799 125.685 53.9592C124.336 51.3991 121.524 49.9515 118.705 50.5986C115.273 51.3866 113.129 54.9796 113.916 58.6237C114.115 59.586 114.52 60.4938 115.103 61.2843C115.687 62.0747 116.436 62.7291 117.297 63.202C119.833 64.8346 127.769 69.7204 133.941 71.1356C134.691 71.3748 135.491 71.4074 136.258 71.2299Z" fill="#F9BE3C"/>
<path d="M136.838 46.0994C132.359 45.7472 131.976 61.3997 131.069 64.3845C131.067 64.3855 131.067 64.3855 131.068 64.3886C131.039 64.4877 131.002 64.5843 130.958 64.6778C130.887 64.819 130.828 64.966 130.781 65.1171C130.773 65.1463 130.766 65.1736 130.758 65.1998C130.589 65.8149 130.565 66.4608 130.687 67.087C131.15 69.468 133.571 70.9977 136.093 70.5069C138.209 70.0953 139.725 68.3935 139.885 66.4519L139.89 66.4452C139.89 66.4452 142.213 46.52 136.838 46.0994Z" fill="#F9BE3C"/>
<path d="M85.6461 75.7298C85.7851 76.4044 85.9578 77.0705 86.1632 77.7254C88.1239 84.5605 90.579 90.267 93.1587 91.8432C98.292 94.9789 107.14 94.3559 111.423 93.3549C115.705 92.3539 123.987 88.9731 127.419 83.8354C129.118 81.2921 129.248 75.1315 128.389 68.1738C128.32 67.3823 128.206 66.5958 128.046 65.8192C125.721 54.5103 114.344 47.5589 102.635 50.2956C90.9269 53.0322 83.3209 64.4209 85.6461 75.7298Z" fill="#F9BE3C"/>
<path d="M127.377 66.7162C126.98 68.6116 126.438 70.4793 125.909 72.2921C123.261 82.6476 112.405 89.3849 101.239 87.4354C89.9191 85.4591 82.5092 75.2955 84.5119 64.6206C84.7677 62.9011 85.0851 61.1452 85.451 59.396C87.3869 50.1608 92.4092 46.9348 92.4092 46.9348C92.4092 46.9348 94.36 44.5401 109.733 47.2241C125.106 49.9081 125.95 52.7914 125.95 52.7914C125.95 52.7914 129.313 57.4807 127.377 66.7162Z" fill="#F9BE3C"/>
<path d="M109.992 54.9634C99.2382 54.9634 90.5204 45.9811 90.5204 34.9009C90.5204 23.8207 99.2382 14.8384 109.992 14.8384C120.746 14.8384 129.464 23.8207 129.464 34.9009C129.464 45.9811 120.746 54.9634 109.992 54.9634Z" fill="#F9BE3C"/>
<path d="M121.864 48.0759C121.864 48.0759 99.6718 44.3855 94.3445 42.8464C92.4073 42.2869 91.6067 46.0083 92.2547 46.2177C92.9028 46.4271 118.256 52.0447 122.533 51.9209C126.809 51.7971 121.864 48.0759 121.864 48.0759Z" fill="#45BC9E"/>
<path d="M17.7594 27.8981C15.9378 13.6785 81.4432 -3.36565 88.5768 8.72989C89.6511 10.5515 90.6626 12.8068 91.5124 15.3739C98.6813 15.6144 107.151 18.9187 109.138 29.3287C111.724 42.8721 98.166 47.1806 90.039 48.3775C86.6643 55.5404 80.7984 62.2219 71.3631 67.1932C70.1537 75.3335 70.7512 80.7055 72.2473 84.1501C84.7434 82.059 95.6545 82.091 98.1463 86.0234C109.141 103.372 38.2727 116.537 28.9296 105.374C24.6335 100.24 37.4677 93.4313 53.256 88.6324C54.2265 84.1637 53.4426 78.5037 49.052 71.9176C41.1281 72.273 35.1857 68.877 30.7218 63.7236C22.997 66.7984 10.629 69.1717 5.91896 57.1528C0.911255 44.3742 11.453 35.8836 18.5648 33.2658C18.2188 31.2608 17.9572 29.4418 17.7594 27.8981ZM20.0158 40.3164C15.8355 42.3023 10.6595 46.6976 13.1758 53.4602C15.3938 59.4212 21.8707 59.6832 27.0281 58.5643C23.6753 52.9443 21.471 46.3286 20.0158 40.3164ZM93.2923 22.7264C94.2195 28.5308 94.1985 35.1029 92.4925 41.5973C97.3147 39.7377 102.29 36.1044 101.03 30.0722C100.049 25.3741 96.7465 23.3766 93.2923 22.7264Z" fill="#B2460B"/>
<path d="M74.1691 0.00865463C77.9508 -0.0546315 81.5619 0.223119 84.6083 1.04164C87.5372 1.82863 90.7537 3.33833 92.5511 6.38567C93.3712 7.77635 94.1356 9.34182 94.8277 11.038C98.1533 11.5109 101.667 12.6075 104.814 14.689C109.109 17.5299 112.443 22.0326 113.67 28.4636C114.472 32.6636 114.063 36.4415 112.604 39.725C111.16 42.9714 108.832 45.4177 106.29 47.2364C102.178 50.1767 97.1662 51.7195 93.1053 52.5264C89.4807 59.1982 83.844 65.3113 75.6392 70.0939C75.2068 73.9394 75.2723 76.8316 75.5919 78.9795C80.5242 78.3198 85.2099 78.0144 89.1874 78.2203C91.7123 78.351 94.155 78.6965 96.2662 79.4008C98.3121 80.0835 100.611 81.2938 102.043 83.5531H102.044C104.217 86.9823 104.485 90.7257 102.916 94.1949C101.498 97.3296 98.7792 99.8157 95.8449 101.774C89.9207 105.727 81.1708 108.804 72.2079 110.885C63.16 112.985 53.4022 114.181 45.1938 114.113C41.0993 114.079 37.23 113.731 33.9605 112.946C30.8532 112.201 27.5261 110.886 25.3913 108.336C24.3039 107.036 23.5633 105.423 23.4842 103.575C23.4073 101.778 23.9742 100.195 24.7222 98.925C26.1345 96.5284 28.5882 94.567 31.0913 92.9806C35.6272 90.1059 42.0576 87.4046 49.0103 85.1324C49.0088 82.7934 48.3598 79.9205 46.4622 76.5182C39.4813 76.1623 33.8647 73.2594 29.4591 69.0755C25.7128 70.2792 21.1612 71.1899 16.6724 70.683C13.7194 70.3495 10.6864 69.3905 7.97256 67.4072C5.24025 65.4103 3.08064 62.5573 1.62258 58.8369V58.8358C-1.5133 50.8331 0.241176 43.8847 3.94539 38.7123C6.55636 35.0665 10.0922 32.3353 13.4619 30.5262C13.3579 29.8038 13.2641 29.1209 13.1825 28.4839C12.7101 24.7944 14.5095 21.6733 16.5642 19.401C18.6584 17.0853 21.5652 15.0152 24.7729 13.1919C31.2281 9.5226 39.8744 6.31077 48.625 3.98626C57.3848 1.65935 66.5713 0.135857 74.1691 0.00865463ZM88.5768 8.72988C81.4432 -3.36566 15.9378 13.6785 17.7594 27.8981C17.9572 29.4418 18.2189 31.2608 18.5649 33.2658C11.453 35.8836 0.911279 44.3742 5.91898 57.1528C10.629 69.1717 22.997 66.7984 30.7219 63.7236C35.1857 68.877 41.1281 72.273 49.052 71.9176C53.4426 78.5036 54.2265 84.1637 53.256 88.6324C37.4678 93.4312 24.6335 100.24 28.9296 105.374C38.2727 116.537 109.141 103.372 98.1463 86.0234C95.6545 82.091 84.7434 82.059 72.2474 84.1501C70.7512 80.7054 70.1537 75.3335 71.3631 67.1932C80.7984 62.2219 86.6643 55.5404 90.039 48.3775C98.1661 47.1806 111.724 42.8721 109.139 29.3287C107.151 18.9187 98.6813 15.6144 91.5125 15.3739C90.6626 12.8068 89.6511 10.5514 88.5768 8.72988ZM20.0158 40.3164C21.4711 46.3286 23.6754 52.9443 27.0281 58.5643C21.8707 59.6832 15.3938 59.4212 13.1758 53.4602C10.6596 46.6976 15.8355 42.3023 20.0158 40.3164ZM17.5026 48.3708C17.0643 49.2853 16.9479 50.3667 17.5003 51.8516C17.9294 53.0044 18.6014 53.642 19.6069 54.0235C18.8165 52.1488 18.1184 50.2512 17.5026 48.3708ZM93.2923 22.7264C96.7465 23.3766 100.049 25.3741 101.03 30.0722C102.29 36.1044 97.3147 39.7377 92.4925 41.5972C94.1985 35.1029 94.2195 28.5308 93.2923 22.7264Z" fill="#441504"/>
<mask id="mask0_1873_28533" style="mask-type:alpha" maskUnits="userSpaceOnUse" x="4" y="4" width="106" height="106">
<path d="M17.7594 27.8981C15.9378 13.6785 81.4432 -3.36565 88.5768 8.72989C89.6511 10.5515 90.6626 12.8068 91.5124 15.3739C98.6813 15.6144 107.151 18.9187 109.138 29.3287C111.724 42.8721 98.166 47.1806 90.039 48.3775C86.6643 55.5404 80.7984 62.2219 71.3631 67.1932C70.1537 75.3335 70.7512 80.7055 72.2473 84.1501C84.7434 82.059 95.6545 82.091 98.1463 86.0234C109.141 103.372 38.2727 116.537 28.9296 105.374C24.6335 100.24 37.4677 93.4313 53.256 88.6324C54.2265 84.1637 53.4426 78.5037 49.052 71.9176C41.1281 72.273 35.1857 68.877 30.7218 63.7236C22.997 66.7984 10.629 69.1717 5.91896 57.1528C0.911255 44.3742 11.453 35.8836 18.5648 33.2658C18.2188 31.2608 17.9572 29.4418 17.7594 27.8981ZM20.0158 40.3164C15.8355 42.3023 10.6595 46.6976 13.1758 53.4602C15.3938 59.4212 21.8707 59.6832 27.0281 58.5643C23.6753 52.9443 21.471 46.3286 20.0158 40.3164ZM93.2923 22.7264C94.2195 28.5308 94.1985 35.1029 92.4925 41.5973C97.3147 39.7377 102.29 36.1044 101.03 30.0722C100.049 25.3741 96.7465 23.3766 93.2923 22.7264Z" fill="#B2460B"/>
</mask>
<g mask="url(#mask0_1873_28533)">
<rect width="509.688" height="13.6549" transform="matrix(0.767235 -0.641366 0.666374 0.745618 -232.163 232.38)" fill="white" fill-opacity="0.6"/>
<rect width="473.603" height="16.2877" transform="matrix(0.767235 -0.641366 0.666374 0.745618 -186.539 229.188)" fill="white" fill-opacity="0.6"/>
<rect width="449.951" height="5.21747" transform="matrix(0.767235 -0.641366 0.666374 0.745618 -153.609 229.646)" fill="white" fill-opacity="0.6"/>
<rect width="465.373" height="30.1625" transform="matrix(0.767235 -0.641366 0.666374 0.745618 -114.033 218.169)" fill="white" fill-opacity="0.6"/>
<rect width="482.452" height="20.9129" transform="matrix(0.767235 -0.641366 0.666374 0.745618 -64.9473 240.069)" fill="white" fill-opacity="0.6"/>
<rect width="519.43" height="13.6549" transform="matrix(0.767235 -0.641366 0.666374 0.745618 -22.77 235.505)" fill="white" fill-opacity="0.6"/>
<rect width="501.977" height="16.2877" transform="matrix(0.767235 -0.641366 0.666374 0.745618 15.7063 238.287)" fill="white" fill-opacity="0.6"/>
<rect width="464.893" height="5.21747" transform="matrix(0.767235 -0.641366 0.666374 0.745618 53.7888 234.438)" fill="white" fill-opacity="0.6"/>
</g>
<path d="M82.5773 10.8654C78.139 4.19785 17.6002 19.1616 24.6201 27.9622C31.7894 36.9501 92.4754 23.2867 82.5773 10.8654Z" fill="#441504"/>
<path d="M107.875 94.1417C109.275 91.5644 109.964 90.1053 107.506 88.3783C104.861 86.5197 105.426 88.187 103.566 90.8308C103.517 90.9 100.581 100.284 95.3995 105.63C88.0603 113.203 86.3545 113.814 82.5836 113.892C78.8126 113.971 78.4495 111.61 78.3959 111.516C78.1506 111.049 77.9606 110.555 77.8299 110.044C77.4522 108.719 77.1969 107.077 76.9267 105.339C76.4667 102.377 75.9911 99.3145 74.7349 96.6025C72.7946 92.4143 69.3084 90.0009 64.9181 89.8072C60.7593 89.6237 57.1824 90.9552 54.2861 93.7656C52.1091 95.878 50.6576 98.4776 49.2541 100.991C47.5073 104.12 45.8574 107.075 43.0103 108.796C42.7583 108.948 41.3561 108.972 39.3019 107.691C36.0856 105.686 34.9996 103.651 35.2399 100.921C35.5537 97.3576 40.8347 98.3682 43.596 97.2586C46.5963 96.0536 49.3516 93.4056 48.0935 86.4857C46.8353 79.5658 40.4731 80.2485 37.4725 81.4538C32.9191 83.2826 29.3224 85.6598 26.7823 88.5193C24.2422 91.3788 22.7326 94.7816 22.4175 98.3586C22.0805 102.192 23.0896 106.153 25.3364 109.813C27.2995 112.974 29.9571 115.646 33.1074 117.627C38.6328 121.072 44.5989 121.517 49.0665 118.817C54.5686 115.491 57.2903 110.617 59.4777 106.699C61.8706 102.413 62.614 101.586 63.8893 101.505C63.9549 101.501 64.0202 101.517 64.0761 101.551C64.132 101.586 64.1757 101.637 64.2012 101.698C64.6998 102.911 65.1012 105.493 65.3563 107.135C65.8425 110.267 66.3454 113.505 67.7447 116.401C69.8303 120.719 73.5454 123.196 78.2044 123.375C84.5734 123.621 91.8402 119.324 100.42 110.24C106.109 104.218 107.339 94.9727 107.517 94.7202C107.647 94.5344 107.767 94.3412 107.875 94.1417Z" fill="#F9BE3C"/>
<path d="M136.773 38.6745C137.053 37.7888 137.895 37.2028 138.823 37.2468L144.535 37.5175C145.901 37.5822 146.821 38.9413 146.374 40.2338L141.917 53.1298C141.547 54.1981 140.383 54.7656 139.314 54.3981L134.42 52.7154C133.368 52.3537 132.796 51.2188 133.132 50.1585L136.773 38.6745Z" fill="#1D1D1D"/>
<path d="M137.417 39.3739C137.634 38.6921 138.281 38.2411 138.996 38.2749L143.392 38.4833C144.444 38.5331 145.152 39.5793 144.808 40.5742L140.953 51.3108C140.669 52.1332 139.772 52.57 138.949 52.2871L135.182 50.9919C134.372 50.7135 133.933 49.8399 134.191 49.0237L137.417 39.3739Z" fill="white"/>
</svg>
