<svg width="187" height="195" viewBox="0 0 187 195" fill="none" xmlns="http://www.w3.org/2000/svg">
<path d="M101.446 133.877C107.128 132.494 122.485 132.034 124.637 133.877C126.074 135.109 131.733 150.588 135.692 161.916C136.534 161.996 137.239 162.09 137.784 162.199C145.539 163.75 148.814 164.612 148.814 180.294C119.586 199.457 88.0371 188.279 75.9163 180.294C75.9164 166.251 83.0441 161.932 88.634 161.37C91.6644 151.728 97.3229 134.88 101.446 133.877Z" fill="#09AFEE"/>
<path d="M114.326 129.378C116.807 129.349 119.246 129.421 121.252 129.634C122.25 129.74 123.217 129.888 124.062 130.102C124.736 130.272 125.757 130.582 126.608 131.241L126.776 131.378L126.778 131.38C127.226 131.764 127.536 132.21 127.7 132.458C127.898 132.759 128.088 133.092 128.265 133.424C128.62 134.091 129.012 134.925 129.424 135.857C130.25 137.732 131.238 140.194 132.29 142.931C134.164 147.812 136.281 153.684 138.124 158.918C138.228 158.937 138.33 158.954 138.429 158.974C142.012 159.69 146.159 160.424 148.832 163.966C151.358 167.314 152.103 172.518 152.103 180.294C152.103 181.403 151.545 182.437 150.617 183.045C119.867 203.206 86.8251 191.419 74.1072 183.041C73.1836 182.432 72.6273 181.4 72.6272 180.294C72.6272 172.723 74.5549 167.298 77.6775 163.641C80.1601 160.733 83.2075 159.168 86.1022 158.472C87.5745 153.868 89.5232 148.091 91.5942 143.119C92.7737 140.287 94.0407 137.6 95.3339 135.51C95.9787 134.467 96.6894 133.474 97.4684 132.667C98.2019 131.907 99.2691 131.021 100.668 130.681H100.668C103.874 129.901 109.429 129.437 114.326 129.378ZM124.637 133.877C122.485 132.034 107.128 132.495 101.446 133.877C97.3231 134.881 91.6646 151.728 88.6342 161.371C83.0442 161.933 75.9165 166.251 75.9164 180.294C88.0374 188.279 119.586 199.458 148.814 180.294C148.814 165.592 145.936 163.915 139.186 162.485L137.784 162.199C137.239 162.09 136.534 161.996 135.692 161.916C131.733 150.589 126.075 135.111 124.637 133.877Z" fill="#06314B"/>
<mask id="mask0_1876_28655" style="mask-type:alpha" maskUnits="userSpaceOnUse" x="75" y="132" width="74" height="59">
<path d="M101.446 133.877C107.128 132.495 122.486 132.034 124.637 133.877C126.074 135.109 131.733 150.589 135.692 161.916C136.534 161.996 137.239 162.09 137.784 162.199C145.539 163.75 148.814 164.612 148.814 180.294C119.586 199.458 88.0371 188.279 75.9163 180.294C75.9163 166.251 83.044 161.932 88.634 161.37C91.6644 151.727 97.3229 134.881 101.446 133.877Z" fill="#F28B0E"/>
</mask>
<g mask="url(#mask0_1876_28655)">
<path d="M112.75 175.669C95.9538 175.888 85.5137 169.658 81.4097 165.059C80.1965 163.7 81.0008 161.808 82.7132 161.186L85.5016 160.172C86.6692 159.747 87.9682 160.027 88.9561 160.78C93.1234 163.958 101.782 168.557 112.75 168.635C123.883 168.714 131.706 164.727 135.172 162.027C135.927 161.439 136.857 161.088 137.812 161.166L142.586 161.556C145.18 161.768 146.31 164.61 144.23 166.173C138.442 170.525 127.963 175.47 112.75 175.669Z" fill="#B8E9FF"/>
<path d="M125.026 134.347C125.026 135.721 119.545 136.834 112.784 136.834C106.022 136.834 100.541 135.721 100.541 134.347C100.541 132.974 106.022 131.861 112.784 131.861C119.545 131.861 125.026 132.974 125.026 134.347Z" fill="#B8E9FF"/>
<path d="M155.567 169.11C148.617 174.022 134.934 186.455 113.234 185.597C100.594 185.097 91.911 182.892 85.4878 180.143C79.0723 177.397 74.96 174.122 71.5503 171.646L72.999 169.65C76.4709 172.171 80.3483 175.259 86.4587 177.875C92.5617 180.487 100.941 182.641 113.331 183.131C134.018 183.95 146.954 172.177 154.144 167.096L155.567 169.11Z" fill="#0070A5"/>
<path d="M152.88 144.364C151.222 145.535 149.28 147.51 146.853 149.944C144.465 152.339 141.68 155.099 138.436 157.68C131.936 162.853 123.523 167.366 112.526 166.931C99.7243 166.425 91.7126 162.226 86.0299 157.471C83.2104 155.112 80.9812 152.63 79.0612 150.471C77.1059 148.273 75.5409 146.497 73.9539 145.345L75.4025 143.349C77.2562 144.694 79.0203 146.713 80.905 148.832C82.8249 150.99 84.9471 153.348 87.6127 155.579C92.9007 160.003 100.397 163.982 112.623 164.466C122.821 164.869 130.669 160.709 136.9 155.751C140.022 153.266 142.719 150.596 145.106 148.202C147.454 145.847 149.58 143.676 151.457 142.35L152.88 144.364Z" fill="#0070A5"/>
<path d="M152.88 138.926C151.222 140.098 149.28 142.073 146.853 144.506C144.465 146.901 141.68 149.662 138.436 152.243C131.936 157.416 123.523 161.929 112.526 161.494C99.7243 160.988 91.7126 156.788 86.0299 152.033C83.2104 149.674 80.9812 147.193 79.0612 145.034C77.1059 142.836 75.5409 141.06 73.9539 139.907L75.4025 137.911C77.2562 139.257 79.0203 141.275 80.905 143.394C82.8249 145.553 84.9471 147.911 87.6127 150.141C92.9007 154.566 100.397 158.545 112.623 159.029C122.821 159.432 130.669 155.272 136.9 150.313C140.022 147.829 142.719 145.158 145.106 142.765C147.454 140.41 149.58 138.238 151.457 136.912L152.88 138.926Z" fill="#0070A5"/>
<path d="M154.067 127.157C152.59 128.2 150.801 130.01 148.309 132.51C145.92 134.905 143.062 137.741 139.717 140.403C132.993 145.755 124.107 150.56 112.445 150.099C99.1644 149.574 90.7224 145.192 84.7109 140.162C81.7631 137.695 79.4454 135.11 77.5253 132.951C75.5109 130.687 74.1107 129.113 72.7456 128.122L76.6106 122.798C78.6863 124.305 80.6159 126.526 82.4415 128.579C84.3614 130.737 86.3949 132.993 88.9324 135.116C93.8917 139.266 100.958 143.061 112.706 143.526C122.238 143.903 129.614 140.036 135.62 135.256C138.64 132.852 141.264 130.258 143.651 127.865C145.933 125.576 148.212 123.239 150.271 121.784L154.067 127.157Z" fill="#70D6FF"/>
</g>
<path d="M142.611 79.8406C142.855 80.5234 143.062 81.219 143.23 81.9242C145.167 89.1751 145.992 95.7198 144.382 98.6688C141.177 104.537 132.273 109.294 127.571 110.975C122.869 112.656 112.967 114.622 106.769 112.117C103.699 110.876 100.12 105.48 97.0494 98.7814C96.6722 98.0369 96.3421 97.2693 96.061 96.4834C91.9689 85.038 99.0712 72.0325 111.926 67.4353C124.78 62.838 138.519 68.3952 142.611 79.8406Z" fill="#F9BE3C"/>
<path d="M103.312 44.2649C100.752 43.2823 99.6853 39.1513 100.52 36.5388C101.328 34.0136 102.713 30.8484 105.067 27.9516C110.02 21.8533 114.821 23.4649 115.162 24.7296C115.504 25.9944 115.183 32.7731 114.468 35.8948C113.752 39.0165 112.301 40.6547 112.301 40.6547C111.678 42.0254 110.617 43.1509 109.286 43.8551C107.955 44.5593 106.428 44.8025 104.944 44.5468L103.312 44.2649Z" fill="#F28B0E"/>
<path d="M102.4 37.0985C102.791 34.9243 108.495 22.997 113.83 23.758C120.631 24.728 117.173 41.1751 116.501 43.1929C115.829 45.2107 112.782 49.3226 106.522 46.9239C100.262 44.5252 102.01 39.2724 102.4 37.0985Z" fill="#F9BE3C"/>
<path d="M86.5062 46.3245C86.1344 43.7995 82.5496 42.1688 79.9673 42.5353C76.865 42.9583 73.8633 43.9321 71.1035 45.4106C64.4488 49.0503 64.9321 53.7503 66.0269 54.2628C67.1216 54.7752 73.4364 55.5335 76.4633 55.3562C79.4902 55.179 81.3028 54.0898 81.3028 54.0898C82.7007 53.7236 83.9478 52.9265 84.8672 51.8117C85.7865 50.6969 86.3316 49.3209 86.4249 47.8789L86.5062 46.3245Z" fill="#F28B0E"/>
<path d="M80.0901 44.3649C78.0048 44.3884 65.8205 47.8173 65.4085 52.8783C64.8834 59.3306 80.7646 58.6851 82.7649 58.3779C84.7651 58.0706 89.1909 55.8864 88.2863 49.7141C87.3817 43.5419 82.1763 44.3413 80.0901 44.3649Z" fill="#F9BE3C"/>
<path d="M146.55 99.8196C146.655 99.9827 146.92 100.39 147.281 100.951C148.616 103.034 151.261 107.236 151.963 108.901C154.087 115.249 145.943 120.507 141.585 115.094C141.585 115.094 140.4 113.356 137.391 110.731C136.444 110.222 135.621 109.51 134.982 108.645C134.343 107.78 133.903 106.784 133.695 105.729C133.487 104.674 133.515 103.586 133.778 102.544C134.04 101.501 134.531 100.529 135.213 99.6989C135.896 98.8684 136.755 98.1995 137.727 97.7404C138.7 97.2814 139.762 97.0435 140.837 97.044C141.912 97.0445 142.974 97.2833 143.946 97.7432C144.918 98.2031 145.776 98.8727 146.458 99.7039L146.458 99.7057C146.489 99.7417 146.519 99.7814 146.55 99.8196Z" fill="#F9BE3C"/>
<path d="M151.673 114.083C151.488 114.531 151.248 114.955 150.961 115.345C150.926 115.408 150.887 115.471 150.845 115.533C149.375 117.715 144.221 124.946 139.128 122.628C135.616 121.028 137.224 117.635 137.8 116.04C137.8 116.04 139.532 111.87 140.25 110.018C140.25 110.018 140.251 110.017 140.251 110.017C140.251 110.017 140.252 110.016 140.252 110.015C140.252 110.015 140.252 110.014 140.252 110.014C140.252 110.013 140.252 110.013 140.251 110.012C140.311 109.814 140.381 109.619 140.461 109.428C141.078 107.941 142.261 106.76 143.749 106.146C145.237 105.531 146.908 105.532 148.394 106.15C149.881 106.767 151.061 107.95 151.676 109.437C152.291 110.925 152.289 112.596 151.672 114.083L151.673 114.083Z" fill="#F9BE3C"/>
<path d="M108.061 110.564C108.038 110.757 107.979 111.239 107.9 111.902C107.615 114.36 107.083 119.296 107.183 121.099C108.059 127.736 117.686 128.887 119.225 122.11C119.225 122.11 119.526 120.028 121.079 116.349C121.708 115.476 122.135 114.475 122.329 113.417C122.524 112.359 122.482 111.271 122.207 110.232C121.931 109.192 121.428 108.227 120.734 107.405C120.041 106.583 119.174 105.925 118.195 105.478C117.217 105.032 116.152 104.808 115.076 104.822C114.001 104.836 112.942 105.089 111.976 105.561C111.01 106.034 110.161 106.715 109.489 107.555C108.818 108.395 108.341 109.374 108.093 110.42L108.093 110.422C108.082 110.468 108.072 110.517 108.061 110.564Z" fill="#F9BE3C"/>
<path d="M107.233 119.883C107.077 120.341 106.978 120.818 106.937 121.301C106.921 121.371 106.909 121.444 106.899 121.519C106.565 124.129 105.674 132.963 111.032 134.577C114.727 135.69 115.756 132.078 116.375 130.5C116.375 130.5 117.822 126.222 118.503 124.357C118.503 124.356 118.502 124.356 118.502 124.355C118.502 124.354 118.502 124.354 118.502 124.353C118.503 124.353 118.503 124.352 118.503 124.352C118.504 124.351 118.504 124.351 118.505 124.351C118.59 124.162 118.667 123.969 118.733 123.773C119.249 122.248 119.138 120.581 118.425 119.138C117.711 117.695 116.454 116.594 114.929 116.078C113.404 115.562 111.737 115.673 110.294 116.386C108.851 117.1 107.75 118.357 107.234 119.882L107.233 119.883Z" fill="#F9BE3C"/>
<path d="M137.724 67.9263C138.69 69.829 139.498 71.8078 140.279 73.7316C145.1 84.4589 139.546 97.7883 127.541 103.878C115.37 110.052 101.117 106.483 95.4569 95.9294C94.4817 94.2758 93.5383 92.5489 92.6476 90.7933C87.9441 81.5218 90.4359 75.2617 90.4359 75.2617C90.4359 75.2617 90.5949 71.8512 107.123 63.4647C123.65 55.0782 126.498 56.9661 126.498 56.9661C126.498 56.9661 133.022 58.6549 137.724 67.9263Z" fill="#F9BE3C"/>
<path d="M109.052 117.783C113.105 116.96 115.306 116.383 114.946 112.162C114.558 107.62 113.268 109.74 108.726 110.126C108.606 110.136 95.804 115.464 85.3316 114.708C70.4976 113.637 68.2916 112.348 64.7898 108.342C61.288 104.337 63.5112 101.806 63.5639 101.664C63.8464 100.975 64.2084 100.322 64.6426 99.7175C65.7316 98.1088 67.2751 96.3448 68.9094 94.4788C71.6939 91.2978 74.5731 88.0089 76.3658 84.1941C79.1345 78.3025 78.584 72.3479 74.8157 67.4276C71.2459 62.7665 66.5655 60.1075 60.9046 59.5229C56.649 59.0841 52.5245 59.8706 48.5358 60.6314C43.5718 61.5781 38.8832 62.4722 34.4439 60.954C34.0508 60.8198 32.7547 59.326 32.2778 55.946C31.5309 50.653 32.7464 47.6358 35.9143 45.4221C40.0496 42.533 43.7421 49.1552 47.4433 51.1352C51.4641 53.2858 56.8222 53.8647 63.1613 46.2353C69.5004 38.6059 62.9978 32.3481 58.9768 30.1971C52.8748 26.9332 47.0466 25.1996 41.6549 25.0448C36.2631 24.89 31.2173 26.3416 27.0656 29.2424C22.6167 32.3513 19.2506 37.0308 17.331 42.775C15.6929 47.7612 15.2125 53.0551 15.9263 58.2547C17.2094 67.3464 22.1344 74.1976 29.1002 76.5791C37.6791 79.5131 45.4141 78.0378 51.6298 76.8524C58.43 75.5556 59.9973 75.6098 61.2404 76.9136C61.3046 76.9804 61.3462 77.0657 61.3596 77.1574C61.3729 77.2491 61.3573 77.3427 61.3149 77.4251C60.4563 79.0628 58.028 81.8368 56.4839 83.6002C53.5398 86.9632 50.4955 90.4405 48.6333 94.5775C45.8569 100.744 46.5461 107.002 50.5732 112.201C56.0787 119.306 67.3061 123.267 84.898 124.31C96.5602 125.001 107.667 117.956 108.101 117.918C108.42 117.891 108.737 117.846 109.052 117.783Z" fill="#F9BE3C"/>
<mask id="mask1_1876_28655" style="mask-type:luminance" maskUnits="userSpaceOnUse" x="15" y="25" width="100" height="100">
<path d="M109.052 117.783C113.105 116.96 115.306 116.383 114.946 112.162C114.558 107.62 113.268 109.74 108.726 110.126C108.606 110.136 95.804 115.464 85.3316 114.708C70.4976 113.637 68.2916 112.348 64.7898 108.342C61.288 104.337 63.5112 101.806 63.5639 101.664C63.8464 100.975 64.2084 100.322 64.6426 99.7175C65.7316 98.1088 67.2751 96.3448 68.9094 94.4788C71.6939 91.2978 74.5731 88.0089 76.3658 84.1941C79.1345 78.3025 78.584 72.3479 74.8157 67.4276C71.2459 62.7665 66.5655 60.1075 60.9046 59.5229C56.649 59.0841 52.5245 59.8706 48.5358 60.6314C43.5718 61.5781 38.8832 62.4722 34.4439 60.954C34.0508 60.8198 32.7547 59.326 32.2778 55.946C31.5309 50.653 32.7464 47.6358 35.9143 45.4221C40.0496 42.533 43.7421 49.1552 47.4433 51.1352C51.4641 53.2858 56.8222 53.8647 63.1613 46.2353C69.5004 38.6059 62.9978 32.3481 58.9768 30.1971C52.8748 26.9332 47.0466 25.1996 41.6549 25.0448C36.2631 24.89 31.2173 26.3416 27.0656 29.2424C22.6167 32.3513 19.2506 37.0308 17.331 42.775C15.6929 47.7612 15.2125 53.0551 15.9263 58.2547C17.2094 67.3464 22.1344 74.1976 29.1002 76.5791C37.6791 79.5131 45.4141 78.0378 51.6298 76.8524C58.43 75.5556 59.9973 75.6098 61.2404 76.9136C61.3046 76.9804 61.3462 77.0657 61.3596 77.1574C61.3729 77.2491 61.3573 77.3427 61.3149 77.4251C60.4563 79.0628 58.028 81.8368 56.4839 83.6002C53.5398 86.9632 50.4955 90.4405 48.6333 94.5775C45.8569 100.744 46.5461 107.002 50.5732 112.201C56.0787 119.306 67.3061 123.267 84.898 124.31C96.5602 125.001 107.667 117.956 108.101 117.918C108.42 117.891 108.737 117.846 109.052 117.783Z" fill="white"/>
</mask>
<g mask="url(#mask1_1876_28655)">
<path d="M61.2382 76.2981C61.2382 76.2981 66.8751 71.1655 48.0585 71.8243C29.2419 72.483 25.8736 69.3641 22.3308 63.3651C18.788 57.366 15.6074 46.8222 13.0897 50.4638C10.572 54.1055 19.8561 82.7093 19.8561 82.7093C19.8561 82.7093 48.6755 82.6175 48.8804 82.2919C49.0852 81.9663 61.2382 76.2981 61.2382 76.2981Z" fill="#F28B0E"/>
<path d="M98.0382 122.438C98.0382 122.438 71.5564 122.016 61.6086 115.077C51.6608 108.138 51.8176 106.131 46.6771 98.9898C41.5365 91.8487 37.0784 108.037 37.1105 108.42C37.1426 108.803 58.6462 131.464 60.0325 131.427C61.4189 131.391 98.0382 122.438 98.0382 122.438Z" fill="#F28B0E"/>
<path d="M55.1675 52.987C54.8103 52.3988 48.1084 49.425 43.2778 43.2361C38.4471 37.0472 33.842 43.9344 33.3218 46.061C32.8016 48.1876 36.5721 54.6182 36.5721 54.6182L55.1675 52.987Z" fill="#F28B0E"/>
</g>
<path d="M148.522 71.5319C149.147 73.4672 149.21 77.1699 147.174 77.8637C145.907 78.2961 143.43 77.4533 141.881 76.9171C141.119 76.5956 138.826 75.6028 132.774 72.8139C129.558 70.9545 128.102 70.207 127.398 68.0259C126.541 65.3706 128.11 62.445 130.903 61.4918C131.636 61.2335 132.416 61.138 133.19 61.2119C133.963 61.2859 134.711 61.5275 135.382 61.9199C137.519 62.9775 144.054 66.3779 147.519 69.9949C147.985 70.4075 148.332 70.9386 148.522 71.5319Z" fill="#F9BE3C"/>
<path d="M160.948 63.192C158.558 59.9006 147.554 68.8368 144.965 69.9653C144.963 69.9657 144.963 69.9657 144.961 69.9659C144.876 70.0041 144.788 70.0357 144.697 70.0603C144.558 70.0946 144.422 70.1405 144.29 70.1975C144.265 70.2084 144.242 70.2202 144.22 70.2302C143.697 70.4753 143.237 70.8383 142.878 71.2908C141.51 73.009 141.879 75.575 143.7 77.0238C145.227 78.239 147.29 78.2828 148.721 77.2521L148.728 77.2508C148.728 77.2508 163.817 67.1408 160.948 63.192Z" fill="#F9BE3C"/>
<path d="M83.6601 104.488C85.012 106.488 87.84 106.971 89.9759 105.567C90.5991 105.167 91.1175 104.623 91.4877 103.982C91.8578 103.341 92.0689 102.62 92.1033 101.88C92.2079 101.645 91.7124 95.4927 95.2303 89.3551C97.0191 87.3035 97.3364 84.3449 95.8126 82.0909C93.9567 79.3467 90.0778 78.6835 87.1474 80.6101C86.3703 81.1105 85.7111 81.7737 85.2154 82.5538C84.7197 83.3339 84.3992 84.2124 84.2762 85.1284C83.7037 87.9077 82.1081 96.528 82.958 102.423C83.0022 103.162 83.2448 103.875 83.6601 104.488Z" fill="#F9BE3C"/>
<path d="M104.595 109.297C105.998 105.479 92.4489 101.314 90.0693 99.7925C90.069 99.7905 90.069 99.7905 90.0663 99.7904C89.987 99.7408 89.9116 99.685 89.841 99.6237C89.7352 99.5272 89.6216 99.4397 89.5013 99.3621C89.4779 99.3478 89.4558 99.335 89.4345 99.3223C88.9398 99.0243 88.3828 98.8449 87.8071 98.798C85.6181 98.619 83.6925 100.354 83.5027 102.673C83.3436 104.618 84.4558 106.356 86.109 106.971L86.1137 106.977C86.1137 106.977 102.913 113.879 104.595 109.297Z" fill="#F9BE3C"/>
<path d="M108.194 83.2237C121.726 80.5751 130.483 67.1258 127.754 53.1838C125.025 39.2418 111.844 30.0866 98.3121 32.7352C84.7805 35.3838 76.0233 48.8331 78.7522 62.7751C81.4811 76.7171 94.6628 85.8723 108.194 83.2237Z" fill="#F9BE3C"/>
<path d="M78.6797 48.9757L78.3406 47.8434L79.524 46.6575L79.86 45.3603C79.86 45.3603 80.3593 44.6174 80.4795 44.5556C80.5997 44.4937 80.8689 43.7169 80.9528 43.6436C81.0367 43.5703 81.564 43.1774 81.7295 42.8493C81.8951 42.5212 83.0207 41.5776 83.0207 41.5776C83.0207 41.5776 83.4954 40.7866 83.6491 40.4948C83.8028 40.203 84.7679 38.9469 84.7679 38.9469L86.0763 38.1223L86.2913 36.8266L88.1312 35.9719C88.1312 35.9719 88.7116 35.9774 88.8083 35.9883C88.905 35.9993 89.8178 35.4695 90.2746 35.2346C90.7314 34.9997 92.4825 33.7954 92.7229 33.6719C92.9633 33.5484 94.2365 32.8329 94.4294 32.7945C94.6224 32.7561 95.1397 32.5206 95.4294 32.4931C95.7191 32.4657 96.1759 32.231 96.6579 32.1047C97.0152 31.992 97.3828 31.915 97.7553 31.8748C97.9971 31.872 98.5767 31.8171 98.5767 31.8171L101.169 31.2442C101.169 31.2442 101.697 30.9118 101.775 31.3581C101.852 31.8043 102.308 31.5093 102.68 31.227C103.051 30.9448 103.729 31.0217 103.729 31.0217C103.729 31.0217 104.417 30.9414 104.478 31.0011C104.54 31.0609 104.96 29.6912 105.61 30.6016C106.261 31.5119 106.153 31.5385 106.261 31.5129C106.37 31.4873 107.281 30.8367 107.427 30.9438C107.574 31.051 107.558 30.7852 107.707 31.0745C107.764 31.1636 107.841 31.2379 107.931 31.2915C108.022 31.3451 108.125 31.3764 108.23 31.3828C108.23 31.3828 108.423 31.345 108.609 31.7655C108.795 32.1859 108.918 32.3663 109.091 32.7029C109.264 33.0395 109.338 33.1231 109.387 33.2192C109.436 33.3154 104.535 36.0181 103.946 36.3501C103.346 36.7196 78.6797 48.9757 78.6797 48.9757Z" fill="#F9BE3C"/>
<path d="M106.451 43.0237C110.402 41.464 116.391 47.2523 116.391 47.2523C116.391 47.2523 120.688 53.1259 111.909 56.5918L111.824 56.6253C103.044 60.0913 102.171 52.866 102.171 52.866C102.171 52.866 102.591 44.5476 106.543 42.9875" fill="#D66709"/>
<path d="M109.24 46.7619C110.259 46.3599 110.832 45.394 110.52 44.6044C110.208 43.8149 109.13 43.5007 108.112 43.9027C107.093 44.3047 106.52 45.2707 106.832 46.0602C107.144 46.8498 108.222 47.1639 109.24 46.7619Z" fill="black"/>
<path d="M126.96 102.572C135.45 100.911 140.985 92.6814 139.323 84.1917C137.662 75.7021 129.432 70.167 120.943 71.8287C112.453 73.4904 106.918 81.7196 108.58 90.2093C110.241 98.6989 118.471 104.234 126.96 102.572Z" fill="#FBDC8C"/>
<path d="M120.163 68.5887L122.122 67.8942C123.178 67.5199 124.511 68.3552 125.36 69.9231L132.036 82.7109C133.248 84.9484 131.99 92.5112 130.484 93.0453L129.508 93.3912C127.999 93.9262 122.322 88.8135 121.858 86.3079L118.924 72.1921C118.601 70.4445 119.111 68.9619 120.163 68.5887Z" fill="#45BC9E"/>
<path d="M86.9049 76.9257C86.9049 76.9257 103.774 74.0443 114.067 66.8287C124.36 59.613 117.07 70.7478 117.07 70.7478C117.07 70.7478 101.727 79.8914 86.8686 80.7037C85.4529 80.3762 85.6088 77.0249 86.9049 76.9257Z" fill="#45BC9E"/>
<path d="M121.341 62.5337C121.341 62.5337 126.747 58.8658 127.529 57.6973C128.311 56.5287 131.006 60.5985 130.357 61.4161C129.708 62.2337 124.252 66.4254 123.739 66.8062C123.227 67.187 121.341 62.5337 121.341 62.5337Z" fill="#45BC9E"/>
<path d="M122.933 70.6596L121.106 71.8328C120.122 72.4649 118.884 72.4264 118.1 71.739L114.903 68.9397C113.783 67.9585 114.059 66.1276 115.463 65.2255L119.28 62.7725C120.688 61.8686 122.471 62.3821 122.894 63.813L124.099 67.8922C124.394 68.8905 123.915 70.0289 122.933 70.6596Z" fill="#A6E9D4"/>
<path d="M106.106 52.0459C106.106 52.0459 110.647 50.1157 110.42 48.026C112.126 48.7594 113.754 47.5035 113.754 47.5035C113.754 47.5035 116.084 52.2272 112.771 53.9169C109.457 55.6067 106.106 52.0459 106.106 52.0459Z" fill="#FC9675"/>
<path d="M109.94 47.3755C110.171 47.2046 110.476 47.1693 110.74 47.2829C111.338 47.5402 111.946 47.4605 112.454 47.2783C112.705 47.1884 112.915 47.0791 113.061 46.9925C113.133 46.9496 113.188 46.9133 113.223 46.8896C113.24 46.8778 113.252 46.869 113.258 46.8643C113.261 46.862 113.263 46.8607 113.264 46.8604C113.264 46.8605 113.263 46.8607 113.263 46.8609C113.263 46.8611 113.262 46.8614 113.262 46.8618C113.262 46.8619 113.261 46.8621 113.261 46.8623L113.261 46.8626L113.261 46.8628C113.453 46.7149 113.701 46.6608 113.937 46.7155C114.173 46.7703 114.372 46.9282 114.48 47.1456L113.754 47.5035C114.48 47.1457 114.48 47.1461 114.48 47.1464L114.481 47.1485C114.482 47.1498 114.482 47.1514 114.483 47.1531C114.485 47.1568 114.487 47.1617 114.49 47.1677C114.496 47.1795 114.504 47.1958 114.513 47.2163C114.532 47.2574 114.559 47.3156 114.59 47.389C114.654 47.5354 114.739 47.7433 114.829 47.9973C115.008 48.5013 115.214 49.2053 115.308 49.9796C115.493 51.5072 115.245 53.5632 113.138 54.6375C111.138 55.6578 109.167 55.0616 107.81 54.3261C107.123 53.9536 106.555 53.5266 106.161 53.1953C105.963 53.0288 105.806 52.8842 105.696 52.7795C105.642 52.7271 105.599 52.6845 105.569 52.654C105.554 52.6387 105.542 52.6265 105.533 52.6175C105.529 52.613 105.525 52.6091 105.522 52.6063C105.521 52.6049 105.52 52.6037 105.519 52.6027C105.518 52.6022 105.518 52.6018 105.518 52.6014C105.518 52.6012 105.517 52.601 105.517 52.6009L106.106 52.046L105.517 52.6003C105.336 52.4077 105.26 52.1386 105.314 51.8797C105.369 51.6209 105.546 51.405 105.789 51.3016L105.789 51.3016C105.789 51.3016 105.79 51.3015 105.79 51.3012C105.792 51.3006 105.794 51.2994 105.798 51.2979C105.805 51.295 105.816 51.2902 105.83 51.2837C105.86 51.2706 105.905 51.2506 105.963 51.224C106.079 51.1707 106.246 51.0916 106.447 50.99C106.85 50.7857 107.38 50.4957 107.897 50.1483C108.421 49.7963 108.896 49.4092 109.22 49.0193C109.551 48.6201 109.639 48.3221 109.616 48.1134C109.585 47.8274 109.709 47.5465 109.94 47.3755ZM111.076 49.0352C110.932 49.4173 110.707 49.7597 110.465 50.0522C110.001 50.6119 109.383 51.0992 108.799 51.491C108.365 51.7829 107.929 52.0349 107.554 52.2367C107.843 52.4559 108.191 52.6923 108.581 52.904C109.729 53.5265 111.091 53.8657 112.403 53.1963C113.61 52.5809 113.854 51.4304 113.702 50.1738C113.634 49.6124 113.488 49.0802 113.346 48.6617C113.239 48.7096 113.123 48.7571 113 48.8012C112.487 48.9849 111.814 49.1288 111.076 49.0352Z" fill="black"/>
<path d="M90.9273 42.0691C90.1929 42.2159 89.543 42.6397 89.1126 43.2527C88.6822 43.8657 88.5043 44.6208 88.6156 45.3615C89.2017 49.1977 90.9198 55.8409 95.7431 55.1039C100.849 54.3235 102.181 48.8025 102.457 45.3602C102.513 44.6678 102.318 43.9785 101.91 43.4165C101.502 42.8546 100.906 42.4569 100.231 42.2953C97.1848 41.531 94.0069 41.4538 90.9273 42.0691Z" fill="black"/>
<path d="M110.38 38.6739C110.052 39.3015 109.878 39.9935 110.255 40.5942C111.649 42.8146 115.187 47.7313 117.765 45.1182C120.648 42.1963 118.308 37.9563 115.578 35.0402C115.281 34.7203 114.87 34.5308 114.434 34.5133C113.998 34.4959 113.573 34.6518 113.251 34.947C111.565 36.5126 110.956 37.5712 110.38 38.6739Z" fill="black"/>
<path d="M88.8029 40.4492C88.8058 40.0024 89.1702 39.6427 89.6169 39.6457L89.6119 40.4158C89.617 39.6456 89.6172 39.6456 89.6173 39.6456L89.6177 39.6455C89.6181 39.6455 89.6187 39.6456 89.6193 39.6456C89.6207 39.6456 89.6228 39.6456 89.6254 39.6456C89.6305 39.6457 89.6378 39.6457 89.6473 39.6458C89.6665 39.646 89.6947 39.6464 89.7311 39.6469C89.8039 39.6479 89.9101 39.6496 90.0455 39.6525C90.3162 39.6585 90.7038 39.6695 91.1745 39.6891C92.1148 39.7284 93.3918 39.803 94.7324 39.945C96.0684 40.0864 97.4907 40.297 98.7128 40.6135C99.324 40.7718 99.9033 40.9613 100.405 41.1909C100.898 41.4167 101.367 41.7041 101.708 42.0829C102.007 42.4147 101.981 42.9261 101.649 43.2252C101.317 43.5244 100.806 43.4979 100.507 43.1661C100.373 43.0182 100.127 42.8428 99.7315 42.6619C99.3447 42.4848 98.8628 42.3235 98.3072 42.1796C97.1957 41.8917 95.8627 41.6914 94.5621 41.5537C93.2662 41.4165 92.0253 41.3437 91.1069 41.3054C90.6483 41.2862 90.2714 41.2757 90.0099 41.27C89.8792 41.2671 89.7773 41.2655 89.7086 41.2645L89.6118 41.2634C89.6098 41.2633 89.6083 41.2634 89.6074 41.2634C89.6069 41.2634 89.6066 41.2634 89.6064 41.2634L89.6061 41.2633C89.1595 41.2602 88.7999 40.8958 88.8029 40.4492Z" fill="black"/>
<path d="M112.056 32.5919C112.356 32.2608 112.868 32.2355 113.199 32.5355C113.53 32.8354 113.555 33.3468 113.255 33.6779C113.255 33.6781 113.255 33.6784 113.255 33.6786C113.254 33.6796 113.252 33.6815 113.25 33.6842C113.245 33.6897 113.237 33.6985 113.226 33.7105C113.205 33.7345 113.173 33.7713 113.132 33.82C113.049 33.9173 112.929 34.0615 112.786 34.2438C112.499 34.6095 112.122 35.1232 111.76 35.7169C111.004 36.9552 110.436 38.3422 110.602 39.4377C110.67 39.8793 110.366 40.2918 109.924 40.3591C109.483 40.4262 109.07 40.1226 109.003 39.6809C108.743 37.972 109.602 36.1467 110.379 34.8739C110.783 34.2121 111.199 33.6456 111.514 33.245C111.671 33.0441 111.805 32.8834 111.899 32.7719C111.947 32.7161 111.985 32.6724 112.011 32.6421C112.025 32.627 112.035 32.6152 112.043 32.6068C112.046 32.6026 112.05 32.5992 112.052 32.5968C112.053 32.5955 112.054 32.5944 112.055 32.5936C112.055 32.5932 112.055 32.5929 112.055 32.5926L112.056 32.5922C112.056 32.592 112.056 32.5919 112.62 33.1024L112.056 32.5919Z" fill="black"/>
<path d="M115.828 54.0282C115.981 53.6347 116.415 53.4218 116.824 53.55C117.25 53.6837 117.487 54.1377 117.354 54.564L116.582 54.3219C117.349 54.5624 117.353 54.5647 117.353 54.5655C117.353 54.5658 117.353 54.5666 117.353 54.5672C117.352 54.5683 117.352 54.5693 117.351 54.5704C117.351 54.5727 117.35 54.5751 117.349 54.5775C117.348 54.5822 117.346 54.5872 117.344 54.5924C117.341 54.6027 117.336 54.614 117.332 54.626C117.322 54.6501 117.311 54.6776 117.296 54.7082C117.268 54.7693 117.229 54.8426 117.176 54.9272C117.07 55.0964 116.907 55.3092 116.66 55.5584C116.167 56.0553 115.33 56.7035 113.904 57.4481C112.497 58.1826 111.582 58.5124 110.986 58.6521C110.686 58.7224 110.455 58.7474 110.275 58.7468C110.184 58.7465 110.104 58.7398 110.034 58.7281C109.999 58.7223 109.966 58.7154 109.936 58.7074C109.92 58.7034 109.906 58.699 109.891 58.6945C109.884 58.6923 109.877 58.6901 109.87 58.6877C109.867 58.6866 109.864 58.6853 109.86 58.6841C109.859 58.6835 109.857 58.6829 109.855 58.6822C109.854 58.682 109.853 58.6815 109.853 58.6813C109.852 58.6809 109.85 58.6804 110.133 57.9224L109.85 58.6804C109.432 58.5244 109.219 58.0587 109.375 57.6401C109.515 57.2635 109.906 57.0534 110.288 57.1287C110.325 57.1279 110.428 57.1212 110.617 57.0769C111.033 56.9793 111.816 56.7134 113.155 56.0141C114.476 55.3249 115.165 54.7684 115.511 54.4191C115.684 54.2453 115.769 54.1247 115.806 54.0661C115.818 54.0468 115.825 54.034 115.828 54.0282ZM110.409 57.1624C110.408 57.1619 110.407 57.1614 110.405 57.1609C110.402 57.1598 110.399 57.1587 110.396 57.1577C110.39 57.1556 110.384 57.1536 110.378 57.1518C110.378 57.1516 110.377 57.1516 110.377 57.1514C110.388 57.1549 110.398 57.1585 110.409 57.1624ZM115.818 54.0569C115.816 54.0602 115.815 54.0639 115.814 54.0677C115.813 54.0696 115.813 54.0715 115.812 54.0735C115.812 54.0745 115.811 54.0757 115.811 54.0767C115.814 54.0675 115.817 54.0585 115.82 54.0495C115.819 54.0518 115.818 54.0543 115.818 54.0569Z" fill="#772D10"/>
<path d="M91.7729 48.7101C92.8367 48.5019 93.4556 47.0894 93.1554 45.5552C92.8551 44.021 91.7492 42.9461 90.6854 43.1543C89.6217 43.3625 89.0027 44.775 89.303 46.3092C89.6033 47.8434 90.7091 48.9183 91.7729 48.7101Z" fill="#DCDCDC"/>
<path d="M112.625 41.7029C113.421 41.5471 113.885 40.4903 113.66 39.3424C113.435 38.1945 112.608 37.3903 111.812 37.5461C111.016 37.7019 110.553 38.7587 110.777 39.9066C111.002 41.0545 111.83 41.8587 112.625 41.7029Z" fill="#DCDCDC"/>
<path d="M127.311 23.6835C127.351 21.6847 129.151 20.1838 131.125 20.5027L142.412 22.3263C142.607 22.3578 142.796 22.4053 142.976 22.4685L151.021 23.6449C152.197 23.8171 152.997 24.8425 152.969 25.9553L174.034 30.6C175.054 30.825 175.857 31.5 176.281 32.3683L176.439 32.4061C178.289 32.8474 179.372 34.7575 178.821 36.5642C179.52 37.421 179.776 38.614 179.375 39.745L171.854 60.9749C179.148 63.6223 183.71 66.8384 183.261 69.561C182.546 73.8897 169.433 75.3294 153.971 72.7771C138.509 70.2247 126.554 64.6462 127.269 60.3172C127.371 59.6966 127.729 59.1357 128.312 58.6373C127.293 58.0486 126.645 56.9417 126.67 55.723L127.311 23.6835Z" fill="#70D6FF"/>
<path d="M124.023 23.6176C124.104 19.6195 127.703 16.6177 131.65 17.2551L142.937 19.0788C143.193 19.1202 143.447 19.1781 143.699 19.2499L151.497 20.3902L151.766 20.436C153.435 20.7617 154.763 21.7973 155.53 23.151L174.742 27.3879C176.23 27.716 177.486 28.5265 178.386 29.6107C180.847 30.7187 182.365 33.2328 182.247 35.892C182.936 37.3851 183.076 39.1478 182.476 40.8428V40.8436L176.014 59.0814C178.528 60.1591 180.717 61.3387 182.417 62.5947C183.59 63.4619 184.673 64.4688 185.44 65.6326C186.221 66.8166 186.793 68.36 186.507 70.0967V70.0975C186.051 72.8573 183.775 74.4119 181.902 75.2505C179.889 76.1521 177.319 76.7099 174.505 77.0188C168.831 77.6419 161.376 77.3329 153.436 76.0223C145.496 74.7116 138.337 72.6079 133.163 70.1938C130.598 68.9969 128.344 67.6425 126.728 66.1417C125.224 64.7456 123.568 62.542 124.024 59.7816V59.7808C124.069 59.5073 124.134 59.2451 124.214 58.9939C123.659 58.0003 123.357 56.8563 123.381 55.6572L124.023 23.6176ZM131.125 20.5026C129.152 20.1837 127.352 21.6847 127.312 23.6835L126.67 55.7231C126.645 56.9417 127.293 58.0486 128.312 58.6373C127.729 59.1357 127.372 59.6966 127.269 60.3173C126.554 64.6463 138.51 70.2248 153.972 72.7772C169.433 75.3295 182.546 73.8898 183.262 69.561C183.711 66.8384 179.148 63.6223 171.854 60.9749L179.376 39.745C179.776 38.614 179.52 37.421 178.821 36.5642C179.373 34.7575 178.289 32.8474 176.439 32.4061L176.282 32.3683C175.857 31.5 175.054 30.825 174.034 30.6L152.969 25.9553C152.997 24.8425 152.197 23.817 151.021 23.6449L142.976 22.4685C142.796 22.4053 142.607 22.3578 142.413 22.3263L131.125 20.5026Z" fill="#06314B"/>
<path d="M183.261 69.561C182.547 73.89 169.433 75.3303 153.971 72.7779C138.509 70.2254 126.554 64.6469 127.269 60.3179C127.983 55.9888 141.097 54.5486 156.559 57.101C172.021 59.6534 183.976 65.232 183.261 69.561Z" fill="#09AFEE"/>
<path d="M167.328 64.893C166.801 68.0876 157.775 69.258 147.168 67.507C136.561 65.7561 128.39 61.7468 128.917 58.5522C129.444 55.3575 138.47 54.1872 149.077 55.9382C159.684 57.6891 167.856 61.6983 167.328 64.893Z" fill="#B8E9FF"/>
<path d="M177.085 35.459L154.402 29.6919C153.09 29.3584 152.356 27.9611 152.827 26.6919C153.331 25.3331 152.455 23.8552 151.021 23.6456L142.625 22.4181C141.082 22.1925 139.592 23.0818 139.059 24.5474L127.993 54.9397C127.337 56.7401 128.353 58.7175 130.198 59.233L165.706 69.1522C167.372 69.6176 169.114 68.713 169.692 67.0825L179.375 39.7451C180.021 37.9209 178.961 35.9358 177.085 35.459Z" fill="#70D6FF"/>
<path d="M178.793 36.6545L168.794 66.3895C168.226 68.078 166.418 69.0076 164.714 68.4865L130.571 58.0414C128.802 57.5003 127.827 55.6077 128.414 53.8534L137.642 26.2401C138.182 24.624 139.867 23.6879 141.524 24.0831L176.438 32.4065C178.319 32.8549 179.41 34.8215 178.793 36.6545Z" fill="#09AFEE"/>
<path d="M172.378 33.1613L168.266 65.5494C168.01 67.573 165.992 68.8772 164.041 68.2805L130.098 57.8966C128.521 57.4143 127.546 55.8397 127.815 54.2134L132.614 25.2577C132.92 23.4123 134.701 22.1932 136.532 22.5759L169.788 29.5273C171.467 29.8782 172.594 31.46 172.378 33.1613Z" fill="#B8E9FF"/>
<path d="M166.906 33.4942L147.799 29.5372C146.272 29.221 145.177 27.8758 145.177 26.3163V25.5736C145.177 23.9596 144.006 22.584 142.412 22.3265L131.125 20.5026C129.151 20.1837 127.352 21.6848 127.312 23.6838L126.669 55.7235C126.639 57.2231 127.627 58.5531 129.072 58.9571L164.303 68.8117C166.353 69.385 168.399 67.8903 168.476 65.7633L169.526 36.8344C169.584 35.231 168.477 33.8196 166.906 33.4942Z" fill="#70D6FF"/>
<mask id="mask2_1876_28655" style="mask-type:alpha" maskUnits="userSpaceOnUse" x="75" y="20" width="109" height="171">
<path d="M101.445 133.877C107.128 132.495 122.485 132.034 124.637 133.877C126.075 135.11 131.733 150.589 135.692 161.916C136.534 161.996 137.239 162.09 137.784 162.199C145.539 163.75 148.813 164.612 148.813 180.294C119.586 199.457 88.0368 188.279 75.916 180.294C75.9161 166.251 83.0439 161.932 88.6338 161.37C91.6642 151.728 97.3226 134.881 101.445 133.877ZM127.312 23.6834C127.352 21.6846 129.151 20.1838 131.125 20.5027L142.412 22.326C142.607 22.3574 142.796 22.4054 142.977 22.4685L151.021 23.6443C152.196 23.8164 152.997 24.8422 152.969 25.9549L174.033 30.6004C175.054 30.8254 175.856 31.4998 176.281 32.368L176.438 32.406C178.289 32.8474 179.372 34.7575 178.82 36.5642C179.519 37.4211 179.776 38.6139 179.375 39.7449L171.854 60.9744C179.148 63.6218 183.711 66.8388 183.262 69.5613C182.546 73.8897 169.432 75.3292 153.972 72.7771C138.51 70.2247 126.554 64.6462 127.269 60.3172C127.371 59.6967 127.729 59.1359 128.312 58.6375C127.293 58.0488 126.645 56.941 126.67 55.7224L127.312 23.6834Z" fill="#F8AE27"/>
</mask>
<g mask="url(#mask2_1876_28655)">
<rect width="509.688" height="13.6549" transform="matrix(0.767235 -0.641366 0.666374 0.745618 -206.92 232.686)" fill="white" fill-opacity="0.4"/>
<rect width="473.603" height="16.2877" transform="matrix(0.767235 -0.641366 0.666374 0.745618 -161.296 229.493)" fill="white" fill-opacity="0.4"/>
<rect width="449.951" height="5.21747" transform="matrix(0.767235 -0.641366 0.666374 0.745618 -128.366 229.951)" fill="white" fill-opacity="0.4"/>
<rect width="465.373" height="30.1625" transform="matrix(0.767235 -0.641366 0.666374 0.745618 -88.7898 218.475)" fill="white" fill-opacity="0.4"/>
<rect width="482.452" height="20.9129" transform="matrix(0.767235 -0.641366 0.666374 0.745618 -39.7043 240.374)" fill="white" fill-opacity="0.4"/>
<rect width="519.43" height="13.6549" transform="matrix(0.767235 -0.641366 0.666374 0.745618 2.4729 235.81)" fill="white" fill-opacity="0.4"/>
<rect width="501.977" height="16.2877" transform="matrix(0.767235 -0.641366 0.666374 0.745618 40.9492 238.592)" fill="white" fill-opacity="0.4"/>
<rect width="464.893" height="5.21747" transform="matrix(0.767235 -0.641366 0.666374 0.745618 79.0317 234.743)" fill="white" fill-opacity="0.4"/>
</g>
</svg>
