<svg width="106" height="101" viewBox="0 0 106 101" fill="none" xmlns="http://www.w3.org/2000/svg">
<path d="M29.1114 8.61549C29.3723 5.28241 32.2835 2.7909 35.6168 3.04781L78.574 6.35824C81.9578 6.61921 84.467 9.60858 84.138 12.9865L82.3733 31.0947C93.0627 32.8506 101.655 41.6138 102.728 52.9047C104.005 66.3438 94.1454 78.2737 80.7063 79.5508C79.7008 79.6463 78.7038 79.6789 77.719 79.6529L80.4814 84.6156C82.1177 87.5547 81.0117 91.2172 77.8381 92.3325C72.2172 94.3075 63.4837 96.4808 52.7607 96.9638C41.7787 97.4585 32.4772 95.0752 26.4917 92.7045C23.2954 91.4385 22.466 87.5948 24.4172 84.7642L27.5612 80.2024C26.7214 80.1307 25.8771 80.0177 25.031 79.86C11.2069 77.2826 2.08903 63.9864 4.66627 50.1622C6.80991 38.6645 16.3685 30.4243 27.4783 29.4588L29.1114 8.61549ZM79.5636 59.9464C79.2714 62.9454 76.8196 65.2745 73.8095 65.412L43.0653 66.8142C41.3261 66.8936 39.6366 66.2207 38.428 64.9675L27.6211 53.7604C26.4182 52.5128 25.8069 50.8095 25.9422 49.0817L26.5036 41.9084C24.0396 44.5206 22.1686 47.7632 21.174 51.475C18.6117 61.0377 22.6377 70.8127 30.4685 75.9837L32.086 73.6385C32.8681 72.504 34.0131 71.6721 35.3713 71.4397C38.5269 70.8995 44.6931 70.2392 54.339 70.1321C64.7685 70.0162 70.4924 71.3285 72.8932 72.3486C73.6483 72.6696 74.187 73.3077 74.5861 74.0246L75.2007 75.1295C84.3566 71.87 90.4931 62.7171 89.5318 52.6007C88.9629 46.6131 86.0148 41.4263 81.7121 37.8827L79.5636 59.9464Z" fill="#F9BE3C"/>
<path d="M26.0908 8.37883C26.4823 3.37937 30.8496 -0.358055 35.8497 0.0273158L78.8069 3.33774C83.8829 3.72923 87.6467 8.21358 87.1532 13.2801L85.6489 28.7133C96.1618 31.5928 104.351 40.6079 105.682 52.0253L105.744 52.6177V52.6185C107.125 67.1521 96.9168 80.1123 82.6876 82.3502L83.1284 83.1423C85.5031 87.4082 84.0896 93.1786 79.0835 95.1015L78.8424 95.1903C72.9702 97.2536 63.9442 99.4926 52.8967 99.9903C41.4142 100.507 31.6852 98.0197 25.3763 95.5209C20.0539 93.4128 19.0675 87.1874 21.9232 83.0447L22.3891 82.3679C8.10204 78.5924 -1.06427 64.3689 1.68783 49.6068C3.92048 37.632 13.3379 28.8218 24.6493 26.7837L26.0908 8.37883ZM35.6168 3.04782C32.2834 2.79091 29.3723 5.28242 29.1113 8.6155L27.4783 29.4588C16.3684 30.4243 6.80982 38.6645 4.66618 50.1623C2.08894 63.9864 11.2068 77.2826 25.0309 79.86C25.8771 80.0177 26.7213 80.1307 27.5611 80.2024L24.4171 84.7642C22.4659 87.5948 23.2953 91.4385 26.4916 92.7045C32.4771 95.0752 41.7786 97.4585 52.7606 96.9638C63.4837 96.4808 72.2171 94.3075 77.838 92.3325C81.0116 91.2172 82.1176 87.5547 80.4813 84.6156L77.719 79.6529C78.7037 79.6789 79.7007 79.6463 80.7062 79.5508C94.1453 78.2737 104.005 66.3438 102.728 52.9047C101.655 41.6138 93.0626 32.8506 82.3732 31.0948L84.1379 12.9865C84.4669 9.60859 81.9578 6.61922 78.5739 6.35825L35.6168 3.04782ZM81.712 37.8828C86.0147 41.4263 88.9628 46.6131 89.5318 52.6007C90.493 62.7171 84.3565 71.87 75.2006 75.1295L74.586 74.0246C74.1869 73.3077 73.6482 72.6696 72.8931 72.3486C70.4923 71.3285 64.7685 70.0162 54.3389 70.1321C44.693 70.2393 38.5268 70.8996 35.3712 71.4397C34.013 71.6721 32.868 72.504 32.0859 73.6385L30.4684 75.9837C22.6376 70.8127 18.6116 61.0377 21.1739 51.475C22.1685 47.7632 24.0395 44.5206 26.5035 41.9084L25.9421 49.0817C25.8068 50.8095 26.4181 52.5128 27.621 53.7604L38.428 64.9675C39.6366 66.2207 41.326 66.8936 43.0652 66.8142L73.8095 65.412C76.8195 65.2745 79.2713 62.9454 79.5635 59.9464L81.712 37.8828ZM23.8062 53.5222C22.4497 60.3594 24.8964 67.1816 29.7961 71.6349C30.9628 70.0769 32.6961 68.8243 34.8602 68.4539C35.5728 68.3319 36.4195 68.206 37.4044 68.0819C36.9939 67.78 36.6065 67.4423 36.2476 67.0701L25.4407 55.8631H25.4399C24.7683 55.1664 24.2199 54.3749 23.8062 53.5222ZM82.5788 60.24C82.1406 64.7382 78.463 68.2321 73.9478 68.4384L71.0027 68.5723C72.2727 68.8874 73.2907 69.2258 74.0779 69.5604L74.3753 69.6972C75.2334 70.1208 75.8925 70.7118 76.3973 71.3206C83.0296 67.935 87.2624 60.7461 86.5157 52.8869C86.2493 50.084 85.3773 47.487 84.0418 45.2092L82.5788 60.24Z" fill="#441504"/>
<path d="M76.0823 30.8838C89.5214 29.607 101.451 39.466 102.728 52.905C104.005 66.3442 94.1456 78.2741 80.7065 79.5511C75.397 80.0556 70.3238 78.8205 66.0493 76.3146C67.3262 76.4219 68.6307 76.4185 69.9513 76.293C81.9006 75.1575 90.6672 64.5503 89.5319 52.6009C88.4766 41.4951 79.2393 33.1401 68.3472 32.9271C70.7325 31.8522 73.3326 31.1451 76.0823 30.8838Z" fill="#F28B0E"/>
<path d="M34.3638 29.7983C20.5397 27.2211 7.24379 36.3383 4.66648 50.1625C2.08925 63.9866 11.2065 77.2824 25.0306 79.8598C29.3555 80.6661 33.6286 80.3271 37.538 79.0581C37.3667 79.0165 37.1949 78.9735 37.0237 78.9276C25.0662 75.7235 17.9701 63.4326 21.1741 51.4751C24.1205 40.479 34.7511 33.5944 45.7404 35.0498C42.5514 32.4584 38.6876 30.6044 34.3638 29.7983Z" fill="#F28B0E"/>
<path d="M32.0862 73.6388L24.4171 84.7643C22.466 87.5949 23.2952 91.4387 26.4915 92.7047C32.4769 95.0754 41.7787 97.4588 52.7608 96.9641C63.4839 96.4811 72.217 94.3074 77.8378 92.3324C81.0116 91.2172 82.118 87.5547 80.4817 84.6155L74.5859 74.0248C74.1867 73.3078 73.6483 72.6692 72.893 72.3483C70.4922 71.3282 64.7688 70.0163 54.3392 70.1321C44.6931 70.2393 38.5268 70.8992 35.3712 71.4393C34.0129 71.6718 32.8682 72.5042 32.0862 73.6388Z" fill="#F9BE3C"/>
<path d="M25.9423 49.0819L29.1109 8.6154C29.3718 5.28233 32.2833 2.79059 35.6167 3.04751L78.5736 6.3583C81.9576 6.61912 84.4673 9.60858 84.1382 12.9866L79.5632 59.9466C79.271 62.9457 76.8192 65.2743 73.8091 65.4116L43.0651 66.814C41.3258 66.8933 39.6363 66.2205 38.4277 64.9671L27.6213 53.7605C26.4182 52.5129 25.807 50.8098 25.9423 49.0819Z" fill="#F9BE3C"/>
<path d="M49.1106 48.2549V55.5732C49.1106 59.0163 51.9762 61.7673 55.4164 61.6269L61.6698 61.3717C64.8484 61.2419 67.3853 58.676 67.4789 55.4961L67.6866 48.433C67.787 45.0185 65.0464 42.1961 61.6305 42.1961H55.1694C51.8232 42.1961 49.1106 44.9087 49.1106 48.2549Z" fill="#FFF9EB"/>
<path d="M44.0673 24.3974L44.5426 13.1977C44.6885 9.75942 47.6654 7.1329 51.0951 7.41641L67.1963 8.74744C70.5032 9.02081 72.975 11.9034 72.7408 15.2133L71.9636 26.1938C71.7275 29.5307 68.8316 32.0448 65.4947 31.8099L49.6953 30.6981C46.4229 30.4678 43.9282 27.6749 44.0673 24.3974Z" fill="#FFF9EB"/>
<mask id="mask0_1876_28798" style="mask-type:alpha" maskUnits="userSpaceOnUse" x="4" y="3" width="99" height="95">
<path d="M35.6171 3.04754L78.5736 6.35797C81.9576 6.61878 84.4674 9.6089 84.1383 12.987L82.3736 31.0952C93.063 32.8511 101.656 41.6142 102.729 52.9051C104.006 66.3442 94.1456 78.2742 80.7066 79.5513C79.7011 79.6468 78.704 79.6794 77.7193 79.6533L80.4817 84.6153C82.118 87.5545 81.0114 91.217 77.8377 92.3322C72.2167 94.3072 63.4839 96.4813 52.7609 96.9643C41.7788 97.459 32.4767 95.0757 26.4912 92.705C23.2951 91.4389 22.4664 87.5952 24.4174 84.7647L27.5614 80.2021C26.7215 80.1304 25.8768 80.0174 25.0305 79.8597C11.2067 77.2821 2.08943 63.9866 4.66648 50.1627C6.81007 38.6649 16.3686 30.4239 27.4786 29.4585L29.1109 8.61521C29.3719 5.28222 32.2838 2.79063 35.6171 3.04754ZM79.5631 59.9468C79.2709 62.9458 76.8192 65.2744 73.8091 65.4117L43.0656 66.814C41.3263 66.8933 39.6369 66.2204 38.4283 64.9672L27.6213 53.7608C26.4183 52.5133 25.8072 50.8099 25.9424 49.0822L26.5038 41.9081C24.0398 44.5203 22.1689 47.763 21.1743 51.4747C18.6119 61.0375 22.6377 70.8132 30.4688 75.9842L32.0863 73.6389C32.8683 72.5044 34.0133 71.6719 35.3715 71.4394C38.5272 70.8993 44.6934 70.239 54.3392 70.1318C64.7688 70.0159 70.4926 71.3282 72.8935 72.3483C73.6485 72.6693 74.1866 73.3081 74.5857 74.025L75.201 75.13C84.3568 71.8705 90.4932 62.7175 89.5321 52.6012C88.9632 46.6134 86.0151 41.426 81.7124 37.8825L79.5631 59.9468Z" fill="#F9BE3C"/>
</mask>
<g mask="url(#mask0_1876_28798)">
<rect width="509.688" height="13.6549" transform="matrix(0.767235 -0.641366 0.666374 0.745618 -191.814 208.463)" fill="white" fill-opacity="0.4"/>
<rect width="473.603" height="16.2877" transform="matrix(0.767235 -0.641366 0.666374 0.745618 -146.19 205.271)" fill="white" fill-opacity="0.4"/>
<rect width="449.951" height="5.21747" transform="matrix(0.767235 -0.641366 0.666374 0.745618 -113.26 205.729)" fill="white" fill-opacity="0.4"/>
<rect width="465.373" height="30.1625" transform="matrix(0.767235 -0.641366 0.666374 0.745618 -73.6838 194.252)" fill="white" fill-opacity="0.4"/>
<rect width="482.452" height="20.9129" transform="matrix(0.767235 -0.641366 0.666374 0.745618 -24.5984 216.151)" fill="white" fill-opacity="0.4"/>
<rect width="519.43" height="13.6549" transform="matrix(0.767235 -0.641366 0.666374 0.745618 17.5789 211.587)" fill="white" fill-opacity="0.4"/>
<rect width="501.977" height="16.2877" transform="matrix(0.767235 -0.641366 0.666374 0.745618 56.0552 214.37)" fill="white" fill-opacity="0.4"/>
<rect width="464.893" height="5.21747" transform="matrix(0.767235 -0.641366 0.666374 0.745618 94.1377 210.52)" fill="white" fill-opacity="0.4"/>
</g>
</svg>
