<svg width="159" height="143" viewBox="0 0 159 143" fill="none" xmlns="http://www.w3.org/2000/svg">
<path d="M149.519 83.9904C149.65 84.8623 149.734 85.7407 149.771 86.6217C150.388 95.7276 149.845 103.731 147.234 106.874C142.038 113.129 130.3 116.726 124.296 117.634C118.292 118.542 106.016 118.576 99.2035 114.137C95.8302 111.939 92.8194 104.664 90.7192 95.9521C90.4429 94.9754 90.2282 93.9823 90.0764 92.9787C87.8663 78.3635 99.3805 64.5012 115.795 62.0174C132.21 59.5337 147.309 69.3751 149.519 83.9904Z" fill="#F9BE3C"/>
<path d="M110.928 32.3529C108.102 30.5823 107.794 25.403 109.401 22.4802C110.955 19.6554 113.348 16.2014 116.833 13.2939C124.168 7.17298 129.522 10.218 129.634 11.8071C129.746 13.3962 127.78 21.4112 126.197 24.9697C124.614 28.5281 122.499 30.1443 122.499 30.1443C121.435 31.6345 119.907 32.73 118.154 33.2594C116.401 33.7889 114.522 33.7226 112.81 33.0708L110.928 32.3529Z" fill="#F28B0E"/>
<path d="M111.514 23.5873C112.488 21.0838 122.081 8.18167 128.271 10.3362C136.161 13.0826 128.192 31.9033 126.918 34.1545C125.645 36.4056 121.049 40.6012 114.138 36.2763C107.228 31.9513 110.54 26.0905 111.514 23.5873Z" fill="#F9BE3C"/>
<path d="M90.3906 30.8853C90.5366 27.785 86.6393 25.0014 83.4719 24.8356C79.6707 24.6158 75.8609 25.0767 72.2218 26.1966C63.4297 28.9858 62.9086 34.7078 64.0954 35.5752C65.2822 36.4426 72.6413 38.8226 76.2952 39.3181C79.9491 39.8136 82.3667 38.9372 82.3667 38.9372C84.1205 38.8267 85.795 38.1667 87.1527 37.051C88.5103 35.9353 89.4822 34.4205 89.9305 32.7213L90.3906 30.8853Z" fill="#F28B0E"/>
<path d="M83.1909 27.0479C80.6968 26.5888 65.3546 27.8348 63.6806 33.7785C61.5468 41.3562 80.6508 44.2957 83.1097 44.3963C85.5687 44.4969 91.3608 42.924 91.723 35.3464C92.0853 27.7689 85.6862 27.507 83.1909 27.0479Z" fill="#F9BE3C"/>
<path d="M149.553 108.754C149.64 108.974 149.862 109.521 150.162 110.275C151.269 113.074 153.443 118.706 153.892 120.857C154.944 128.929 143.996 133.302 140.06 125.824C140.06 125.824 139.052 123.472 136.074 119.637C135.062 118.808 134.247 117.766 133.686 116.584C133.125 115.403 132.833 114.112 132.831 112.805C132.829 111.497 133.117 110.205 133.674 109.022C134.231 107.839 135.043 106.794 136.052 105.962C137.061 105.131 138.242 104.533 139.51 104.212C140.777 103.891 142.1 103.856 143.384 104.107C144.667 104.359 145.878 104.892 146.931 105.668C147.983 106.444 148.851 107.444 149.471 108.595V108.597C149.499 108.647 149.525 108.702 149.553 108.754Z" fill="#F9BE3C"/>
<path d="M154.657 125.299C154.594 125.886 154.46 126.462 154.258 127.016C154.239 127.101 154.214 127.188 154.187 127.275C153.219 130.325 149.678 140.526 142.941 139.563C138.295 138.898 139.011 134.387 139.138 132.33C139.138 132.33 139.732 126.87 139.936 124.464C139.937 124.463 139.937 124.463 139.937 124.462C139.938 124.462 139.938 124.461 139.938 124.46C139.938 124.459 139.938 124.459 139.937 124.458C139.937 124.457 139.937 124.457 139.936 124.456C139.938 124.205 139.953 123.953 139.981 123.702C140.193 121.756 141.169 119.974 142.695 118.748C144.22 117.521 146.171 116.951 148.117 117.163C150.063 117.375 151.845 118.351 153.072 119.877C154.298 121.403 154.868 123.353 154.656 125.299H154.657Z" fill="#F9BE3C"/>
<path d="M101.109 112.586C101.037 112.811 100.853 113.373 100.605 114.145C99.69 117.012 97.9022 122.779 97.5997 124.955C97.0958 133.08 108.315 136.702 111.735 128.974C111.735 128.974 112.581 126.559 115.294 122.531C116.248 121.636 116.991 120.541 117.471 119.324C117.951 118.107 118.155 116.799 118.068 115.494C117.982 114.189 117.608 112.92 116.972 111.777C116.336 110.634 115.455 109.646 114.392 108.884C113.328 108.123 112.109 107.606 110.823 107.372C109.536 107.138 108.213 107.192 106.95 107.531C105.686 107.869 104.514 108.483 103.516 109.329C102.519 110.175 101.721 111.231 101.181 112.422V112.424C101.156 112.477 101.134 112.533 101.109 112.586Z" fill="#F9BE3C"/>
<path d="M97.9438 123.514C97.6503 124.025 97.4201 124.57 97.2584 125.137C97.2238 125.217 97.1923 125.302 97.163 125.388C96.1547 128.425 93.0274 138.76 99.0448 141.939C103.194 144.13 105.267 140.06 106.373 138.32C106.373 138.32 109.1 133.553 110.348 131.486C110.348 131.485 110.348 131.485 110.348 131.484C110.348 131.483 110.348 131.482 110.348 131.482C110.349 131.481 110.349 131.481 110.35 131.48C110.35 131.48 110.351 131.48 110.352 131.48C110.498 131.274 110.634 131.062 110.759 130.843C111.731 129.144 111.988 127.128 111.474 125.239C110.96 123.351 109.716 121.743 108.017 120.771C106.318 119.799 104.302 119.542 102.413 120.056C100.524 120.571 98.917 121.814 97.945 123.513L97.9438 123.514Z" fill="#F9BE3C"/>
<path d="M146.47 68.6299C147.177 71.1263 147.68 73.6767 148.163 76.1551C151.41 90.0835 141.669 104.694 125.918 109.157C109.951 113.682 93.775 106.093 89.4849 92.1765C88.7073 89.9753 87.9848 87.6939 87.3319 85.3906C83.8844 73.2269 88.3205 66.338 88.3205 66.338C88.3205 66.338 89.3069 62.3049 110.991 56.1569C132.675 50.0089 135.632 52.9272 135.632 52.9272C135.632 52.9272 143.023 56.4665 146.47 68.6299Z" fill="#F9BE3C"/>
<path d="M109.606 116.872C114.58 116.122 117.288 115.556 117.11 110.407C116.918 104.866 115.22 107.363 109.68 107.553C109.535 107.558 93.6586 113.243 80.9859 111.682C63.0352 109.471 60.4351 107.77 56.4278 102.69C52.4206 97.6111 55.276 94.6733 55.3487 94.5034C55.7341 93.6845 56.2139 92.9135 56.7783 92.206C58.1997 90.3191 60.1825 88.2713 62.282 86.1052C65.8591 82.4127 69.5577 78.5948 71.9692 74.0717C75.6934 67.0861 75.3902 59.8201 71.1154 53.6131C67.0658 47.7329 61.5444 44.2163 54.7049 43.1588C49.5632 42.3648 44.5057 43.0669 39.6146 43.7461C33.5276 44.5913 27.7782 45.3896 22.4796 43.2732C22.0104 43.086 20.528 41.1922 20.1562 37.0578C19.5739 30.5835 21.2353 26.9936 25.2187 24.4994C30.4184 21.2442 34.4967 29.5137 38.8704 32.1456C43.6218 35.0044 50.0939 36.0363 58.2612 27.1591C66.4284 18.2819 58.9148 10.2826 54.1632 7.42328C46.9523 3.08477 39.9803 0.621638 33.4413 0.102748C26.9023 -0.416142 20.6849 1.03724 15.4645 4.30551C9.87036 7.80839 5.49496 13.2853 2.811 20.144C0.515484 26.0993 -0.392818 32.4995 0.155067 38.8584C1.15547 49.9794 6.71669 58.6026 15.0307 61.9225C25.2701 66.0124 34.755 64.6952 42.377 63.637C50.7156 62.4793 52.6158 62.6413 54.0456 64.301C54.1194 64.3862 54.1648 64.4923 54.1754 64.6045C54.1859 64.7167 54.1612 64.8294 54.1046 64.9269C52.9614 66.8633 49.8419 70.0833 47.8583 72.1304C44.0763 76.0341 40.1654 80.0706 37.6499 84.9809C33.8994 92.2997 34.3524 99.9434 38.9245 106.504C45.1751 115.472 58.5681 120.971 79.8701 123.318C93.9918 124.873 107.914 116.997 108.443 116.978C108.832 116.965 109.221 116.93 109.606 116.872Z" fill="#F9BE3C"/>
<mask id="mask0_1859_24256" style="mask-type:luminance" maskUnits="userSpaceOnUse" x="0" y="0" width="118" height="124">
<path d="M109.606 116.872C114.58 116.122 117.288 115.556 117.11 110.407C116.918 104.866 115.22 107.363 109.68 107.553C109.535 107.558 93.6586 113.243 80.9859 111.682C63.0352 109.471 60.4351 107.77 56.4278 102.69C52.4206 97.6111 55.276 94.6733 55.3487 94.5034C55.7341 93.6845 56.2139 92.9135 56.7783 92.206C58.1997 90.3191 60.1825 88.2713 62.282 86.1052C65.8591 82.4127 69.5577 78.5948 71.9692 74.0717C75.6934 67.0861 75.3902 59.8201 71.1154 53.6131C67.0658 47.7329 61.5444 44.2163 54.7049 43.1588C49.5632 42.3648 44.5057 43.0669 39.6146 43.7461C33.5276 44.5913 27.7782 45.3896 22.4796 43.2732C22.0104 43.086 20.528 41.1922 20.1562 37.0578C19.5739 30.5835 21.2353 26.9936 25.2187 24.4994C30.4184 21.2442 34.4967 29.5137 38.8704 32.1456C43.6218 35.0044 50.0939 36.0363 58.2612 27.1591C66.4284 18.2819 58.9148 10.2826 54.1632 7.42328C46.9523 3.08477 39.9803 0.621638 33.4413 0.102748C26.9023 -0.416142 20.6849 1.03724 15.4645 4.30551C9.87036 7.80839 5.49496 13.2853 2.811 20.144C0.515484 26.0993 -0.392818 32.4995 0.155067 38.8584C1.15547 49.9794 6.71669 58.6026 15.0307 61.9225C25.2701 66.0124 34.755 64.6952 42.377 63.637C50.7156 62.4793 52.6158 62.6413 54.0456 64.301C54.1194 64.3862 54.1648 64.4923 54.1754 64.6045C54.1859 64.7167 54.1612 64.8294 54.1046 64.9269C52.9614 66.8633 49.8419 70.0833 47.8583 72.1304C44.0763 76.0341 40.1654 80.0706 37.6499 84.9809C33.8994 92.2997 34.3524 99.9434 38.9245 106.504C45.1751 115.472 58.5681 120.971 79.8701 123.318C93.9918 124.873 107.914 116.997 108.443 116.978C108.832 116.965 109.221 116.93 109.606 116.872Z" fill="white"/>
</mask>
<g mask="url(#mask0_1859_24256)">
<path d="M54.0806 63.5534C54.0806 63.5534 61.2417 57.6656 38.3479 57.311C15.454 56.9564 11.5544 52.9617 7.61972 45.4582C3.68501 37.9547 0.469118 24.9536 -2.81219 29.2221C-6.09349 33.4905 3.42704 68.8006 3.42704 68.8006C3.42704 68.8006 38.4349 70.4576 38.7037 70.0747C38.9725 69.6918 54.0806 63.5534 54.0806 63.5534Z" fill="#F28B0E"/>
<path d="M95.9439 121.85C95.9439 121.85 63.8066 119.712 52.1505 110.674C40.4944 101.636 40.808 99.2083 35.0028 90.2197C29.1976 81.2311 22.7897 100.619 22.8052 101.086C22.8207 101.554 47.5469 130.395 49.2329 130.436C50.919 130.476 95.9439 121.85 95.9439 121.85Z" fill="#F28B0E"/>
<path d="M48.1379 34.8686C47.7402 34.1323 39.783 30.1093 34.2958 22.2962C28.8086 14.4831 22.7929 22.5653 22.0306 25.1162C21.2682 27.6671 25.453 35.7087 25.453 35.7087L48.1379 34.8686Z" fill="#F28B0E"/>
</g>
<path d="M151.445 43.3342C153.917 43.2786 158.254 44.4922 158.355 47.1056C158.419 48.7326 156.576 51.3261 155.412 52.9457C154.773 53.7213 152.819 56.0482 147.466 62.1318C144.181 65.2343 142.804 66.6707 140.017 66.7332C136.625 66.8092 133.761 63.9634 133.621 60.3774C133.575 59.4336 133.734 58.491 134.089 57.6153C134.444 56.7396 134.986 55.9517 135.676 55.3065C137.652 53.1838 143.886 46.75 149.305 43.9696C149.948 43.569 150.687 43.3494 151.445 43.3342Z" fill="#F9BE3C"/>
<path d="M143.865 26.5994C139.425 28.7799 147.849 43.8204 148.664 47.1565C148.664 47.1595 148.664 47.1595 148.664 47.1609C148.692 47.2712 148.711 47.3835 148.722 47.4969C148.734 47.6709 148.761 47.8437 148.802 48.0133C148.81 48.0453 148.819 48.0755 148.827 48.1045C149.012 48.7823 149.351 49.408 149.819 49.9324C151.594 51.9278 154.745 52.0181 156.859 50.1373C158.632 48.5597 159.113 46.0971 158.175 44.1683V44.1592C158.175 44.1592 149.192 23.9811 143.865 26.5994Z" fill="#F9BE3C"/>
<path d="M73.4072 99.6347C74.5535 102.338 77.8156 103.575 80.6926 102.398C81.5299 102.066 82.2755 101.539 82.8671 100.86C83.4587 100.18 83.879 99.3695 84.0929 98.4946C84.2725 98.2391 85.1184 90.7806 90.7505 84.2775C93.3646 82.247 94.4343 78.7901 93.1423 75.7441C91.5684 72.0357 87.0941 70.3381 83.1469 71.9528C82.1026 72.3685 81.161 73.006 80.3871 73.8212C79.6132 74.6364 79.0256 75.6099 78.6648 76.6744C77.3324 79.8576 73.4144 89.7726 73.0517 97.0068C72.9318 97.8988 73.0547 98.8066 73.4072 99.6347Z" fill="#F9BE3C"/>
<path d="M97.2685 110.264C99.8346 106.036 84.6373 97.8997 82.1528 95.5283C82.1528 95.5259 82.1528 95.5259 82.1496 95.5251C82.0665 95.4474 81.9897 95.3632 81.9196 95.2736C81.816 95.1337 81.7008 95.0027 81.5753 94.8821C81.5508 94.8594 81.5274 94.839 81.505 94.8189C80.9841 94.3477 80.3613 94.0034 79.6852 93.8131C77.1146 93.0881 74.4112 94.7092 73.643 97.4325C72.9987 99.7166 73.9201 102.05 75.7495 103.17L75.7537 103.178C75.7537 103.178 94.1903 115.34 97.2685 110.264Z" fill="#F9BE3C"/>
<path d="M107.655 79.9885C124.422 79.9885 138.015 65.9832 138.015 48.7068C138.015 31.4304 124.422 17.4251 107.655 17.4251C90.8869 17.4251 77.2939 31.4304 77.2939 48.7068C77.2939 65.9832 90.8869 79.9885 107.655 79.9885Z" fill="#F9BE3C"/>
<path d="M80.4309 32.2211L80.2908 30.7906L81.98 29.6517L82.6841 28.1821C82.6841 28.1821 83.4535 27.4121 83.6114 27.3664C83.7693 27.3206 84.272 26.4565 84.3893 26.3886C84.5066 26.3207 85.2276 25.975 85.5018 25.6221C85.776 25.2692 87.3398 24.406 87.3398 24.406C87.3398 24.406 88.0911 23.5728 88.3427 23.2605C88.5942 22.9482 90.0395 21.6746 90.0395 21.6746L91.7937 20.9961L92.3529 19.4999L94.7484 18.9097C94.7484 18.9097 95.4397 19.0518 95.5525 19.0875C95.6654 19.1231 96.8785 18.7041 97.4786 18.5305C98.0786 18.3569 100.45 17.3287 100.766 17.2374C101.081 17.1462 102.768 16.5897 103.007 16.589C103.246 16.5882 103.919 16.4279 104.271 16.4628C104.623 16.4977 105.223 16.3243 105.828 16.2862C106.281 16.2352 106.737 16.2292 107.191 16.2683C107.48 16.3214 108.185 16.3912 108.185 16.3912L111.413 16.313C111.413 16.313 112.121 16.0398 112.109 16.5904C112.097 17.141 112.71 16.8956 113.22 16.6455C113.729 16.3954 114.52 16.6455 114.52 16.6455C114.52 16.6455 115.36 16.7104 115.419 16.796C115.478 16.8816 116.299 15.3451 116.863 16.5835C117.427 17.822 117.291 17.8284 117.427 17.8232C117.562 17.8181 118.802 17.2544 118.952 17.4165C119.101 17.5785 119.145 17.2579 119.255 17.6378C119.302 17.7573 119.376 17.864 119.472 17.9492C119.568 18.0343 119.683 18.0956 119.807 18.1279C119.807 18.1279 120.046 18.1279 120.17 18.6731C120.294 19.2183 120.398 19.4623 120.526 19.9044C120.654 20.3466 120.723 20.4637 120.759 20.5898C120.795 20.716 114.314 22.7967 113.534 23.0554C112.732 23.3562 80.4309 32.2211 80.4309 32.2211Z" fill="#F9BE3C"/>
<path d="M114.964 31.6048C120.043 30.6663 125.839 38.9733 125.839 38.9733C125.839 38.9733 129.595 46.987 118.308 49.0724L118.199 49.0926C106.911 51.1782 107.557 42.3512 107.557 42.3512C107.557 42.3512 110.001 32.5218 115.082 31.5831" fill="#D66709"/>
<path d="M117.42 36.7174C118.729 36.4755 119.638 35.4567 119.451 34.4418C119.263 33.4269 118.05 32.8002 116.741 33.0421C115.432 33.284 114.523 34.3028 114.71 35.3177C114.898 36.3326 116.111 36.9592 117.42 36.7174Z" fill="black"/>
<path d="M125.53 107.463C136.05 107.463 144.579 98.9352 144.579 88.4152C144.579 77.8951 136.05 69.367 125.53 69.367C115.01 69.367 106.482 77.8951 106.482 88.4152C106.482 98.9352 115.01 107.463 125.53 107.463Z" fill="#FBDC8C"/>
<path d="M125.357 65.3184L127.857 64.947C129.204 64.7468 130.6 66.0551 131.247 68.1248L136.228 84.9457C137.152 87.8992 133.884 96.6311 131.961 96.9166L130.716 97.1015C128.79 97.3875 123.21 89.9597 123.24 86.8609L123.037 69.3293C123.059 67.1682 124.014 65.5178 125.357 65.3184Z" fill="#45BC9E"/>
<path d="M83.7177 67.499C83.7177 67.499 104.523 68.0007 118.492 61.7937C132.462 55.5866 121.161 67.1724 121.161 67.1724C121.161 67.1724 100.715 74.5008 82.7918 71.9993C81.1788 71.2778 82.1478 67.3145 83.7177 67.499Z" fill="#45BC9E"/>
<path d="M128.177 58.3672C128.177 58.3672 135.485 55.2524 136.691 54.0405C137.898 52.8286 140.164 58.3153 139.198 59.1394C138.232 59.9635 130.742 63.6916 130.041 64.0263C129.341 64.361 128.177 58.3672 128.177 58.3672Z" fill="#45BC9E"/>
<path d="M128.178 68.4367L125.725 69.4103C124.403 69.9348 122.934 69.5996 122.159 68.596L118.997 64.5083C117.89 63.0759 118.646 60.9551 120.533 60.2065L125.662 58.1708C127.553 57.4207 129.561 58.4501 129.731 60.2566L130.217 65.4064C130.336 66.6668 129.498 67.9133 128.178 68.4367Z" fill="#A6E9D4"/>
<path d="M112.445 42.2917C112.445 42.2917 118.316 41.0491 118.533 38.5021C120.397 39.7757 122.634 38.6573 122.634 38.6573C122.634 38.6573 124.311 44.8389 119.962 46.0816C115.613 47.3242 112.445 42.2917 112.445 42.2917Z" fill="#FC9675"/>
<path d="M118.111 37.6135C118.427 37.4636 118.799 37.4926 119.088 37.6899C119.742 38.1368 120.485 38.1834 121.134 38.0847C121.455 38.036 121.731 37.9546 121.925 37.8854C122.022 37.8511 122.096 37.8207 122.143 37.8004C122.166 37.7903 122.182 37.7826 122.191 37.7785C122.195 37.7765 122.198 37.7754 122.198 37.7752C122.198 37.7752 122.198 37.7754 122.197 37.7756C122.197 37.7758 122.196 37.776 122.196 37.7764C122.196 37.7765 122.195 37.7767 122.195 37.7768L122.194 37.7771V37.7773C122.458 37.6457 122.767 37.6391 123.036 37.7596C123.305 37.8801 123.505 38.115 123.583 38.3996L122.633 38.6573C123.583 38.3996 123.583 38.4002 123.583 38.4005L123.584 38.4034C123.584 38.405 123.585 38.4071 123.585 38.4094C123.587 38.4142 123.588 38.4207 123.59 38.4284C123.594 38.4438 123.6 38.4651 123.606 38.4918C123.62 38.5453 123.637 38.621 123.658 38.7159C123.699 38.9054 123.752 39.1734 123.801 39.4976C123.896 40.1409 123.979 41.0294 123.91 41.9752C123.773 43.8415 122.997 46.2373 120.232 47.0274C117.606 47.7777 115.393 46.6057 113.946 45.4112C113.213 44.8061 112.635 44.1639 112.242 43.6763C112.044 43.4313 111.89 43.222 111.785 43.0716C111.732 42.9963 111.691 42.9354 111.662 42.8919C111.647 42.8702 111.636 42.8528 111.628 42.84C111.623 42.8336 111.62 42.8282 111.617 42.8242C111.616 42.8222 111.615 42.8206 111.614 42.8192C111.614 42.8185 111.613 42.8178 111.613 42.8172C111.613 42.817 111.612 42.8166 111.612 42.8165L112.445 42.2918L111.612 42.8158C111.441 42.5436 111.413 42.2047 111.539 41.9085C111.664 41.6123 111.926 41.3961 112.241 41.3295H112.24C112.241 41.3294 112.241 41.3294 112.242 41.3292C112.244 41.3288 112.247 41.328 112.251 41.3271C112.26 41.3251 112.275 41.322 112.294 41.3177C112.332 41.309 112.391 41.2956 112.466 41.2774C112.617 41.2409 112.835 41.1855 113.098 41.1112C113.628 40.9617 114.327 40.7393 115.026 40.4455C115.733 40.1478 116.391 39.7968 116.868 39.407C117.356 39.0079 117.531 38.6729 117.553 38.4185C117.583 38.07 117.795 37.7635 118.111 37.6135ZM119.08 39.8597C118.819 40.2821 118.47 40.6382 118.112 40.9306C117.428 41.4901 116.576 41.9272 115.789 42.2586C115.202 42.5056 114.623 42.7045 114.128 42.8576C114.422 43.1868 114.782 43.5503 115.199 43.8941C116.423 44.9051 117.969 45.628 119.691 45.1357C121.275 44.6832 121.835 43.367 121.947 41.8319C121.998 41.146 121.948 40.4768 121.876 39.9443C121.737 39.9762 121.587 40.0058 121.43 40.0297C120.775 40.1293 119.938 40.1437 119.08 39.8597Z" fill="black"/>
<path d="M96.6606 26.8394C95.7497 26.843 94.8752 27.197 94.2184 27.828C93.5615 28.459 93.1727 29.3187 93.1326 30.2286C92.9359 34.9439 93.4346 43.2734 99.363 43.5206C105.639 43.782 108.518 37.5042 109.652 33.4605C109.88 32.647 109.809 31.779 109.453 31.013C109.097 30.247 108.479 29.6333 107.711 29.2826C104.254 27.659 100.48 26.8244 96.6606 26.8394Z" fill="black"/>
<path d="M120.669 27.3314C120.131 28.0038 119.761 28.789 120.07 29.5939C121.216 32.5695 124.289 39.2637 127.977 36.7474C132.101 33.9339 130.298 28.3269 127.721 24.209C127.441 23.7578 126.995 23.4357 126.479 23.313C125.962 23.1903 125.419 23.2771 124.966 23.5543C122.588 25.0289 121.614 26.15 120.669 27.3314Z" fill="black"/>
<path d="M94.5039 24.4099C94.6118 23.8775 95.1307 23.5333 95.6631 23.6412L95.4773 24.559C95.6632 23.6411 95.6634 23.6411 95.6636 23.6412H95.6641C95.6646 23.6413 95.6652 23.6415 95.666 23.6417C95.6677 23.642 95.6702 23.6425 95.6732 23.6431C95.6793 23.6443 95.688 23.646 95.6994 23.6484C95.7223 23.6531 95.7557 23.6602 95.7991 23.6693C95.8857 23.6875 96.0121 23.7143 96.173 23.7495C96.4947 23.8198 96.9547 23.9235 97.5119 24.0569C98.6248 24.3234 100.131 24.7107 101.698 25.1933C103.26 25.6742 104.908 26.2577 106.292 26.921C106.985 27.2527 107.632 27.6141 108.177 28.0053C108.713 28.39 109.205 28.8426 109.524 29.3744C109.804 29.8402 109.653 30.4444 109.187 30.7238C108.721 31.0033 108.117 30.8523 107.837 30.3864C107.713 30.1787 107.459 29.9117 107.03 29.6035C106.609 29.3018 106.072 28.9968 105.443 28.6952C104.183 28.0921 102.639 27.5416 101.119 27.0735C99.6047 26.607 98.1408 26.2303 97.0536 25.97C96.5108 25.84 96.0635 25.7394 95.7527 25.6714C95.5974 25.6375 95.4762 25.6118 95.3944 25.5946L95.2791 25.5706C95.2767 25.5701 95.2749 25.5698 95.2738 25.5696C95.2733 25.5695 95.2729 25.5694 95.2726 25.5694L95.2724 25.5691C94.7401 25.4612 94.3961 24.9423 94.5039 24.4099Z" fill="black"/>
<path d="M124.091 20.4646C124.526 20.1395 125.142 20.2289 125.468 20.6642C125.793 21.0994 125.703 21.7157 125.268 22.0407C125.268 22.0409 125.267 22.0413 125.267 22.0414C125.266 22.0425 125.263 22.0443 125.26 22.047C125.253 22.0523 125.241 22.0611 125.226 22.0729C125.195 22.0967 125.148 22.1331 125.087 22.1815C124.966 22.2783 124.789 22.4224 124.576 22.6065C124.148 22.9759 123.578 23.501 123.007 24.1248C121.815 25.4261 120.814 26.9487 120.757 28.2951C120.734 28.8378 120.275 29.2592 119.732 29.2363C119.19 29.2133 118.768 28.7545 118.791 28.2118C118.88 26.1116 120.331 24.1337 121.556 22.7963C122.193 22.1008 122.822 21.522 123.291 21.1173C123.526 20.9144 123.722 20.7537 123.862 20.6428C123.931 20.5873 123.987 20.544 124.026 20.5141C124.045 20.4991 124.06 20.4875 124.071 20.4792C124.077 20.4751 124.081 20.4718 124.084 20.4694C124.086 20.4682 124.087 20.467 124.089 20.4663C124.089 20.4659 124.089 20.4656 124.09 20.4653L124.09 20.4648C124.09 20.4647 124.091 20.4646 124.644 21.2055L124.091 20.4646Z" fill="black"/>
<path d="M123.585 46.9286C123.859 46.4947 124.427 46.342 124.885 46.5905C125.362 46.8496 125.539 47.4468 125.28 47.9243L124.415 47.455C125.275 47.9213 125.279 47.9251 125.279 47.926C125.279 47.9263 125.278 47.9273 125.278 47.9279C125.277 47.9291 125.277 47.9303 125.276 47.9315C125.274 47.934 125.273 47.9368 125.272 47.9394C125.269 47.9447 125.266 47.9503 125.262 47.956C125.255 47.9675 125.248 47.9799 125.239 47.9932C125.223 48.0198 125.202 48.0499 125.178 48.083C125.13 48.1493 125.066 48.2278 124.983 48.3162C124.817 48.4933 124.573 48.7094 124.22 48.9491C123.515 49.4268 122.365 50.005 120.49 50.5605C118.639 51.1085 117.469 51.2883 116.726 51.3158C116.352 51.3296 116.07 51.3055 115.855 51.2627C115.746 51.2412 115.653 51.2144 115.572 51.1842C115.531 51.1691 115.494 51.1531 115.459 51.1364C115.442 51.128 115.425 51.1194 115.409 51.1107C115.401 51.1064 115.394 51.1021 115.386 51.0977C115.382 51.0955 115.378 51.0932 115.375 51.091C115.373 51.0899 115.371 51.0887 115.369 51.0876C115.368 51.0871 115.367 51.0863 115.367 51.086C115.365 51.0851 115.364 51.0843 115.878 50.2457L115.364 51.0843C114.901 50.8003 114.755 50.1948 115.039 49.7317C115.295 49.315 115.811 49.1556 116.249 49.3347C116.293 49.3424 116.417 49.3584 116.653 49.3496C117.173 49.3304 118.169 49.196 119.931 48.6743C121.667 48.1601 122.62 47.657 123.115 47.321C123.361 47.1539 123.492 47.03 123.55 46.9687C123.569 46.9485 123.58 46.9348 123.585 46.9286ZM116.385 49.4032C116.384 49.4024 116.383 49.4014 116.381 49.4005C116.378 49.3985 116.374 49.3965 116.371 49.3945C116.364 49.3906 116.357 49.3868 116.351 49.3833C116.35 49.383 116.35 49.3828 116.349 49.3825C116.361 49.3891 116.373 49.396 116.385 49.4032ZM123.565 46.9603C123.563 46.964 123.561 46.9681 123.558 46.9723C123.557 46.9744 123.556 46.9766 123.555 46.9788C123.554 46.9799 123.553 46.9812 123.553 46.9824C123.558 46.9721 123.564 46.9621 123.57 46.9522C123.569 46.9547 123.567 46.9574 123.565 46.9603Z" fill="#772D10"/>
<path d="M96.1183 34.9614C97.4363 34.9614 98.5047 33.4205 98.5047 31.5197C98.5047 29.6189 97.4363 28.0781 96.1183 28.0781C94.8004 28.0781 93.7319 29.6189 93.7319 31.5197C93.7319 33.4205 94.8004 34.9614 96.1183 34.9614Z" fill="#DCDCDC"/>
<path d="M122.641 31.47C123.628 31.47 124.427 30.3171 124.427 28.895C124.427 27.4728 123.628 26.3199 122.641 26.3199C121.655 26.3199 120.856 27.4728 120.856 28.895C120.856 30.3171 121.655 31.47 122.641 31.47Z" fill="#DCDCDC"/>
</svg>
