<svg width="158" height="158" viewBox="0 0 158 158" fill="none" xmlns="http://www.w3.org/2000/svg">
<path d="M61.3584 130.509C56.2626 130.599 53.4608 130.491 52.7691 125.317C52.025 119.749 54.1428 121.956 59.7101 121.21C59.8559 121.19 76.6783 124.189 89.076 120.489C106.636 115.247 108.947 113.107 112.092 107.357C115.238 101.606 111.889 99.1524 111.787 98.9947C111.264 98.2418 110.655 97.5526 109.971 96.9411C108.232 95.2965 105.905 93.5861 103.443 91.7756C99.2452 88.6909 94.9046 85.5013 91.731 81.3896C86.8301 75.0393 85.9053 67.729 89.1278 60.8052C92.1803 54.2464 97.1017 49.7997 103.757 47.5885C108.76 45.9264 113.932 45.7734 118.933 45.6257C125.157 45.4418 131.036 45.2681 135.972 42.2587C136.409 41.9923 137.57 39.8496 137.243 35.6553C136.731 29.0885 134.465 25.7824 130.064 23.9633C124.319 21.5896 121.641 30.5418 117.716 33.909C113.452 37.568 107.16 39.6923 97.5004 32.2028C87.841 24.7134 93.9961 15.4522 98.2606 11.7929C104.732 6.2396 111.281 2.60101 117.727 0.978323C124.173 -0.644364 130.63 -0.242679 136.397 2.14027C142.577 4.69491 147.875 9.42766 151.715 15.8267C155.014 21.3885 157.003 27.629 157.53 34.0742C158.409 45.3555 154.31 54.91 146.564 59.6323C137.025 65.4482 127.327 65.7348 119.533 65.9651C111.007 66.217 109.136 66.6999 107.988 68.6009C107.928 68.6985 107.901 68.8121 107.909 68.926C107.917 69.0398 107.961 69.1483 108.034 69.2361C109.504 70.9776 113.164 73.6678 115.491 75.378C119.929 78.6393 124.518 82.0115 127.861 86.4916C132.845 93.1697 133.684 100.883 130.224 108.21C125.494 118.226 113.042 125.984 92.1559 131.926C78.3094 135.866 63.0696 130.349 62.5381 130.42C62.1469 130.472 61.753 130.502 61.3584 130.509Z" fill="#F9BE3C"/>
<mask id="mask0_1859_24334" style="mask-type:luminance" maskUnits="userSpaceOnUse" x="52" y="0" width="106" height="134">
<path d="M61.3584 130.509C56.2626 130.599 53.4608 130.491 52.7691 125.317C52.025 119.749 54.1428 121.956 59.7101 121.21C59.8559 121.19 76.6783 124.189 89.076 120.489C106.636 115.247 108.947 113.107 112.092 107.357C115.238 101.606 111.889 99.1524 111.787 98.9947C111.264 98.2418 110.655 97.5526 109.971 96.9411C108.232 95.2965 105.905 93.5861 103.443 91.7756C99.2452 88.6909 94.9046 85.5013 91.731 81.3896C86.8301 75.0393 85.9053 67.729 89.1278 60.8052C92.1803 54.2464 97.1017 49.7997 103.757 47.5885C108.76 45.9264 113.932 45.7734 118.933 45.6257C125.157 45.4418 131.036 45.2681 135.972 42.2587C136.409 41.9923 137.57 39.8496 137.243 35.6553C136.731 29.0885 134.465 25.7824 130.064 23.9633C124.319 21.5896 121.641 30.5418 117.716 33.909C113.452 37.568 107.16 39.6923 97.5004 32.2028C87.841 24.7134 93.9961 15.4522 98.2606 11.7929C104.732 6.2396 111.281 2.60101 117.727 0.978323C124.173 -0.644364 130.63 -0.242679 136.397 2.14027C142.577 4.69491 147.875 9.42766 151.715 15.8267C155.014 21.3885 157.003 27.629 157.53 34.0742C158.409 45.3555 154.31 54.91 146.564 59.6323C137.025 65.4482 127.327 65.7348 119.533 65.9651C111.007 66.217 109.136 66.6999 107.988 68.6009C107.928 68.6985 107.901 68.8121 107.909 68.926C107.917 69.0398 107.961 69.1483 108.034 69.2361C109.504 70.9776 113.164 73.6678 115.491 75.378C119.929 78.6393 124.518 82.0115 127.861 86.4916C132.845 93.1697 133.684 100.883 130.224 108.21C125.494 118.226 113.042 125.984 92.1559 131.926C78.3094 135.866 63.0696 130.349 62.5381 130.42C62.1469 130.472 61.753 130.502 61.3584 130.509Z" fill="white"/>
</mask>
<g mask="url(#mask0_1859_24334)">
<path d="M107.826 67.8579C107.826 67.8579 99.6777 63.1849 122.49 58.962C145.302 54.7391 148.525 50.0911 151.187 41.9288C153.849 33.7665 154.867 20.2361 158.867 23.9457C162.868 27.6553 159.32 64.5425 159.32 64.5425C159.32 64.5425 124.624 72.113 124.291 71.7756C123.957 71.4382 107.826 67.8579 107.826 67.8579Z" fill="#F28B0E"/>
<path d="M75.8489 133.174C75.8489 133.174 107.595 125.609 117.715 114.609C127.834 103.61 127.11 101.238 131.391 91.2765C135.673 81.3151 145.35 99.603 145.414 100.073C145.479 100.542 125.646 133.535 123.968 133.861C122.29 134.187 75.8489 133.174 75.8489 133.174Z" fill="#F28B0E"/>
<path d="M108.917 38.195C109.191 37.3923 116.461 32.0287 120.623 23.2955C124.785 14.5623 132.16 21.621 133.353 24.0411C134.546 26.4611 131.723 35.202 131.723 35.202L108.917 38.195Z" fill="#F28B0E"/>
</g>
<path d="M80.8545 84.2529C81.406 86.8235 81.7466 89.4359 82.0715 91.9736C84.4388 106.271 73.6284 120.404 57.4093 123.882C40.9666 127.408 25.1093 118.67 21.6865 104.316C21.0448 102.04 20.4655 99.6851 19.9556 97.3132C17.2694 84.7877 22.208 78.1135 22.208 78.1135C22.208 78.1135 23.4706 74.0994 45.8 69.3106C68.1294 64.5218 70.9273 67.666 70.9273 67.666C70.9273 67.666 78.1681 71.7272 80.8545 84.2529Z" fill="#F9BE3C"/>
<path d="M79.4424 108.198C79.2903 109.078 79.0907 109.95 78.8444 110.808C76.5302 119.762 73.452 127.285 69.9375 129.474C62.9442 133.83 50.5076 133.541 44.4442 132.497C38.3808 131.453 26.5638 127.565 21.4301 121.122C18.8884 117.932 18.3153 109.973 19.0783 100.925C19.1243 99.8978 19.2349 98.8741 19.4094 97.8604C21.9511 83.1 37.4504 73.4453 54.0281 76.2997C70.6058 79.1541 81.9838 93.4371 79.4424 108.198Z" fill="#F9BE3C"/>
<path d="M25.4868 121.494C25.3505 121.69 25.0058 122.179 24.5356 122.854C22.7991 125.361 19.3558 130.417 18.4172 132.436C15.5182 140.158 25.3133 146.996 30.92 140.524C30.92 140.524 32.4559 138.436 36.2797 135.337C37.4691 134.753 38.5142 133.913 39.3398 132.876C40.1654 131.84 40.751 130.633 41.0545 129.343C41.3579 128.053 41.3717 126.712 41.0948 125.416C40.8179 124.12 40.2572 122.902 39.4531 121.849C38.649 120.795 37.6214 119.934 36.4442 119.325C35.2671 118.716 33.9697 118.376 32.6455 118.329C31.3212 118.282 30.0029 118.529 28.7855 119.053C27.5681 119.576 26.4818 120.363 25.6049 121.356L25.6034 121.358C25.565 121.402 25.5269 121.448 25.4868 121.494Z" fill="#F9BE3C"/>
<path d="M19.8423 140.746C20.1573 141.253 20.533 141.721 20.9611 142.137C21.0162 142.206 21.0767 142.275 21.1395 142.343C23.3645 144.701 31.082 152.456 36.8092 148.615C40.7576 145.966 38.1214 142.163 37.101 140.34C37.101 140.34 34.1584 135.617 32.9147 133.51C32.914 133.51 32.9133 133.51 32.9127 133.51C32.912 133.509 32.9115 133.509 32.9111 133.508C32.9107 133.508 32.9105 133.507 32.9104 133.506C32.9104 133.505 32.9105 133.505 32.9108 133.504C32.7991 133.277 32.6753 133.055 32.5385 132.835C31.4895 131.152 29.8147 129.954 27.8824 129.505C25.9502 129.056 23.9188 129.393 22.2352 130.442C20.5516 131.491 19.3536 133.166 18.9049 135.099C18.4561 137.031 18.7933 139.062 19.8423 140.746Z" fill="#F9BE3C"/>
<path d="M48.0054 127.967C47.9591 128.202 47.839 128.788 47.6782 129.595C47.0894 132.586 45.9569 138.599 45.9041 140.824C46.3371 149.061 58.05 151.409 60.5989 143.234C60.5989 143.234 61.1721 140.706 63.4357 136.336C64.2921 135.325 64.9138 134.137 65.2559 132.856C65.598 131.576 65.6521 130.236 65.4142 128.932C65.1763 127.628 64.6523 126.393 63.88 125.316C63.1078 124.239 62.1063 123.347 60.9479 122.704C59.7894 122.06 58.5026 121.681 57.1802 121.594C55.8578 121.508 54.5326 121.715 53.3 122.202C52.0674 122.689 50.958 123.443 50.0517 124.41C49.1454 125.376 48.4646 126.532 48.0585 127.794V127.796C48.0401 127.851 48.0241 127.909 48.0054 127.967Z" fill="#F9BE3C"/>
<path d="M46.4491 138.254C46.2177 138.805 46.0543 139.382 45.9624 139.973C45.9375 140.058 45.9168 140.147 45.8981 140.238C45.264 143.417 43.4108 154.2 49.8587 156.645C54.3054 158.329 55.879 153.979 56.7743 152.09C56.7743 152.09 58.9205 146.957 59.9172 144.722C59.9169 144.721 59.9167 144.72 59.9166 144.72C59.9166 144.719 59.9167 144.718 59.917 144.717C59.9173 144.717 59.9177 144.716 59.9183 144.716C59.9188 144.715 59.9195 144.715 59.9202 144.715C60.0403 144.492 60.15 144.263 60.2499 144.024C61.0149 142.194 61.0216 140.135 60.2685 138.3C59.5154 136.465 58.0642 135.004 56.234 134.239C54.4039 133.474 52.3449 133.467 50.5099 134.22C48.6748 134.973 47.2141 136.425 46.4491 138.255V138.254Z" fill="#F9BE3C"/>
<path d="M90.5969 99.0435C90.1768 101.989 87.3034 104.048 84.1802 103.643C83.2737 103.536 82.4063 103.213 81.6503 102.701C80.8944 102.19 80.272 101.505 79.8351 100.703C79.5929 100.499 76.8262 93.4144 69.6203 88.5092C66.5322 87.2 64.5868 84.0924 65.0602 80.7733C65.6369 76.7325 69.5787 73.907 73.8644 74.4625C74.9953 74.5983 76.0832 74.978 77.053 75.5753C78.0228 76.1727 78.8513 76.9735 79.4813 77.9224C81.6136 80.6936 88.0283 89.3849 90.2627 96.3765C90.6119 97.2193 90.7273 98.1406 90.5969 99.0435Z" fill="#F9BE3C"/>
<path d="M1.09389 80.5897C0.0585274 77.8008 1.60123 74.6199 4.53936 73.4859C5.38714 73.148 6.30353 73.018 7.21185 73.1068C8.12017 73.1956 8.99401 73.5007 9.76026 73.9965C10.07 74.0598 15.8817 78.9667 24.5548 79.8404C27.8939 79.5179 31.0862 81.3208 32.2534 84.464C33.6737 88.2902 31.5577 92.6542 27.5261 94.2103C26.4674 94.6304 25.3301 94.8157 24.1928 94.7533C23.0555 94.6909 21.9453 94.3824 20.9389 93.849C17.7431 92.4306 7.95941 87.8506 2.66001 82.773C1.95131 82.1991 1.41031 81.4449 1.09389 80.5897Z" fill="#F9BE3C"/>
<path d="M66.6223 110.204C64.0218 105.919 79.4209 97.6752 81.9384 95.2723C81.9384 95.2698 81.9384 95.2698 81.9419 95.2691C82.0259 95.1902 82.1037 95.105 82.1746 95.0142C82.2796 94.8724 82.3963 94.7397 82.5235 94.6175C82.5484 94.5946 82.5721 94.5739 82.5945 94.5534C83.1223 94.076 83.7534 93.7272 84.4385 93.5343C87.0429 92.7997 89.7825 94.4423 90.5607 97.2018C91.2135 99.5162 90.2798 101.881 88.4262 103.016L88.4219 103.024C88.4219 103.024 69.7411 115.346 66.6223 110.204Z" fill="#F9BE3C"/>
<path d="M16.3979 58.3911C20.7237 60.922 11.1032 75.5018 10.0324 78.812C10.0324 78.8149 10.0324 78.8149 10.0324 78.8164C9.996 78.9259 9.96801 79.0381 9.94872 79.1518C9.92358 79.3266 9.88382 79.4988 9.82986 79.6669C9.81964 79.6986 9.80793 79.7287 9.79772 79.7571C9.56055 80.4284 9.17121 81.0358 8.66019 81.5316C6.71904 83.4171 3.527 83.2758 1.53028 81.2193C-0.145481 79.4945 -0.449485 76.9702 0.640695 75.0894V75.0802C0.640695 75.0802 11.2073 55.3523 16.3979 58.3911Z" fill="#F9BE3C"/>
<path d="M28.6052 39.7768C28.7158 36.6338 24.7331 33.8609 21.5219 33.7318C17.6682 33.5553 13.8139 34.0684 10.1406 35.2471C1.2647 38.1798 0.8062 43.9835 2.01923 44.8479C3.23226 45.7123 10.7173 48.0347 14.4266 48.4925C18.136 48.9502 20.5737 48.033 20.5737 48.033C22.3494 47.8998 24.038 47.2109 25.4 46.064C26.7621 44.9171 27.7285 43.3704 28.1621 41.6434L28.6052 39.7768Z" fill="#F28B0E"/>
<path d="M21.2645 35.9763C18.7318 35.5412 3.20213 36.989 1.57894 43.0319C-0.491283 50.7355 18.9005 53.4825 21.3931 53.5545C23.8857 53.6265 29.7353 51.9629 30.0106 44.2801C30.286 36.5972 23.7972 36.4111 21.2645 35.9763Z" fill="#F9BE3C"/>
<path d="M54.9917 37.2294C53.9631 34.2571 56.9558 30.4371 59.9876 29.3708C63.6198 28.0703 67.4551 27.4289 71.3128 27.477C80.6572 27.6744 82.8002 33.0877 81.8944 34.27C80.9886 35.4524 74.5153 39.8707 71.1047 41.3967C67.6941 42.9227 65.0934 42.7625 65.0934 42.7625C63.3569 43.1565 61.5405 42.9938 59.9017 42.2975C58.2629 41.6011 56.885 40.4065 55.9633 38.8829L54.9917 37.2294Z" fill="#F28B0E"/>
<path d="M60.8921 31.4406C63.1845 30.2811 78.4555 27.1048 81.7827 32.4044C86.0238 39.1603 68.2933 47.4801 65.9318 48.2814C63.5703 49.0828 57.4902 49.2099 54.9709 41.9464C52.4517 34.683 58.5988 32.6 60.8921 31.4406Z" fill="#F9BE3C"/>
<path d="M44.1374 86.7931C60.0641 86.7931 72.9752 73.4902 72.9752 57.0804C72.9752 40.6705 60.0641 27.3676 44.1374 27.3676C28.2107 27.3676 15.2996 40.6705 15.2996 57.0804C15.2996 73.4902 28.2107 86.7931 44.1374 86.7931Z" fill="#F9BE3C"/>
<path d="M13.1868 54.4084C13.1868 54.4084 16.2884 52.3566 21.6802 51.3061C27.0721 50.2555 31.224 49.6365 32.1778 50.9721C33.1317 52.3078 35.5667 64.4281 24.7818 66.1457C13.9969 67.8633 13.1868 56.1263 13.1868 54.4084Z" fill="black"/>
<mask id="mask1_1859_24334" style="mask-type:luminance" maskUnits="userSpaceOnUse" x="13" y="50" width="21" height="17">
<path d="M13.1868 54.4084C13.1868 54.4084 16.2884 52.3566 21.6802 51.3061C27.0721 50.2555 31.224 49.6365 32.1778 50.9721C33.1317 52.3078 35.5667 64.4281 24.7818 66.1457C13.9969 67.8633 13.1868 56.1263 13.1868 54.4084Z" fill="white"/>
</mask>
<g mask="url(#mask1_1859_24334)">
<path d="M31.3493 50.1999L27.3679 46.2185L11.105 62.4814L15.0864 66.4628L31.3493 50.1999Z" fill="#DCDCDC"/>
</g>
<path d="M35.4911 54.3433C40.5109 53.1208 46.765 61.0912 46.765 61.0912C46.765 61.0912 50.9665 68.8835 39.8112 71.5996L39.7036 71.626C28.5484 74.3421 28.6974 65.4908 28.6974 65.4908C28.6974 65.4908 30.5867 55.5374 35.6065 54.3152" fill="#D66709"/>
<path d="M37.284 62.2813C38.7048 61.8571 39.6142 60.7011 39.3151 59.6992C39.016 58.6973 37.6217 58.229 36.2008 58.6532C34.78 59.0774 33.8706 60.2334 34.1697 61.2353C34.4688 62.2371 35.8631 62.7054 37.284 62.2813Z" fill="black"/>
<path d="M32.1599 66.3157C32.1591 66.3144 32.159 66.3143 32.1597 66.3152C32.1613 66.3175 32.1668 66.3254 32.176 66.3376C32.1946 66.3622 32.2278 66.404 32.2755 66.4561C32.3722 66.5616 32.5207 66.7007 32.7194 66.8255C33.0943 67.061 33.6874 67.2753 34.5732 67.0389C35.4361 66.8086 35.9342 66.2658 36.233 65.747C36.3843 65.4844 36.4794 65.2348 36.5358 65.0527C36.5637 64.9627 36.5812 64.8917 36.5912 64.8474C36.5962 64.8252 36.5993 64.81 36.6007 64.8026L36.6012 64.7997C36.6011 64.8003 36.6011 64.8012 36.601 64.8021C36.6009 64.8025 36.6008 64.8029 36.6007 64.8033L36.6005 64.8043C36.6646 64.4036 36.9653 64.0818 37.3607 63.9905C37.7564 63.8993 38.1679 64.0573 38.401 64.3899C38.6876 64.7989 39.0951 65.1081 39.5661 65.2742C40.0372 65.4403 40.5485 65.4551 41.0284 65.3163L41.0675 65.3058C41.571 65.1821 42.0273 64.9141 42.3806 64.5347C42.734 64.1552 42.9688 63.681 43.0564 63.17C43.1494 62.6274 43.6646 62.263 44.2072 62.356C44.7497 62.449 45.1142 62.9642 45.0212 63.5068C44.868 64.4003 44.4573 65.2298 43.8395 65.8932C43.225 66.553 42.4323 67.0198 41.5576 67.2377C40.6856 67.4845 39.7584 67.4558 38.9032 67.1543C38.5778 67.0395 38.2689 66.8875 37.9822 66.7024C37.9748 66.7154 37.9681 66.7289 37.9605 66.742C37.475 67.585 36.5956 68.5624 35.0874 68.965C33.6019 69.3615 32.4432 69.006 31.6591 68.5136C31.2784 68.2744 30.9957 68.01 30.806 67.803C30.7106 67.6989 30.6367 67.6073 30.584 67.5375C30.5577 67.5026 30.5364 67.4728 30.5203 67.4494C30.5122 67.4378 30.5054 67.4276 30.4999 67.4193C30.4971 67.4151 30.4945 67.4112 30.4923 67.4078C30.4912 67.4062 30.4903 67.4046 30.4894 67.4032C30.4889 67.4025 30.4883 67.4019 30.4879 67.4012C30.4877 67.401 30.4876 67.4005 30.4874 67.4003C30.4871 67.3998 30.4868 67.3991 31.3267 66.8625L30.4867 67.3993C30.1903 66.9354 30.3263 66.3191 30.7902 66.0227C31.2506 65.7285 31.8611 65.8601 32.1599 66.3157ZM32.1614 66.3179C32.1609 66.3172 32.1605 66.3166 32.1602 66.3162L32.1599 66.3157C32.1604 66.3164 32.1609 66.3171 32.1614 66.3179Z" fill="black"/>
<path d="M42.8081 69.1593C43.1114 68.7363 43.6951 68.6156 44.1435 68.8943C44.611 69.185 44.7544 69.7998 44.4638 70.2673L43.6174 69.7409C44.4639 70.2672 44.4634 70.2681 44.4628 70.269C44.4626 70.2693 44.462 70.2701 44.4616 70.2707C44.4608 70.2719 44.4602 70.2731 44.4594 70.2743C44.4578 70.2768 44.4562 70.2795 44.4545 70.2821C44.4512 70.2873 44.4476 70.2926 44.4438 70.2982C44.4363 70.3094 44.4278 70.3215 44.4185 70.3344C44.3999 70.3603 44.3777 70.3897 44.3513 70.4218C44.2985 70.486 44.2294 70.5616 44.1399 70.6462C43.9608 70.8154 43.7014 71.0195 43.3295 71.2409C42.5882 71.6821 41.3901 72.1979 39.4594 72.6464C37.5547 73.0889 36.3607 73.1999 35.607 73.1828C35.2277 73.1742 34.9442 73.1329 34.7293 73.0767C34.6211 73.0483 34.5281 73.0155 34.448 72.9801C34.4079 72.9623 34.3708 72.9438 34.3368 72.9248C34.3198 72.9154 34.3036 72.9058 34.2881 72.8961C34.2803 72.8913 34.2726 72.8864 34.2652 72.8815C34.2615 72.8791 34.2579 72.8764 34.2543 72.874C34.2525 72.8727 34.2507 72.8715 34.2489 72.8703C34.2481 72.8697 34.2468 72.869 34.2462 72.8686C34.2449 72.8677 34.2435 72.8666 34.814 72.0493L34.2436 72.8667C33.7922 72.5516 33.6815 71.9303 33.9966 71.4789C34.2802 71.0725 34.8121 70.9424 35.2447 71.1504C35.2893 71.1609 35.4137 71.1844 35.6523 71.1898C36.1791 71.2017 37.1951 71.126 39.0082 70.7048C40.7952 70.2897 41.7889 69.8381 42.3099 69.528C42.5692 69.3737 42.7087 69.2558 42.7706 69.1973C42.7906 69.1784 42.8025 69.1655 42.8081 69.1593ZM35.3527 71.2107C35.3623 71.2169 35.3718 71.2232 35.3812 71.2297C35.3806 71.2293 35.3799 71.2286 35.3793 71.2282C35.3775 71.227 35.3756 71.226 35.3739 71.2248C35.3705 71.2225 35.367 71.2202 35.3637 71.218C35.3599 71.2155 35.3564 71.213 35.3527 71.2107ZM42.7869 69.1897C42.7845 69.1933 42.782 69.1973 42.7793 69.2014C42.7784 69.2029 42.7774 69.2045 42.7764 69.206C42.782 69.1972 42.7879 69.1886 42.7937 69.18C42.7916 69.183 42.7893 69.1862 42.7869 69.1897Z" fill="#772D10"/>
<path d="M35.9711 52.4281C38.2588 51.9812 40.6 53.1432 42.2092 54.2098C43.0447 54.7637 43.7522 55.3388 44.2499 55.7741C44.4995 55.9923 44.6984 56.1771 44.8364 56.3089C44.9053 56.3748 44.9592 56.4277 44.9967 56.4649C45.0155 56.4835 45.0303 56.4984 45.0408 56.509C45.0459 56.5142 45.0501 56.5185 45.0532 56.5216C45.0547 56.5231 45.0559 56.5245 45.0568 56.5255C45.0573 56.526 45.0579 56.5263 45.0583 56.5267C45.0585 56.5269 45.0587 56.5271 45.0588 56.5272C45.0589 56.5275 45.0532 56.5335 44.3458 57.2237L45.059 56.5277C45.4434 56.9217 45.4358 57.5527 45.0417 57.9371C44.6478 58.3215 44.017 58.3135 43.6325 57.9196V57.9199L43.6328 57.9201C43.6326 57.92 43.6323 57.9196 43.6318 57.9191L43.5931 57.8804C43.5638 57.8514 43.5187 57.8072 43.459 57.7502C43.3397 57.6362 43.1625 57.4712 42.9376 57.2745C42.4861 56.8797 41.8499 56.3633 41.1078 55.8714C39.5618 54.8466 37.8113 54.0999 36.3534 54.3846C34.1416 54.8166 33.401 55.5972 33.3128 55.6855C32.9238 56.0749 32.2926 56.0752 31.9031 55.6862C31.5137 55.2972 31.5134 54.666 31.9024 54.2765C32.2434 53.9351 33.3329 52.9434 35.9711 52.4281Z" fill="#020202"/>
<path d="M43.5345 122.284C54.1941 122.284 62.8355 113.643 62.8355 102.983C62.8355 92.3237 54.1941 83.6823 43.5345 83.6823C32.8748 83.6823 24.2334 92.3237 24.2334 102.983C24.2334 113.643 32.8748 122.284 43.5345 122.284Z" fill="#FBDC8C"/>
<path d="M38.4521 84.4061L41.1682 84.5557C42.6314 84.6361 43.8198 86.3171 44.0545 88.6388L45.6662 107.449C46.0016 110.764 40.6678 119.261 38.5794 119.146L37.2269 119.071C35.1337 118.956 30.8582 109.919 31.5617 106.659L35.1389 88.1334C35.6293 85.8591 36.9921 84.3259 38.4521 84.4061Z" fill="#45BC9E"/>
<path d="M43.996 77.0258C43.996 77.0258 66.1517 68.7472 71.4008 65.8601C73.3095 64.8106 74.5183 69.8207 73.8822 70.2024C73.246 70.5842 48.0836 81.9724 43.7256 82.4177C39.3677 82.863 43.996 77.0258 43.996 77.0258Z" fill="#45BC9E"/>
<path d="M22.0145 75.8806C22.0145 75.8806 26.4044 78.7913 34.707 78.1232C43.0096 77.4552 38.6192 82.2268 35.1842 82.7518C31.7492 83.2769 22.0145 80.7955 20.9171 79.6024C19.8197 78.4093 22.0145 75.8806 22.0145 75.8806Z" fill="#45BC9E"/>
<path d="M40.3558 86.8148L37.8767 86.6902C37.2264 86.6566 36.606 86.4072 36.1134 85.9815C35.6208 85.5557 35.2842 84.9779 35.1568 84.3394L34.0811 78.9819C33.9924 78.5443 34.0049 78.0921 34.1175 77.66C34.2301 77.2279 34.4399 76.8272 34.7308 76.4885C35.0218 76.1497 35.3863 75.8819 35.7964 75.7054C36.2066 75.5289 36.6517 75.4483 37.0977 75.4699L42.2807 75.7326C42.7274 75.7561 43.1627 75.8815 43.5535 76.0992C43.9442 76.3169 44.28 76.621 44.5351 76.9884C44.7902 77.3557 44.958 77.7766 45.0255 78.2187C45.093 78.6609 45.0585 79.1126 44.9246 79.5393L43.2967 84.7595C43.1039 85.3798 42.7104 85.9184 42.178 86.2905C41.6456 86.6626 41.0045 86.847 40.3558 86.8148Z" fill="#A6E9D4"/>
<path d="M70.1023 44.2964C70.6448 44.2031 71.1602 44.5674 71.2535 45.1099C71.3468 45.6524 70.9825 46.1678 70.44 46.2611L60.4515 47.9787C59.909 48.0719 59.3936 47.7079 59.3002 47.1654C59.2069 46.6229 59.5712 46.1074 60.1137 46.0141L70.1023 44.2964Z" fill="black"/>
<path d="M49.8808 45.4856C56.4308 44.4181 61.1895 45.4377 61.2371 46.7738C61.2847 48.11 65.1022 57.1282 53.0775 60.3252C43.1872 62.9549 41.1416 53.3172 40.7267 49.8134C40.6815 49.4394 40.7519 49.0606 40.9286 48.7279C41.1052 48.3952 41.3796 48.1247 41.7147 47.9527C43.0668 47.2617 45.7159 46.1641 49.8808 45.4856Z" fill="black"/>
<mask id="mask2_1859_24334" style="mask-type:luminance" maskUnits="userSpaceOnUse" x="40" y="45" width="22" height="16">
<path d="M49.8808 45.4856C56.4308 44.4181 61.1895 45.4377 61.2371 46.7738C61.2847 48.11 65.1022 57.1282 53.0775 60.3252C43.1872 62.9549 41.1416 53.3172 40.7267 49.8134C40.6815 49.4394 40.7519 49.0606 40.9286 48.7279C41.1052 48.3952 41.3796 48.1247 41.7147 47.9527C43.0668 47.2617 45.7159 46.1641 49.8808 45.4856Z" fill="white"/>
</mask>
<g mask="url(#mask2_1859_24334)">
<path d="M58.4919 44.2436L54.5105 40.2622L38.2476 56.5251L42.229 60.5065L58.4919 44.2436Z" fill="#DCDCDC"/>
<path d="M68.2575 54.0095L64.2761 50.028L48.0132 66.2909L51.9946 70.2723L68.2575 54.0095Z" fill="#DCDCDC"/>
</g>
</svg>
