<svg width="264" height="353" viewBox="0 0 264 353" fill="none" xmlns="http://www.w3.org/2000/svg">
<path d="M0 190.729L46.9346 203.437L46.3542 179.403L0 190.729Z" fill="#B8E9FF"/>
<path d="M0 190.729L0.276119 269.239L46.1884 289.792L46.9346 203.437L0 190.729Z" fill="#B8E9FF"/>
<path d="M26.0066 191.4C32.2788 190.987 37.1728 187.755 36.9376 184.181C36.7023 180.606 31.427 178.043 25.1547 178.456C18.8825 178.869 13.9885 182.101 14.2238 185.675C14.459 189.25 19.7343 191.813 26.0066 191.4Z" fill="#772D10"/>
<path d="M48.4936 196.87C54.7659 196.457 59.6598 193.225 59.4246 189.65C59.1894 186.076 53.9141 183.513 47.6418 183.925C41.3696 184.338 36.4756 187.57 36.7108 191.145C36.946 194.719 42.2214 197.283 48.4936 196.87Z" fill="#772D10"/>
<path d="M12.9837 175.95C18.2319 175.95 22.4864 167.391 22.4864 156.834C22.4864 146.276 18.2319 137.717 12.9837 137.717C7.73547 137.717 3.48096 146.276 3.48096 156.834C3.48096 167.391 7.73547 175.95 12.9837 175.95Z" fill="#772D10"/>
<path d="M9.06095 148.021C8.67144 128.467 13.8125 103.048 40.1113 102.606C66.4101 102.164 77.2389 119.623 75.6921 152.55C74.1454 185.477 57.1281 189.348 34.9179 186.696C12.7076 184.044 9.28211 159.071 9.06095 148.021Z" fill="#FBDC8C"/>
<path d="M9.29283 138.891C9.29376 138.867 9.30286 138.845 9.31856 138.827C9.33427 138.81 9.35559 138.798 9.37883 138.795C9.40208 138.792 9.4258 138.796 9.4459 138.809C9.46599 138.821 9.48119 138.84 9.48888 138.862C10.541 141.915 17.6166 154.462 35.0558 154.237C54.3655 153.988 74.6992 142.855 74.6992 142.855L75.6107 148.822C75.6107 148.822 51.5477 160.866 33.9804 159.623C16.7801 158.406 9.18376 146.52 8.90591 145.886C8.89988 145.873 8.89721 145.858 8.89812 145.843L9.29283 138.891Z" fill="#45BC9E"/>
<path d="M72.0733 178.271C78.2522 178.271 83.2613 169.712 83.2613 159.154C83.2613 148.597 78.2522 140.038 72.0733 140.038C65.8943 140.038 60.8853 148.597 60.8853 159.154C60.8853 169.712 65.8943 178.271 72.0733 178.271Z" fill="#772D10"/>
<path d="M46.6858 157.359L46.1885 289.792L117.295 321.616L119.615 171.116L46.6858 157.359Z" fill="#B8E9FF"/>
<path d="M117.903 269.791L188.511 299.516L183.097 352.666L117.295 321.616L117.903 269.791Z" fill="#B8E9FF"/>
<path d="M188.511 299.516L245.197 274.101L238.457 321.45L183.097 352.666L188.511 299.516Z" fill="#70D6FF"/>
<path d="M117.903 269.791L181.329 249.128L245.197 274.101L188.511 299.516L117.903 269.791Z" fill="#B8E9FF"/>
<path d="M46.6858 157.359L114.975 144.264L180.611 156.198L119.615 171.116L46.6858 157.359Z" fill="#B8E9FF"/>
<path d="M181.329 249.128L180.611 156.198L119.615 171.116L117.903 269.791L181.329 249.128Z" fill="#70D6FF"/>
<path d="M30.8985 159.347C30.8985 159.347 27.0034 171.447 27.5418 173.063C28.0802 174.679 30.9396 184.417 32.1415 184.459C33.3433 184.5 38.8129 174.182 38.7714 172.939C38.7298 171.696 36.1192 158.311 36.1192 158.311L30.8985 159.347Z" fill="#45BC9E"/>
<path d="M35.4702 127.966C45.8199 128.355 58.1227 122.607 60.6641 126.308C63.4923 130.428 64.9738 146.585 34.9179 145.369C4.86209 144.153 13.0942 123.215 18.1773 123.435C23.2603 123.656 28.1223 127.689 35.4702 127.966Z" fill="#772D10"/>
<path d="M33.8818 161.129C36.3762 161.129 38.3984 159.311 38.3984 157.068C38.3984 154.826 36.3762 153.007 33.8818 153.007C31.3874 153.007 29.3652 154.826 29.3652 157.068C29.3652 159.311 31.3874 161.129 33.8818 161.129Z" fill="#A6E9D4"/>
<path d="M35.0628 146.833C36.539 146.833 37.7357 144.83 37.7357 142.358C37.7357 139.887 36.539 137.883 35.0628 137.883C33.5866 137.883 32.3899 139.887 32.3899 142.358C32.3899 144.83 33.5866 146.833 35.0628 146.833Z" fill="#FDEFC8"/>
<path d="M41.8965 133.2L49.2227 131.718C49.9794 131.544 50.774 131.671 51.439 132.072C52.1041 132.472 52.5877 133.115 52.788 133.865C52.8584 134.228 52.8559 134.601 52.7807 134.962C52.7055 135.324 52.5591 135.666 52.3499 135.971C52.1408 136.275 51.8732 136.535 51.5627 136.734C51.2522 136.934 50.905 137.07 50.5414 137.135L43.2355 138.721C42.4706 138.908 41.6627 138.787 40.9865 138.383C40.3103 137.98 39.8201 137.326 39.6218 136.564L39.5993 136.46C39.5315 136.095 39.5374 135.72 39.6168 135.357C39.6961 134.994 39.8473 134.65 40.0613 134.347C40.2754 134.043 40.548 133.785 40.8631 133.588C41.1783 133.391 41.5297 133.26 41.8965 133.2Z" fill="#FDEFC8"/>
<mask id="mask0_1930_14102" style="mask-type:luminance" maskUnits="userSpaceOnUse" x="39" y="131" width="14" height="8">
<path d="M41.8965 133.2L49.2227 131.718C49.9794 131.544 50.774 131.671 51.439 132.072C52.1041 132.472 52.5877 133.115 52.788 133.865C52.8584 134.228 52.8559 134.601 52.7807 134.962C52.7055 135.324 52.5591 135.666 52.3499 135.971C52.1408 136.275 51.8732 136.535 51.5627 136.734C51.2522 136.934 50.905 137.07 50.5414 137.135L43.2355 138.721C42.4706 138.908 41.6627 138.787 40.9865 138.383C40.3103 137.98 39.8201 137.326 39.6218 136.564L39.5993 136.46C39.5315 136.095 39.5374 135.72 39.6168 135.357C39.6961 134.994 39.8473 134.65 40.0613 134.347C40.2754 134.043 40.548 133.785 40.8631 133.588C41.1783 133.391 41.5297 133.26 41.8965 133.2Z" fill="white"/>
</mask>
<g mask="url(#mask0_1930_14102)">
<path d="M46.5835 139.492C48.3994 139.492 49.8714 138.02 49.8714 136.204C49.8714 134.388 48.3994 132.916 46.5835 132.916C44.7677 132.916 43.2957 134.388 43.2957 136.204C43.2957 138.02 44.7677 139.492 46.5835 139.492Z" fill="#441504"/>
</g>
<path d="M23.3951 130.248L30.0034 132.695C30.6961 132.931 31.2702 133.427 31.6046 134.078C31.939 134.729 32.0076 135.484 31.796 136.185C31.6726 136.511 31.4857 136.808 31.246 137.061C31.0064 137.313 30.7188 137.515 30.4002 137.656C30.0816 137.796 29.7382 137.871 29.3902 137.877C29.0421 137.883 28.6964 137.82 28.3731 137.691L21.7311 135.339C21.025 135.109 20.4375 134.611 20.0957 133.952C19.7539 133.293 19.6851 132.526 19.9043 131.817L19.9376 131.723C20.0644 131.396 20.2552 131.098 20.4988 130.847C20.7424 130.595 21.0338 130.395 21.356 130.257C21.6781 130.12 22.0245 130.049 22.3746 130.047C22.7248 130.045 23.0718 130.114 23.3951 130.248Z" fill="#FDEFC8"/>
<mask id="mask1_1930_14102" style="mask-type:luminance" maskUnits="userSpaceOnUse" x="19" y="130" width="13" height="8">
<path d="M23.3951 130.248L30.0034 132.695C30.6961 132.931 31.2702 133.427 31.6046 134.078C31.939 134.729 32.0076 135.484 31.796 136.185C31.6726 136.511 31.4857 136.808 31.246 137.061C31.0064 137.313 30.7188 137.515 30.4002 137.656C30.0816 137.796 29.7382 137.871 29.3902 137.877C29.0421 137.883 28.6964 137.82 28.3731 137.691L21.7311 135.339C21.025 135.109 20.4375 134.611 20.0957 133.952C19.7539 133.293 19.6851 132.526 19.9043 131.817L19.9376 131.723C20.0644 131.396 20.2552 131.098 20.4988 130.847C20.7424 130.595 21.0338 130.395 21.356 130.257C21.6781 130.12 22.0245 130.049 22.3746 130.047C22.7248 130.045 23.0718 130.114 23.3951 130.248Z" fill="white"/>
</mask>
<g mask="url(#mask1_1930_14102)">
<path d="M26.9467 138.796C28.6516 138.796 30.0338 137.413 30.0338 135.709C30.0338 134.004 28.6516 132.621 26.9467 132.621C25.2418 132.621 23.8596 134.004 23.8596 135.709C23.8596 137.413 25.2418 138.796 26.9467 138.796Z" fill="#441504"/>
</g>
<path d="M78.1382 202.102L66.8225 199.405V187.773L88.7982 192.404L88.3974 239.183L77.9019 235.647L78.1382 202.102Z" fill="#F2FBF8"/>
<path d="M31.9991 251.969L7.76691 244.46V237.681L19.3245 228.993C20.3346 228.194 21.2962 227.336 22.2043 226.423C22.9274 225.696 23.5795 224.902 24.1518 224.051C24.6329 223.335 25.0126 222.555 25.2801 221.735C25.5293 220.939 25.6534 220.109 25.648 219.276C25.648 217.169 25.1493 215.561 24.1518 214.45C23.1544 213.338 21.7141 212.782 19.8309 212.781C17.8729 212.781 16.3569 213.421 15.2827 214.702C14.2085 215.983 13.673 217.791 13.6762 220.126L7.31421 219.314C7.31421 216.188 7.36658 213.622 8.63032 211.307C9.89406 208.992 10.8973 208.294 13.1772 207.016C15.4642 205.667 18.0794 204.975 20.7345 205.017C23.9372 205.017 25.2399 205.728 27.499 206.835C29.7582 207.942 30.8315 209.509 32.0567 211.6C33.2819 213.691 33.5901 216.222 33.5901 219.196C33.5969 220.584 33.3868 221.964 32.9673 223.287C32.5438 224.608 31.9563 225.872 31.2184 227.047C30.4288 228.297 29.5207 229.468 28.5065 230.544C27.3934 231.73 26.2051 232.844 24.949 233.877L17.1203 241.136L13.7329 238.649L31.9991 243.497V251.969Z" fill="#F2FBF8"/>
<path d="M144.754 311.063L141.715 308.052V302.453C142.431 301.734 142.096 304.357 143.443 304.106C144.658 303.869 145.892 303.743 147.129 303.73C148.941 303.727 150.741 304.019 152.459 304.593C154.182 305.167 154.398 305.786 155.78 306.917C157.171 308.058 158.292 309.493 159.063 311.118C159.898 312.911 160.313 314.871 160.275 316.848C160.343 319.41 159.64 321.932 158.258 324.09C156.918 326.111 155.046 327.723 152.848 328.747C150.587 329.824 149.38 330.124 146.688 330.124C144.106 330.124 138.281 327.075 136.578 325.372C134.644 323.439 133.622 320.345 132.985 317.803C132.406 315.174 132.145 312.485 132.209 309.794L138.51 313.383C138.51 315.359 140.087 319.49 141.162 320.51C142.238 321.531 145.21 322.896 146.969 322.896C147.73 322.925 148.488 322.796 149.197 322.518C149.906 322.24 150.549 321.818 151.087 321.28C151.624 320.714 152.041 320.045 152.314 319.315C152.587 318.584 152.71 317.805 152.675 317.026C152.7 315.513 152.162 314.045 151.166 312.906C150.163 311.742 147.086 311.063 144.754 311.063ZM160.058 299.167L146.161 309.38L141.715 302.452L154.075 293.556L151.922 297.701L134.697 290.564V282.921L160.058 292.223L160.058 299.167Z" fill="#F2FBF8"/>
<path d="M78.0381 93.2355C77.891 94.2107 77.797 95.1931 77.7564 96.1785C77.0665 106.356 77.6737 115.301 80.592 118.813C86.3987 125.803 99.5178 129.824 106.228 130.839C112.939 131.854 126.66 131.891 134.273 126.931C138.043 124.474 141.408 116.343 143.755 106.606C144.064 105.514 144.304 104.404 144.474 103.283C146.944 86.9471 134.078 71.4533 115.727 68.6783C97.3773 65.9032 80.5085 76.9008 78.0381 93.2355Z" fill="#F9BE3C"/>
<path d="M113.019 23.9808C115.636 21.3153 114.622 15.5925 112.11 12.8266C109.142 9.51082 105.585 6.77343 101.621 4.75292C92.0343 -0.00774479 86.9924 4.70618 87.2858 6.46677C87.5792 8.22735 91.8084 16.446 94.4601 19.9126C97.1118 23.3793 99.8362 24.5867 99.8362 24.5867C101.384 25.9329 103.335 26.7282 105.383 26.8482C107.431 26.9682 109.461 26.4063 111.156 25.2502L113.019 23.9808Z" fill="#F28B0E"/>
<path d="M110.097 14.585C108.384 12.1112 94.5714 0.552255 88.3886 4.5114C80.5066 9.55901 94.0914 27.9884 96.0636 30.1108C98.0359 32.2332 104.138 35.6072 110.541 29.0942C116.944 22.5812 111.81 17.0566 110.097 14.585Z" fill="#F9BE3C"/>
<path d="M139.078 19.7053C137.492 16.6108 140.177 11.9662 143.331 10.3298C147.106 8.34411 151.205 7.04876 155.436 6.5048C165.695 5.27482 168.878 10.869 168.07 12.3042C167.261 13.7393 160.859 19.5763 157.362 21.7749C153.865 23.9734 150.993 24.1985 150.993 24.1985C149.153 24.8985 147.139 25.0014 145.238 24.4926C143.336 23.9839 141.643 22.8893 140.398 21.3641L139.078 19.7053Z" fill="#F28B0E"/>
<path d="M144.642 12.4557C146.973 10.8318 163.197 4.99223 167.659 10.2792C173.347 17.0185 155.225 28.8696 152.764 30.1117C150.302 31.3538 143.667 32.4336 139.785 24.8723C135.903 17.3111 142.311 14.0799 144.642 12.4557Z" fill="#F9BE3C"/>
<path d="M77.7144 121.83C77.6165 122.076 77.3681 122.689 77.0323 123.534C75.7928 126.669 73.3575 132.978 72.8541 135.387C71.6748 144.43 83.9396 149.329 88.348 140.952C88.348 140.952 89.4762 138.317 92.8139 134.02C93.9461 133.092 94.8586 131.924 95.4857 130.601C96.1129 129.278 96.4391 127.833 96.4409 126.369C96.4428 124.904 96.1202 123.458 95.4964 122.133C94.8726 120.809 93.963 119.639 92.8332 118.708C91.7033 117.777 90.3811 117.107 88.9617 116.748C87.5424 116.389 86.061 116.349 84.6242 116.63C83.1874 116.912 81.8308 117.508 80.652 118.377C79.4732 119.245 78.5014 120.364 77.8065 121.652V121.655C77.7749 121.711 77.7459 121.771 77.7144 121.83Z" fill="#F9BE3C"/>
<path d="M71.9969 140.365C72.0674 141.021 72.2173 141.667 72.4435 142.287C72.4652 142.383 72.4924 142.481 72.5227 142.578C73.6077 145.995 77.5747 157.423 85.1216 156.343C90.3255 155.598 89.5239 150.544 89.382 148.24C89.382 148.24 88.7168 142.125 88.4874 139.429L88.4859 139.427L88.4854 139.425L88.4859 139.422L88.4874 139.421C88.4874 139.141 88.4684 138.861 88.4376 138.576C88.3202 137.496 87.9912 136.451 87.4696 135.498C86.948 134.546 86.2439 133.706 85.3975 133.025C84.5512 132.345 83.5791 131.838 82.5369 131.534C81.4946 131.229 80.4026 131.133 79.3231 131.25C78.2437 131.368 77.1979 131.697 76.2456 132.218C75.2932 132.74 74.453 133.444 73.7728 134.291C73.0925 135.137 72.5857 136.109 72.2811 137.151C71.9766 138.193 71.8803 139.285 71.9978 140.365H71.9969Z" fill="#F9BE3C"/>
<path d="M131.983 126.123C132.063 126.375 132.269 127.004 132.548 127.869C133.572 131.081 135.575 137.541 135.914 139.978C136.479 149.08 123.911 153.138 120.079 144.479C120.079 144.479 119.131 141.775 116.092 137.262C115.025 136.259 114.193 135.032 113.657 133.669C113.12 132.307 112.893 130.842 112.99 129.381C113.087 127.92 113.507 126.498 114.219 125.219C114.931 123.939 115.918 122.833 117.109 121.981C118.3 121.128 119.665 120.55 121.105 120.288C122.546 120.026 124.027 120.087 125.442 120.465C126.857 120.844 128.17 121.532 129.287 122.478C130.404 123.425 131.297 124.608 131.903 125.941V125.944C131.93 126 131.957 126.062 131.983 126.123Z" fill="#F9BE3C"/>
<path d="M135.528 138.365C135.857 138.937 136.115 139.548 136.296 140.183C136.335 140.273 136.37 140.368 136.403 140.464C137.532 143.866 141.034 155.444 134.295 159.005C129.646 161.459 127.327 156.9 126.087 154.952C126.087 154.952 123.032 149.612 121.634 147.296L121.634 147.293L121.633 147.291L121.632 147.289L121.629 147.288C121.468 147.061 121.316 146.824 121.174 146.575C120.085 144.672 119.797 142.414 120.373 140.298C120.949 138.182 122.342 136.382 124.245 135.293C126.149 134.204 128.407 133.916 130.523 134.492C132.639 135.068 134.439 136.461 135.528 138.365V138.365Z" fill="#F9BE3C"/>
<path d="M83.1566 69.2574C82.3642 72.0536 81.8007 74.9109 81.2602 77.6876C77.6226 93.291 88.5353 109.658 106.179 114.659C124.066 119.729 142.187 111.227 146.991 95.6367C147.862 93.1698 148.672 90.6163 149.403 88.0347C153.265 74.4088 148.296 66.6914 148.296 66.6914C148.296 66.6914 147.191 62.1722 122.9 55.2874C98.6085 48.4026 95.2968 51.6693 95.2968 51.6693C95.2968 51.6693 87.0188 55.6315 83.1566 69.2574Z" fill="#F9BE3C"/>
<path d="M122.464 130.924C116.893 130.084 113.858 129.45 114.058 123.682C114.274 117.475 116.175 120.271 122.381 120.484C122.544 120.49 140.329 126.859 154.525 125.11C174.634 122.634 177.547 120.727 182.036 115.037C186.525 109.347 183.326 106.056 183.245 105.866C182.813 104.949 182.276 104.085 181.644 103.292C180.051 101.179 177.83 98.8856 175.478 96.4581C171.471 92.322 167.328 88.0447 164.626 82.9776C160.454 75.152 160.794 67.0125 165.583 60.0593C170.119 53.4723 176.304 49.5322 183.966 48.3485C189.726 47.4587 195.392 48.2455 200.871 49.0064C207.69 49.9529 214.131 50.8474 220.066 48.4766C220.592 48.2667 222.252 46.1452 222.669 41.5139C223.321 34.2608 221.46 30.2394 216.999 27.4453C211.174 23.7986 206.605 33.0629 201.706 36.011C196.382 39.2137 189.133 40.3696 179.984 30.425C170.834 20.4804 179.251 11.5191 184.575 8.3165C192.651 3.45586 200.461 0.696402 207.787 0.115167C215.112 -0.466067 222.077 1.16165 227.924 4.82304C234.191 8.74712 239.093 14.8828 242.1 22.5673C244.671 29.2384 245.688 36.4076 245.075 43.5307C243.954 55.9903 237.724 65.6497 228.413 69.3682C216.944 73.9501 206.317 72.4747 197.779 71.2893C188.438 69.991 186.31 70.1736 184.709 72.0342C184.626 72.1296 184.575 72.2484 184.563 72.3741C184.551 72.4998 184.579 72.6261 184.643 72.7353C185.923 74.9044 189.418 78.5117 191.639 80.805C195.876 85.1762 200.257 89.7001 203.075 95.2004C207.276 103.399 206.769 111.962 201.647 119.311C194.645 129.357 179.641 135.518 155.778 138.146C139.958 139.889 124.362 131.065 123.77 131.045C123.332 131.03 122.896 130.99 122.464 130.924Z" fill="#F9BE3C"/>
<mask id="mask2_1930_14102" style="mask-type:luminance" maskUnits="userSpaceOnUse" x="114" y="0" width="132" height="139">
<path d="M122.464 130.924C116.893 130.084 113.858 129.45 114.058 123.682C114.274 117.475 116.175 120.271 122.381 120.484C122.544 120.49 140.329 126.859 154.525 125.11C174.634 122.634 177.547 120.727 182.036 115.037C186.525 109.347 183.326 106.056 183.245 105.866C182.813 104.949 182.276 104.085 181.644 103.292C180.051 101.179 177.83 98.8856 175.478 96.4581C171.471 92.322 167.328 88.0447 164.626 82.9776C160.454 75.152 160.794 67.0125 165.583 60.0593C170.119 53.4723 176.304 49.5322 183.966 48.3485C189.726 47.4587 195.392 48.2455 200.871 49.0064C207.69 49.9529 214.131 50.8474 220.066 48.4766C220.592 48.2667 222.252 46.1452 222.669 41.5139C223.321 34.2608 221.46 30.2394 216.999 27.4453C211.174 23.7986 206.605 33.0629 201.706 36.011C196.382 39.2137 189.133 40.3696 179.984 30.425C170.834 20.4804 179.251 11.5191 184.575 8.3165C192.651 3.45586 200.461 0.696402 207.787 0.115167C215.112 -0.466067 222.077 1.16165 227.924 4.82304C234.191 8.74712 239.093 14.8828 242.1 22.5673C244.671 29.2384 245.688 36.4076 245.075 43.5307C243.954 55.9903 237.724 65.6497 228.413 69.3682C216.944 73.9501 206.317 72.4747 197.779 71.2893C188.438 69.991 186.31 70.1736 184.709 72.0342C184.626 72.1296 184.575 72.2484 184.563 72.3741C184.551 72.4998 184.579 72.6261 184.643 72.7353C185.923 74.9044 189.418 78.5117 191.639 80.805C195.876 85.1762 200.257 89.7001 203.075 95.2004C207.276 103.399 206.769 111.962 201.647 119.311C194.645 129.357 179.641 135.518 155.778 138.146C139.958 139.889 124.362 131.065 123.77 131.045C123.332 131.03 122.896 130.99 122.464 130.924Z" fill="white"/>
</mask>
<g mask="url(#mask2_1930_14102)">
<path d="M184.665 71.1937C184.665 71.1937 176.643 64.5975 202.29 64.2007C227.936 63.8038 232.306 59.3283 236.712 50.9227C241.118 42.5171 244.723 27.9529 248.397 32.7344C252.072 37.5158 241.409 77.0731 241.409 77.0731C241.409 77.0731 202.192 78.9293 201.891 78.5013C201.59 78.0733 184.665 71.1937 184.665 71.1937Z" fill="#F28B0E"/>
<path d="M137.769 136.501C137.769 136.501 173.771 134.107 186.828 123.982C199.885 113.857 199.534 111.137 206.037 101.068C212.541 90.9989 219.719 112.718 219.702 113.241C219.686 113.765 191.985 146.074 190.096 146.119C188.207 146.165 137.769 136.501 137.769 136.501Z" fill="#F28B0E"/>
<path d="M191.323 39.0609C191.769 38.2364 200.684 33.7298 206.83 24.9771C212.975 16.2244 219.716 25.28 220.569 28.1364C221.423 30.9928 216.735 40.0026 216.735 40.0026L191.323 39.0609Z" fill="#F28B0E"/>
</g>
<path d="M66.2402 71.0898C65.3439 73.7112 65.1712 78.7532 67.9281 79.7456C69.6441 80.364 73.0376 79.2743 75.1609 78.5805C76.2056 78.1611 79.352 76.8619 87.6606 73.2053C92.0859 70.7479 94.0862 69.7637 95.0964 66.8091C96.3259 63.2126 94.2572 59.192 90.4751 57.827C89.4831 57.4578 88.4226 57.3092 87.3673 57.3914C86.3121 57.4736 85.2874 57.7847 84.3645 58.3031C81.4289 59.6936 72.4477 64.1717 67.6442 69.0176C66.998 69.5692 66.5129 70.2852 66.2402 71.0898Z" fill="#F9BE3C"/>
<path d="M81.5693 98.7056C76.5589 101.071 69.2673 83.1897 66.9155 80.145C66.9125 80.145 66.9125 80.145 66.9121 80.1411C66.835 80.0396 66.7502 79.9441 66.6584 79.8555C66.5149 79.7233 66.3826 79.5794 66.2629 79.4253C66.2404 79.3963 66.2196 79.3664 66.2006 79.3387C65.7358 78.7034 65.4247 77.9689 65.2917 77.193C64.7836 74.2444 66.9056 71.4213 70.029 70.8834C71.242 70.6512 72.4975 70.82 73.6061 71.3641C74.7148 71.9083 75.6163 72.7983 76.1746 73.8999L76.1833 73.9055C76.1833 73.9055 87.5829 95.8682 81.5693 98.7056Z" fill="#F9BE3C"/>
<path d="M166.295 96.9497C165.862 100.21 162.705 102.516 159.248 102.1C158.245 101.991 157.283 101.643 156.442 101.086C155.602 100.529 154.906 99.7782 154.415 98.8973C154.145 98.6748 151.013 90.8708 142.996 85.5241C139.568 84.1085 137.385 80.6934 137.874 77.019C138.47 72.5461 142.798 69.3811 147.541 69.9511C148.793 70.0893 149.999 70.4976 151.078 71.1477C152.156 71.7978 153.08 72.6742 153.787 73.7164C156.173 76.758 163.354 86.301 165.897 94.0064C166.292 94.9339 166.429 95.9507 166.295 96.9497Z" fill="#F9BE3C"/>
<path d="M136.616 111.256C133.742 106.52 150.766 97.4072 153.549 94.749C153.549 94.746 153.549 94.746 153.553 94.7456C153.646 94.6582 153.732 94.5638 153.811 94.4634C153.927 94.3067 154.057 94.16 154.198 94.025C154.224 93.9994 154.251 93.9765 154.276 93.954C154.86 93.4266 155.558 93.0414 156.316 92.8287C159.195 92.0164 162.224 93.8328 163.084 96.8831C163.442 98.0654 163.405 99.332 162.979 100.492C162.554 101.651 161.762 102.641 160.725 103.311L160.72 103.32C160.72 103.32 140.065 116.942 136.616 111.256Z" fill="#F9BE3C"/>
<path d="M121.252 76.6775C140.036 76.6775 155.263 60.9883 155.263 41.6346C155.263 22.281 140.036 6.5918 121.252 6.5918C102.468 6.5918 87.2412 22.281 87.2412 41.6346C87.2412 60.9883 102.468 76.6775 121.252 76.6775Z" fill="#F9BE3C"/>
<path d="M152.495 23.1667L152.653 21.5654L150.76 20.2899L149.971 18.6454C149.652 18.3116 149.304 18.0058 148.933 17.7313C148.756 17.6802 148.193 16.7125 148.061 16.6359C147.601 16.4206 147.18 16.1305 146.815 15.7773C146.508 15.3817 144.756 14.4148 144.756 14.4148C144.756 14.4148 143.914 13.4818 143.631 13.1316C143.347 12.7815 141.73 11.3572 141.73 11.3572L139.765 10.5972L139.141 8.91541L136.458 8.25411C136.458 8.25411 135.684 8.41338 135.557 8.45319C134.828 8.28223 134.108 8.07393 133.4 7.82911C132.728 7.63479 130.071 6.48314 129.718 6.38057C129.364 6.278 127.475 5.65522 127.208 5.65435C126.739 5.58107 126.266 5.53396 125.792 5.51326C125.397 5.55221 124.726 5.35789 124.048 5.31505C123.541 5.25828 123.029 5.25146 122.521 5.2947C122.197 5.35443 121.407 5.43276 121.407 5.43276L117.792 5.34621C117.792 5.34621 116.999 5.04022 117.012 5.65738C117.026 6.27454 116.339 5.99885 115.768 5.71884C115.295 5.56584 114.785 5.56584 114.311 5.71884C113.97 5.73338 113.632 5.79007 113.305 5.88762C113.239 5.98327 112.319 4.26077 111.687 5.64959C111.055 7.03841 111.207 7.0436 111.055 7.03841C110.903 7.03321 109.515 6.40091 109.347 6.58225C109.18 6.76359 109.131 6.40481 109.008 6.82937C108.955 6.96321 108.872 7.08273 108.764 7.17817C108.656 7.27362 108.528 7.34229 108.389 7.37858C108.389 7.37858 108.121 7.37858 107.982 7.98881C107.844 8.59904 107.727 8.87343 107.583 9.36854C107.44 9.86365 107.363 9.99478 107.324 10.1363C107.284 10.2778 114.543 12.608 115.417 12.8992C116.311 13.2359 152.495 23.1667 152.495 23.1667Z" fill="#F9BE3C"/>
<path d="M110.194 29.0332C112.242 23.737 110.926 18.2922 107.253 16.8718C103.581 15.4513 98.9429 18.5932 96.8945 23.8893C94.8461 29.1855 96.1627 34.6303 99.8353 36.0507C103.508 37.4712 108.146 34.3293 110.194 29.0332Z" fill="#1D1D1B"/>
<path d="M104.47 22.4427C105.164 20.6492 104.718 18.8054 103.474 18.3243C102.231 17.8433 100.66 18.9072 99.9664 20.7007C99.2728 22.4942 99.7187 24.338 100.962 24.819C102.206 25.3001 103.777 24.2362 104.47 22.4427Z" fill="#DCDCDC"/>
<path d="M114.64 27.0346C108.95 25.9833 102.458 35.2887 102.458 35.2887C102.458 35.2887 98.249 44.266 110.894 46.6027L111.016 46.6252C123.661 48.9622 122.938 39.073 122.938 39.073C122.938 39.073 120.2 28.0616 114.509 27.0104" fill="#D66709"/>
<path d="M114.922 31.1923C115.132 30.0554 114.114 28.9141 112.647 28.6431C111.181 28.3722 109.822 29.0742 109.612 30.2111C109.401 31.348 110.42 32.4893 111.886 32.7602C113.353 33.0312 114.712 32.3292 114.922 31.1923Z" fill="black"/>
<path d="M105.841 115.301C117.626 115.301 127.18 105.088 127.18 92.4894C127.18 79.8908 117.626 69.6776 105.841 69.6776C94.0563 69.6776 84.5027 79.8908 84.5027 92.4894C84.5027 105.088 94.0563 115.301 105.841 115.301Z" fill="#FBDC8C"/>
<path d="M104.322 68.4758L101.522 68.0599C100.013 67.8357 98.4489 69.3011 97.724 71.6195L92.1449 90.464C91.1097 93.7727 94.7706 103.555 96.9242 103.874L98.319 104.082C100.476 104.402 106.728 96.0812 106.693 92.6093L106.921 72.9703C106.899 70.5479 105.827 68.6991 104.322 68.4758Z" fill="#45BC9E"/>
<path d="M147.688 63.0724C147.688 63.0724 126.416 66.0915 110.128 60.8016C93.8405 55.5116 107.781 67.106 107.781 67.106C107.781 67.106 129.565 72.8508 149.242 67.9785C150.956 66.987 149.416 62.6842 147.688 63.0724Z" fill="#45BC9E"/>
<path d="M98.9389 58.1122C98.9389 58.1122 91.1443 54.9277 89.6595 53.7185C88.1746 52.5093 86.288 58.8856 87.46 59.691C88.632 60.4964 96.7013 64.3426 97.521 64.6343C98.3407 64.926 98.9389 58.1122 98.9389 58.1122Z" fill="#45BC9E"/>
<path d="M100.11 69.3326L102.957 70.1316C103.66 70.357 104.416 70.3502 105.115 70.112C105.814 69.8739 106.417 69.4172 106.836 68.8094L109.882 63.8869C110.95 62.1618 109.859 59.887 107.67 59.2725L101.718 57.6019C99.5247 56.9861 97.4071 58.3667 97.4274 60.3995L97.4858 66.1936C97.5292 66.9289 97.8076 67.6309 98.28 68.196C98.7524 68.7611 99.3939 69.1596 100.11 69.3326Z" fill="#A6E9D4"/>
<path d="M106.432 35.2733C106.432 35.274 106.432 35.276 106.432 35.2788C106.431 35.2849 106.431 35.2958 106.431 35.3109C106.431 35.3415 106.431 35.3893 106.433 35.4508C106.437 35.5744 106.447 35.7494 106.473 35.9486C106.527 36.3668 106.639 36.8063 106.835 37.1198C107.005 37.3923 107.208 37.5375 107.55 37.5403C107.974 37.5438 108.732 37.3274 109.95 36.4461C110.186 36.2754 110.492 36.2347 110.764 36.3379C111.036 36.4411 111.239 36.6746 111.302 36.9588C111.602 38.2993 112.105 38.933 112.567 39.2364C113.034 39.5433 113.611 39.6127 114.26 39.5111C114.911 39.4091 115.555 39.1453 116.054 38.8903C116.299 38.765 116.5 38.6467 116.638 38.561C116.706 38.5184 116.759 38.4843 116.792 38.4617C116.809 38.4504 116.821 38.4418 116.829 38.4368C116.832 38.4343 116.835 38.4324 116.836 38.4317C116.836 38.4314 116.837 38.4313 116.837 38.4313L116.836 38.4317C117.226 38.1556 117.766 38.2478 118.042 38.6375C118.319 39.0274 118.227 39.5676 117.837 39.8442L117.336 39.1383C117.837 39.8444 117.837 39.8448 117.836 39.845L117.835 39.8454C117.835 39.8458 117.834 39.8462 117.833 39.8467C117.832 39.8477 117.83 39.8491 117.828 39.8505C117.824 39.8535 117.818 39.8572 117.811 39.8619C117.798 39.8714 117.778 39.8847 117.754 39.9008C117.706 39.933 117.638 39.9776 117.552 40.031C117.381 40.1375 117.137 40.2808 116.841 40.4321C116.258 40.7301 115.431 41.0801 114.528 41.2216C113.622 41.3634 112.563 41.3057 111.616 40.6835C110.912 40.2211 110.353 39.5007 109.963 38.501C109.056 39.0224 108.253 39.2773 107.536 39.2715C106.483 39.2629 105.782 38.7018 105.367 38.0374C104.977 37.4138 104.822 36.6856 104.756 36.1705C104.721 35.9032 104.708 35.6697 104.703 35.5019C104.7 35.4177 104.7 35.3489 104.7 35.2995C104.7 35.2747 104.701 35.2547 104.701 35.2399C104.701 35.2325 104.701 35.2264 104.701 35.2217C104.701 35.2193 104.702 35.2171 104.702 35.2154V35.2124C104.702 35.212 104.702 35.2114 105.567 35.2433L104.702 35.2116C104.719 34.7339 105.121 34.3605 105.599 34.3781C106.076 34.3957 106.449 34.7971 106.432 35.2745V35.2733Z" fill="black"/>
<path d="M138.329 32.84C139.773 27.0237 137.673 21.4971 133.64 20.496C129.607 19.4949 125.167 23.3984 123.723 29.2146C122.279 35.0309 124.379 40.5575 128.412 41.5586C132.445 42.5597 136.885 38.6563 138.329 32.84Z" fill="#1D1D1B"/>
<path d="M131.86 26.5031C132.554 24.7096 132.108 22.8658 130.864 22.3848C129.621 21.9037 128.05 22.9677 127.356 24.7611C126.663 26.5546 127.109 28.3984 128.352 28.8795C129.596 29.3605 131.167 28.2966 131.86 26.5031Z" fill="#DCDCDC"/>
<path d="M175.859 225.647C193.771 225.647 208.291 211.127 208.291 193.216C208.291 175.304 193.771 160.784 175.859 160.784C157.948 160.784 143.428 175.304 143.428 193.216C143.428 211.127 157.948 225.647 175.859 225.647Z" fill="#F9BE3C"/>
<path d="M191.053 268.631C207.988 268.631 221.717 254.903 221.717 237.968C221.717 221.033 207.988 207.304 191.053 207.304C174.118 207.304 160.39 221.033 160.39 237.968C160.39 254.903 174.118 268.631 191.053 268.631Z" fill="#F9BE3C"/>
<path d="M208.125 191.254C209.893 204.182 208.664 208.243 212.352 215.288C228.225 245.607 182.738 265.342 177.213 264.128C171.688 262.914 155.444 252.857 147.489 229.542C139.534 206.227 144.561 187.815 144.561 187.815L208.125 191.254Z" fill="#F9BE3C"/>
<path d="M182.517 261.822C183.18 271.932 188.94 280.758 182.931 283.201C163.87 288.506 159.644 249.72 159.644 249.72L182.517 261.822Z" fill="#F9BE3C"/>
<path d="M214.277 251.361C221.631 258.332 231.853 260.899 229.102 266.774C218.713 283.613 189.271 258.013 189.271 258.013L214.277 251.361Z" fill="#F9BE3C"/>
<mask id="mask3_1930_14102" style="mask-type:luminance" maskUnits="userSpaceOnUse" x="189" y="251" width="41" height="22">
<path d="M214.277 251.361C221.631 258.332 231.853 260.899 229.102 266.774C218.713 283.613 189.271 258.013 189.271 258.013L214.277 251.361Z" fill="white"/>
</mask>
<g mask="url(#mask3_1930_14102)">
<path d="M217.739 254.197C217.739 254.197 229.369 263.049 225.613 267.415C221.857 271.782 218.818 273.383 218.818 273.383L238.183 267.084L217.739 254.197Z" fill="#F28B0E"/>
</g>
<mask id="mask4_1930_14102" style="mask-type:luminance" maskUnits="userSpaceOnUse" x="159" y="249" width="27" height="35">
<path d="M182.61 261.682C183.24 271.795 188.972 280.638 182.957 283.065C163.878 288.306 159.779 249.508 159.779 249.508L182.61 261.682Z" fill="white"/>
</mask>
<g mask="url(#mask4_1930_14102)">
<path d="M183.211 266.116C183.211 266.116 185.687 280.522 179.965 281.155C174.242 281.789 170.925 280.89 170.925 280.89L189.388 289.479L183.211 266.116Z" fill="#F28B0E"/>
</g>
<path d="M147.047 193.574C147.047 193.574 140.665 185.287 136.936 171.779C134.491 162.923 124.919 165.646 124.837 172.69C124.754 179.734 124.505 207.663 144.312 219.349C164.119 231.034 147.047 193.574 147.047 193.574Z" fill="#F9BE3C"/>
<path d="M205.529 238.189C205.529 238.189 233.678 233.991 231.247 222.829C229.083 212.898 219.12 180.95 241.22 173.105C264.327 164.902 276.469 226.586 244.756 241.504C213.042 256.421 206.411 251.559 206.411 251.559L205.529 238.189Z" fill="#F9BE3C"/>
<mask id="mask5_1930_14102" style="mask-type:luminance" maskUnits="userSpaceOnUse" x="205" y="172" width="59" height="81">
<path d="M205.529 238.189C205.529 238.189 233.678 233.991 231.247 222.829C229.083 212.898 219.12 180.95 241.22 173.105C264.327 164.902 276.469 226.586 244.756 241.504C213.042 256.421 206.411 251.559 206.411 251.559L205.529 238.189Z" fill="white"/>
</mask>
<g mask="url(#mask5_1930_14102)">
<path d="M218.678 251.338C218.678 251.338 250.059 243.714 253.375 212.884C256.69 182.054 245.805 170.618 245.805 170.618L273.154 172.773L290.392 225.15L240.833 254.32L218.678 251.338Z" fill="#F28B0E"/>
</g>
<path d="M161.307 153.249L159.401 154.349C153.955 157.494 152.089 164.458 155.233 169.904L158.902 176.259C162.047 181.705 169.011 183.571 174.457 180.426L176.363 179.326C181.809 176.182 183.675 169.218 180.53 163.772L176.862 157.417C173.717 151.971 166.753 150.105 161.307 153.249Z" fill="#F9BE3C"/>
<path d="M184.921 163.161L206.578 142.719C206.578 142.719 205.86 169.238 204.037 178.686C202.214 188.134 184.921 163.161 184.921 163.161Z" fill="#F9BE3C"/>
<path d="M168.235 165.287L152.102 145.509C152.102 145.509 147.295 171.365 149.119 180.813C150.942 190.261 168.235 165.287 168.235 165.287Z" fill="#F9BE3C"/>
<mask id="mask6_1930_14102" style="mask-type:luminance" maskUnits="userSpaceOnUse" x="148" y="145" width="21" height="38">
<path d="M168.235 165.287L152.102 145.509C152.102 145.509 147.295 171.365 149.119 180.813C150.942 190.261 168.235 165.287 168.235 165.287Z" fill="white"/>
</mask>
<g mask="url(#mask6_1930_14102)">
<path d="M150.832 143.712C150.832 143.712 160.61 165.839 165.749 165.549C172.557 165.165 169.188 147.939 169.188 147.939L150.832 143.712Z" fill="#F28B0E"/>
</g>
<path d="M145.085 190.177C145.085 190.177 157.673 216.388 187.075 208.409C209.368 202.359 208.084 189.679 208.084 189.679C208.084 189.679 209.617 197.47 208.871 199.707C208.125 201.945 200.998 212.553 187.158 215.37C178.611 217.111 155.472 218.216 142.627 195.592L143.594 188.465L144.333 185.485L145.085 190.177Z" fill="#72D6BA"/>
<path d="M166.881 155.312C168.636 155.312 170.058 154.101 170.058 152.607C170.058 151.113 168.636 149.902 166.881 149.902C165.127 149.902 163.705 151.113 163.705 152.607C163.705 154.101 165.127 155.312 166.881 155.312Z" fill="#1D1D1B"/>
</svg>
