<svg width="195" height="56" viewBox="0 0 195 56" fill="none" xmlns="http://www.w3.org/2000/svg">
<path d="M52.4027 15.1866C50.8348 12.6885 52.5835 8.44713 54.988 6.73949C57.837 4.68432 61.042 3.17465 64.4409 2.28687C72.6375 0.2377 75.7284 4.7231 75.2052 6.03139C74.6819 7.33967 70.0312 12.9635 67.4008 15.1866C64.7703 17.4097 62.4648 17.8833 62.4648 17.8833C61.0435 18.6599 59.4049 18.9435 57.8053 18.6899C56.2057 18.4363 54.7352 17.6598 53.6238 16.4817L52.4027 15.1866Z" fill="#F28B0E"/>
<path d="M56.2442 8.43414C57.9833 6.81598 70.5884 0.237462 74.6867 4.3358C79.9112 9.56005 66.3207 21.4751 64.4409 22.7783C62.5611 24.0816 57.2859 25.651 53.4491 19.547C49.6124 13.443 54.5051 10.0521 56.2442 8.43414Z" fill="#F9BE3C"/>
<path d="M23.4716 15.1866C25.0394 12.6885 23.2894 8.44714 20.8862 6.7395C18.0373 4.68435 14.8324 3.17461 11.4336 2.28666C3.23692 0.237486 0.146321 4.72289 0.669543 6.03117C1.19276 7.33945 5.84279 12.9635 8.47369 15.1866C11.1046 17.4098 13.4092 17.8833 13.4092 17.8833C14.8305 18.6598 16.469 18.9434 18.0685 18.6898C19.668 18.4362 21.1384 17.6597 22.2498 16.4817L23.4716 15.1866Z" fill="#F28B0E"/>
<path d="M19.6302 8.43414C17.8912 6.81598 5.28605 0.237462 1.18771 4.3358C-4.03654 9.56005 9.55401 21.4751 11.4336 22.7783C13.3131 24.0816 18.5888 25.651 22.4255 19.547C26.2623 13.443 21.3691 10.0521 19.6302 8.43414Z" fill="#F9BE3C"/>
<path d="M37.8017 55.5651C53.6458 55.5651 66.49 43.1796 66.49 27.9013C66.49 12.623 53.6458 0.237488 37.8017 0.237488C21.9575 0.237488 9.11328 12.623 9.11328 27.9013C9.11328 43.1796 21.9575 55.5651 37.8017 55.5651Z" fill="#F9BE3C"/>
<mask id="mask0_1859_28251" style="mask-type:luminance" maskUnits="userSpaceOnUse" x="9" y="0" width="58" height="56">
<path d="M37.8017 55.5651C53.6458 55.5651 66.49 43.1796 66.49 27.9013C66.49 12.623 53.6458 0.237488 37.8017 0.237488C21.9575 0.237488 9.11328 12.623 9.11328 27.9013C9.11328 43.1796 21.9575 55.5651 37.8017 55.5651Z" fill="white"/>
</mask>
<g mask="url(#mask0_1859_28251)">
<path d="M63.9128 39.036C63.4477 39.2104 51.269 54.1213 31.3005 53.4237C11.3321 52.7261 10.2852 48.5405 10.2852 48.5405L24.8475 58.9173L56.4133 57.2604L65.9188 48.0175L63.9128 39.036Z" fill="#F28B0E"/>
</g>
<path d="M37.7605 22.323C43.4431 22.323 48.0519 31.7123 48.0519 31.7123C48.0519 31.7123 50.5143 40.431 37.8864 40.431H37.7646C25.1367 40.431 27.5991 31.7123 27.5991 31.7123C27.5991 31.7123 32.2084 22.323 37.8905 22.323" fill="#D66709"/>
<path d="M17.0284 21.9685C17.0284 21.9685 17.2139 12.5059 24.1533 12.209C31.0927 11.9121 29.7196 22.1169 29.7196 22.1169C29.7196 22.1169 28.0868 30.986 22.2237 30.8373C16.3606 30.6886 17.0284 21.9685 17.0284 21.9685Z" fill="black"/>
<path d="M58.5374 21.9685C58.5374 21.9685 58.3519 12.5059 51.4125 12.209C44.4731 11.9121 45.8462 22.1169 45.8462 22.1169C45.8462 22.1169 47.479 30.986 53.3421 30.8373C59.2052 30.6886 58.5374 21.9685 58.5374 21.9685Z" fill="black"/>
<path d="M23.6707 29.0952C26.801 29.0952 29.3387 25.4255 29.3387 20.8986C29.3387 16.3717 26.801 12.7019 23.6707 12.7019C20.5403 12.7019 18.0027 16.3717 18.0027 20.8986C18.0027 25.4255 20.5403 29.0952 23.6707 29.0952Z" fill="black"/>
<path d="M37.8841 29.0301C39.4733 29.0301 40.7616 28.0313 40.7616 26.7991C40.7616 25.5669 39.4733 24.568 37.8841 24.568C36.2949 24.568 35.0066 25.5669 35.0066 26.7991C35.0066 28.0313 36.2949 29.0301 37.8841 29.0301Z" fill="black"/>
<path d="M52.01 29.0952C55.1404 29.0952 57.6781 25.4255 57.6781 20.8986C57.6781 16.3717 55.1404 12.7019 52.01 12.7019C48.8797 12.7019 46.342 16.3717 46.342 20.8986C46.342 25.4255 48.8797 29.0952 52.01 29.0952Z" fill="black"/>
<path d="M21.52 20.3537C22.6638 20.3537 23.591 19.0166 23.591 17.3672C23.591 15.7177 22.6638 14.3806 21.52 14.3806C20.3762 14.3806 19.449 15.7177 19.449 17.3672C19.449 19.0166 20.3762 20.3537 21.52 20.3537Z" fill="#DCDCDC"/>
<path d="M49.4814 20.3537C50.6252 20.3537 51.5525 19.0166 51.5525 17.3672C51.5525 15.7177 50.6252 14.3806 49.4814 14.3806C48.3376 14.3806 47.4104 15.7177 47.4104 17.3672C47.4104 19.0166 48.3376 20.3537 49.4814 20.3537Z" fill="#DCDCDC"/>
<path d="M37.8585 32.5319C38.1994 32.555 38.4987 32.767 38.6336 33.0809C38.6336 33.0807 38.6333 33.0801 38.6332 33.0797C38.6329 33.0791 38.6326 33.0785 38.6323 33.078C38.6318 33.0768 38.6314 33.0758 38.631 33.0749C38.6302 33.073 38.6294 33.0714 38.629 33.0704L38.6423 33.0962C38.6583 33.1259 38.6879 33.1774 38.7333 33.2436C38.8243 33.3765 38.977 33.5655 39.2084 33.7584C39.6574 34.1325 40.4544 34.5648 41.8079 34.5648C43.1735 34.5648 44.0308 34.1458 44.5341 33.771C44.7911 33.5797 44.966 33.3923 45.072 33.2607C45.1249 33.195 45.1601 33.1436 45.1796 33.1138L45.197 33.0864C45.1965 33.0873 45.1957 33.0885 45.1947 33.0902C45.1943 33.091 45.1937 33.092 45.1932 33.0931L45.1918 33.0958V33.096C45.4301 32.6535 45.9817 32.4877 46.4245 32.7255C46.8676 32.9636 47.0339 33.5158 46.7959 33.9589L45.9936 33.5278C46.7567 33.9378 46.7936 33.9583 46.7952 33.9598C46.7951 33.96 46.7949 33.9606 46.7948 33.9609C46.7944 33.9616 46.7938 33.9624 46.7934 33.9631C46.7926 33.9647 46.7917 33.9665 46.7907 33.9683C46.7888 33.9718 46.7866 33.976 46.7841 33.9805C46.779 33.9896 46.7727 34.0005 46.7652 34.0132C46.7502 34.0385 46.7302 34.0709 46.7051 34.1092C46.6552 34.1858 46.5843 34.2868 46.4901 34.4036C46.3019 34.6372 46.0188 34.9366 45.6219 35.2321C44.8172 35.8311 43.5814 36.3863 41.8079 36.3863C40.0224 36.3863 38.814 35.8008 38.0422 35.1576C37.9295 35.0637 37.8276 34.969 37.7349 34.8763C37.6201 34.9785 37.4932 35.0839 37.3527 35.1885C36.5334 35.7987 35.2852 36.3863 33.5532 36.3863C31.842 36.3863 30.6882 35.8624 29.9478 35.2719C29.5843 34.982 29.334 34.687 29.1705 34.4545C29.0887 34.3383 29.0283 34.2373 28.9859 34.1597C28.9647 34.1209 28.948 34.0876 28.9352 34.0612C28.9288 34.048 28.9234 34.0365 28.919 34.0267C28.9168 34.0219 28.9147 34.0174 28.913 34.0134C28.9121 34.0114 28.9113 34.0096 28.9105 34.0078C28.9102 34.007 28.9098 34.0062 28.9094 34.0054C28.9093 34.005 28.9089 34.0043 28.9088 34.0041C28.9088 34.0034 28.9243 33.996 29.7455 33.6441L28.9083 34.0029C28.7102 33.5406 28.9245 33.0053 29.3868 32.8071C29.8488 32.6092 30.3837 32.8228 30.5822 33.2843C30.5821 33.2841 30.5819 33.2836 30.5817 33.2832C30.5814 33.2825 30.5811 33.2818 30.5808 33.2812C30.5803 33.2799 30.5795 33.2787 30.579 33.2776C30.5781 33.2754 30.5772 33.2735 30.5766 33.2721C30.5755 33.2698 30.5749 33.2685 30.5748 33.2683C30.5751 33.2688 30.5783 33.275 30.5844 33.2861C30.5967 33.3086 30.6212 33.3507 30.6602 33.4062C30.7382 33.517 30.873 33.6799 31.0836 33.8477C31.4913 34.1729 32.2415 34.5648 33.5532 34.5648C34.8441 34.5648 35.718 34.1349 36.2647 33.7277C36.5421 33.5211 36.7397 33.3167 36.8642 33.1698C36.9262 33.0966 36.9693 33.0385 36.9945 33.0028C37.007 32.9851 37.0149 32.9729 37.0185 32.9675L37.0189 32.9668C37.0186 32.9674 37.0181 32.9684 37.0176 32.9692L37.0163 32.9712V32.9715C37.1923 32.6786 37.5176 32.5088 37.8585 32.5319Z" fill="black"/>
<path d="M41.486 39.7376C41.8439 39.4249 42.3879 39.4392 42.7287 39.7803C43.0842 40.1361 43.0838 40.7128 42.728 41.0683L42.0843 40.424C42.728 41.0682 42.7274 41.069 42.7267 41.0697C42.7264 41.0699 42.7258 41.0706 42.7254 41.071C42.7244 41.0719 42.7234 41.0727 42.7225 41.0737C42.7206 41.0755 42.7187 41.0775 42.7167 41.0795C42.7126 41.0834 42.7083 41.0875 42.7038 41.0917C42.6948 41.1001 42.6847 41.1092 42.6738 41.1188C42.6519 41.138 42.626 41.1592 42.596 41.1822C42.5357 41.2283 42.4585 41.2812 42.3614 41.3378C42.167 41.4512 41.894 41.5789 41.5173 41.6987C40.7664 41.9376 39.5935 42.1485 37.7825 42.1485C35.9959 42.1485 34.9102 42.0003 34.243 41.8292C33.9071 41.7431 33.6633 41.6478 33.4836 41.5533C33.3932 41.5057 33.3173 41.4573 33.2533 41.4092C33.2212 41.3851 33.192 41.3611 33.1657 41.3372C33.1525 41.3252 33.1401 41.3132 33.1283 41.3014C33.1224 41.2954 33.1166 41.2895 33.111 41.2836C33.1082 41.2807 33.1054 41.2778 33.1028 41.2749L33.0968 41.2682C33.0958 41.2671 33.0948 41.2661 33.7714 40.6565L33.0947 41.266C32.7581 40.8923 32.788 40.3164 33.1617 39.9797C33.4982 39.6766 33.9985 39.671 34.3406 39.9457C34.3782 39.9643 34.4841 40.0108 34.6952 40.0649C35.1616 40.1845 36.0817 40.327 37.7825 40.327C39.459 40.327 40.4371 40.131 40.9652 39.963C41.228 39.8794 41.3766 39.8035 41.444 39.7643C41.4667 39.751 41.4802 39.7416 41.486 39.7376ZM34.446 40.0446C34.4456 40.0442 34.4448 40.0431 34.4442 40.0424C34.4429 40.041 34.4415 40.0396 34.4402 40.0382C34.4377 40.0355 34.4351 40.0328 34.4326 40.0302C34.4276 40.0249 34.4225 40.0197 34.4177 40.0148C34.4171 40.0142 34.4164 40.0135 34.4157 40.0128C34.426 40.0232 34.4361 40.0337 34.446 40.0446ZM41.46 39.7609C41.4571 39.7636 41.4541 39.7665 41.4509 39.7696C41.4492 39.7712 41.4477 39.7728 41.446 39.7745C41.4529 39.7677 41.46 39.761 41.4671 39.7545C41.4649 39.7565 41.4625 39.7586 41.46 39.7609Z" fill="#772D10"/>
<path d="M18.439 7.87792L18.6714 6.62793L20.3864 6.07579L21.3456 5.0002C21.3456 5.0002 22.188 4.53527 22.3338 4.53527C22.4795 4.53527 23.1186 3.92484 23.2347 3.8957C23.3508 3.86656 24.0487 3.75044 24.3684 3.51797C24.688 3.2855 26.2285 2.93669 26.2285 2.93669C26.2285 2.93669 27.071 2.41301 27.3622 2.20992C27.6534 2.00682 29.1932 1.27891 29.1932 1.27891L30.8499 1.13365L31.693 0L33.8731 0.0872036C33.8731 0.0872036 34.4252 0.377958 34.5124 0.436018C34.5996 0.494078 35.7333 0.436018 36.2856 0.436018C36.838 0.436018 39.1051 0.145263 39.3956 0.145263C39.6861 0.145263 41.2558 0.0872036 41.4593 0.145263C41.6629 0.203323 42.2731 0.232467 42.5638 0.348814C42.8546 0.465162 43.4063 0.465162 43.93 0.581281C44.327 0.649065 44.7164 0.755835 45.0925 0.900041C45.3252 1.01639 45.9065 1.24886 45.9065 1.24886L48.6679 1.97563C48.6679 1.97563 49.3364 1.91757 49.1915 2.3825C49.0467 2.84744 49.6276 2.78938 50.1219 2.70126C50.6162 2.61315 51.2264 3.02002 51.2264 3.02002C51.2264 3.02002 51.9238 3.28163 51.9529 3.36884C51.9821 3.45604 53.0574 2.35131 53.2318 3.54302C53.4062 4.73472 53.2899 4.7058 53.4062 4.73495C53.5226 4.76409 54.7143 4.58946 54.8015 4.76386C54.8887 4.93827 55.0048 4.67666 55.0048 5.02548C55.0153 5.13853 55.0523 5.24751 55.1129 5.34351C55.1736 5.43952 55.256 5.51981 55.3536 5.57784C55.3536 5.57784 55.5572 5.6359 55.528 6.12998C55.4989 6.62406 55.528 6.85675 55.528 7.26362C55.528 7.6705 55.5572 7.7873 55.5572 7.90297C55.5572 8.01863 49.5397 8.19668 48.8131 8.22582C48.0574 8.28388 18.439 7.87792 18.439 7.87792Z" fill="#F9BE3C"/>
<path d="M48.7926 10.8288C50.4315 10.3532 52.7583 10.2438 55.6287 11.521C56.0882 11.7254 56.2949 12.2637 56.0905 12.7232C55.886 13.1827 55.3478 13.3896 54.8883 13.1852C52.4215 12.0877 50.5375 12.2192 49.3002 12.5782C48.6727 12.7603 48.1959 13.0058 47.882 13.2001C47.7253 13.2972 47.6102 13.381 47.5383 13.4367C47.5024 13.4646 47.4774 13.4852 47.4636 13.497C47.4567 13.5028 47.4526 13.5065 47.4514 13.5077C47.4508 13.5082 47.4508 13.5081 47.4516 13.5074C47.452 13.5071 47.4526 13.5065 47.4534 13.5059L47.4554 13.5039L47.4551 13.5036C47.0861 13.8447 46.5106 13.8228 46.1691 13.4541C45.8272 13.0851 45.8494 12.5087 46.2184 12.1669L46.8108 12.8064C46.2384 12.1885 46.2193 12.1673 46.2191 12.1662C46.2193 12.1661 46.2199 12.1656 46.2202 12.1653C46.2208 12.1647 46.2215 12.164 46.2222 12.1633C46.2237 12.1619 46.2254 12.1604 46.2273 12.1587C46.2311 12.1552 46.2358 12.1512 46.2411 12.1464C46.2518 12.1369 46.2657 12.1247 46.2827 12.1102C46.3167 12.0812 46.3632 12.0429 46.4221 11.9972C46.5397 11.906 46.7073 11.7851 46.923 11.6515C47.3543 11.3844 47.9819 11.064 48.7926 10.8288Z" fill="black"/>
<path d="M19.9887 11.521C22.8586 10.2438 25.1851 10.3532 26.8239 10.8288C27.6345 11.064 28.2623 11.3844 28.6935 11.6515C28.9092 11.7851 29.0768 11.906 29.1944 11.9972C29.2532 12.0428 29.2996 12.0812 29.3336 12.1102C29.3506 12.1247 29.3647 12.1369 29.3754 12.1464C29.3807 12.1511 29.3852 12.1552 29.389 12.1587C29.3908 12.1604 29.3926 12.162 29.3941 12.1633C29.3948 12.164 29.3957 12.1647 29.3963 12.1653C29.3966 12.1656 29.397 12.1661 29.3972 12.1662C29.3966 12.1677 29.3726 12.1945 28.7846 12.8293L29.3981 12.1669C29.7671 12.5087 29.789 13.0851 29.4472 13.4541C29.1059 13.8225 28.5309 13.8449 28.1618 13.5045L28.1649 13.5076C28.1636 13.5065 28.1596 13.5028 28.1527 13.497C28.1389 13.4852 28.114 13.4645 28.0782 13.4367C28.0064 13.381 27.8912 13.2972 27.7345 13.2001C27.4207 13.0058 26.9437 12.7603 26.3163 12.5782C25.0791 12.2192 23.1954 12.0877 20.7291 13.1852C20.2696 13.3897 19.7314 13.1829 19.5269 12.7234C19.3224 12.2639 19.5292 11.7255 19.9887 11.521Z" fill="black"/>
<path d="M81.9427 43.3748C80.8005 43.3748 79.8745 42.4489 79.8745 41.3067V14.2852C79.8745 12.7203 81.5453 11.7223 82.9231 12.4642L86.0397 14.1423C86.702 14.4989 87.1185 15.187 87.1272 15.9392L87.1968 21.9211C87.21 23.0538 88.132 23.9652 89.2648 23.9652H93.3175C94.4597 23.9652 95.3857 23.0392 95.3857 21.897V15.9642C95.3857 15.1988 95.8084 14.496 96.4845 14.1372L99.6943 12.4343C101.072 11.7034 102.732 12.7019 102.732 14.2612V41.3067C102.732 42.4489 101.806 43.3748 100.664 43.3748H97.4538C96.3116 43.3748 95.3857 42.4489 95.3857 41.3067V32.0199C95.3857 30.8777 94.4597 29.9518 93.3175 29.9518H89.2887C88.1465 29.9518 87.2206 30.8777 87.2206 32.0199V41.3067C87.2206 42.4489 86.2946 43.3748 85.1524 43.3748H81.9427Z" fill="#45BC9E"/>
<path d="M189.487 42.9773C188.344 42.9773 187.418 42.0513 187.418 40.9091V18.8787C187.418 18.1178 187.836 17.4184 188.506 17.0577L191.608 15.3873C192.986 14.6454 194.657 15.6434 194.657 17.2083V40.9091C194.657 42.0513 193.731 42.9773 192.589 42.9773H189.487Z" fill="#45BC9E"/>
<path d="M120.817 37.6142C121.826 37.6142 122.644 36.7962 122.644 35.7872C122.644 34.8768 123.314 34.1054 124.216 33.9782L127.137 33.566C128.381 33.3903 129.494 34.3567 129.494 35.6138V38.0379C129.494 38.6036 129.262 39.1446 128.852 39.5349L125.775 42.4685C125.39 42.835 124.879 43.0395 124.348 43.0395H111.907C111.375 43.0395 110.864 42.835 110.48 42.4685L107.402 39.5349C106.992 39.1446 106.761 38.6036 106.761 38.0379V22.6449C106.761 22.0792 106.992 21.5382 107.402 21.1478L110.48 18.2143C110.864 17.8477 111.375 17.6433 111.907 17.6433H124.348C124.879 17.6433 125.39 17.8477 125.775 18.2143L128.852 21.1478C129.262 21.5382 129.494 22.0792 129.494 22.6449V29.5127C129.494 30.6549 128.568 31.5808 127.426 31.5808H115.778C114.636 31.5808 113.71 32.5068 113.71 33.649V35.546C113.71 36.6882 114.636 37.6142 115.778 37.6142H120.817ZM122.644 25.1368C122.644 23.9946 121.718 23.0686 120.576 23.0686H115.778C114.636 23.0686 113.71 23.9946 113.71 25.1368V26.1452C113.71 27.2874 114.636 28.2133 115.778 28.2133H120.576C121.718 28.2133 122.644 27.2874 122.644 26.1452V25.1368Z" fill="#45BC9E"/>
<path d="M147.702 37.6142C148.711 37.6142 149.529 36.7963 149.529 35.7875C149.529 34.877 150.2 34.1056 151.101 33.9786L154.032 33.5661C155.279 33.3905 156.392 34.3607 156.388 35.62L156.381 38.0414C156.38 38.6051 156.148 39.1436 155.74 39.5325L152.66 42.4685C152.275 42.835 151.764 43.0395 151.233 43.0395H138.792C138.26 43.0395 137.749 42.835 137.365 42.4685L134.287 39.5349C133.877 39.1446 133.646 38.6036 133.646 38.0379V22.6449C133.646 22.0792 133.877 21.5382 134.287 21.1478L137.365 18.2143C137.749 17.8477 138.26 17.6433 138.792 17.6433H151.233C151.764 17.6433 152.275 17.8477 152.66 18.2143L155.738 21.1478C156.147 21.5382 156.379 22.0792 156.379 22.6449V29.5127C156.379 30.6549 155.453 31.5808 154.311 31.5808H142.663C141.521 31.5808 140.595 32.5068 140.595 33.649V35.546C140.595 36.6882 141.521 37.6142 142.663 37.6142H147.702ZM149.529 25.1368C149.529 23.9946 148.603 23.0686 147.461 23.0686H142.663C141.521 23.0686 140.595 23.9946 140.595 25.1368V26.1452C140.595 27.2874 141.521 28.2133 142.663 28.2133H147.461C148.603 28.2133 149.529 27.2874 149.529 26.1452V25.1368Z" fill="#45BC9E"/>
<path d="M181.478 40.9714C181.478 42.1136 180.552 43.0395 179.41 43.0395H162.6C161.458 43.0395 160.532 42.1136 160.532 40.9714V36.6163C160.532 36.0308 160.78 35.4727 161.215 35.0806L173.01 24.4418C173.187 24.2822 173.288 24.0551 173.288 23.8168C173.288 23.3519 172.912 22.9751 172.447 22.9751H162.749C161.607 22.9751 160.681 22.0491 160.681 20.9069V19.7114C160.681 18.5692 161.607 17.6433 162.749 17.6433H178.963C180.106 17.6433 181.032 18.5692 181.032 19.7114V24.15C181.032 24.7413 180.778 25.3044 180.336 25.6969L168.518 36.185C168.332 36.3503 168.226 36.5875 168.226 36.8365C168.226 37.3177 168.616 37.7077 169.097 37.7077H179.41C180.552 37.7077 181.478 38.6337 181.478 39.7759V40.9714Z" fill="#45BC9E"/>
</svg>
