<svg width="183" height="131" viewBox="0 0 183 131" fill="none" xmlns="http://www.w3.org/2000/svg">
<path d="M71.5856 80.0058C71.5853 80.8633 71.5386 81.7201 71.4456 82.5725C70.7153 91.4177 69.0291 99.0341 66.0627 101.677C60.1581 106.935 48.3489 108.687 42.4443 108.687C36.5396 108.687 24.7302 106.935 18.8255 101.677C15.9015 99.0731 14.0646 91.6398 13.3122 82.9581C13.1885 81.9788 13.1264 80.9928 13.1265 80.0058C13.1265 65.632 26.2128 53.9765 42.3566 53.9765C58.5005 53.9765 71.5856 65.632 71.5856 80.0058Z" fill="#F9BE3C"/>
<path d="M58.4944 16.6994C56.7704 13.9524 58.6932 9.28856 61.3373 7.41082C64.47 5.15093 67.9943 3.49088 71.7317 2.51467C80.7449 0.261381 84.1436 5.19358 83.5682 6.63218C82.9929 8.07078 77.8789 14.2548 74.9865 16.6994C72.094 19.1439 69.5588 19.6647 69.5588 19.6647C67.9959 20.5186 66.1941 20.8305 64.4352 20.5516C62.6762 20.2728 61.0592 19.4189 59.8371 18.1235L58.4944 16.6994Z" fill="#F28B0E"/>
<path d="M62.7185 9.27429C64.6308 7.49494 78.4916 0.261128 82.9981 4.76771C88.743 10.5123 73.7987 23.6142 71.7317 25.0473C69.6647 26.4804 63.864 28.2062 59.645 21.4941C55.4261 14.7821 60.8062 11.0534 62.7185 9.27429Z" fill="#F9BE3C"/>
<path d="M26.6814 16.6994C28.4054 13.9524 26.4811 9.28856 23.8385 7.41082C20.7058 5.15096 17.1816 3.49083 13.4443 2.51443C4.43113 0.261137 1.03267 5.19334 1.60801 6.63194C2.18335 8.07054 7.29656 14.2548 10.1895 16.6994C13.0825 19.144 15.6167 19.6647 15.6167 19.6647C17.1795 20.5185 18.9812 20.8304 20.7401 20.5515C22.4989 20.2726 24.1158 19.4188 25.3379 18.1235L26.6814 16.6994Z" fill="#F28B0E"/>
<path d="M22.4574 9.27429C20.5452 7.49494 6.68442 0.261128 2.17784 4.76771C-3.56679 10.5123 11.3775 23.6142 13.4443 25.0473C15.5111 26.4804 21.3123 28.2062 25.5312 21.4941C29.7501 14.7821 24.3695 11.0534 22.4574 9.27429Z" fill="#F9BE3C"/>
<path d="M67.636 103.784C67.6287 104.013 67.6142 104.587 67.5901 105.376C67.4938 108.301 67.2524 114.167 66.8205 116.259C64.6341 123.867 53.1756 123.53 52.5592 115.335C52.5592 115.335 52.5715 112.847 51.3988 108.272C50.8168 107.141 50.4926 105.895 50.4497 104.624C50.4068 103.353 50.6462 102.088 51.1506 100.921C51.655 99.7536 52.4119 98.7125 53.3669 97.8726C54.3219 97.0327 55.4511 96.4149 56.6734 96.0637C57.8958 95.7125 59.1807 95.6366 60.4359 95.8415C61.691 96.0464 62.8851 96.527 63.9323 97.2486C64.9795 97.9702 65.8537 98.915 66.4921 100.015C67.1304 101.115 67.5169 102.343 67.6239 103.61V103.612C67.6287 103.668 67.6312 103.726 67.636 103.784Z" fill="#F9BE3C"/>
<path d="M66.8518 115.533C66.8526 116.106 66.7838 116.677 66.6467 117.234C66.637 117.319 66.6217 117.405 66.6057 117.492C65.9903 120.542 63.6401 130.776 57.0259 130.554C52.4653 130.399 52.6824 125.964 52.5882 123.961C52.5882 123.961 52.5882 118.621 52.5326 116.273C52.5332 116.273 52.5337 116.273 52.534 116.272C52.5343 116.271 52.5345 116.271 52.5345 116.27C52.5345 116.269 52.5343 116.268 52.534 116.268C52.5337 116.267 52.5332 116.267 52.5326 116.266C52.5076 116.025 52.4966 115.781 52.4966 115.533C52.5078 113.636 53.2689 111.822 54.6138 110.485C55.9586 109.148 57.7779 108.397 59.6742 108.397C61.5705 108.397 63.3897 109.148 64.7346 110.485C66.0794 111.822 66.8406 113.636 66.8518 115.533Z" fill="#F9BE3C"/>
<path d="M16.9644 103.802C16.9716 104.031 16.9861 104.605 17.0102 105.394C17.1068 108.319 17.3482 114.185 17.78 116.277C19.9662 123.885 31.425 123.547 32.0411 115.353C32.0411 115.353 32.0291 112.865 33.2018 108.29C33.7838 107.159 34.1079 105.913 34.1508 104.642C34.1937 103.371 33.9544 102.107 33.45 100.939C32.9456 99.7717 32.1886 98.7306 31.2337 97.8907C30.2787 97.0508 29.1495 96.433 27.9272 96.0818C26.7049 95.7306 25.42 95.6547 24.1648 95.8596C22.9097 96.0644 21.7156 96.5449 20.6684 97.2665C19.6212 97.9882 18.747 98.9329 18.1086 100.033C17.4703 101.133 17.0837 102.361 16.9766 103.628V103.63C16.9716 103.686 16.9694 103.744 16.9644 103.802Z" fill="#F9BE3C"/>
<path d="M17.7488 115.551C17.7477 116.125 17.8166 116.697 17.9538 117.254C17.9636 117.338 17.9789 117.425 17.9949 117.512C18.6103 120.562 20.9605 130.795 27.5746 130.574C32.1353 130.419 31.9182 125.984 32.0121 123.981C32.0121 123.981 32.0121 118.641 32.0677 116.293C32.0671 116.293 32.0667 116.292 32.0663 116.292C32.066 116.291 32.0659 116.29 32.0659 116.29C32.0659 116.289 32.066 116.288 32.0663 116.288C32.0667 116.287 32.0671 116.286 32.0677 116.286C32.0927 116.045 32.104 115.801 32.104 115.552C32.0928 113.656 31.3316 111.841 29.9868 110.504C28.642 109.168 26.8227 108.417 24.9264 108.417C23.0301 108.417 21.2108 109.168 19.866 110.504C18.5211 111.841 17.76 113.656 17.7488 115.552V115.551Z" fill="#F9BE3C"/>
<path d="M71.9661 73.634C71.9661 76.1519 71.7628 78.6663 71.5595 81.1082C70.9121 94.9719 58.0816 106.035 42.3554 106.035C26.4129 106.035 13.451 94.6687 13.1317 80.5396C12.9895 78.2785 12.9197 75.9579 12.9197 73.634C12.9197 61.3661 18.8243 56.1084 18.8243 56.1084C18.8243 56.1084 20.7924 52.6033 42.443 52.6033C64.0936 52.6033 66.0615 56.1084 66.0615 56.1084C66.0615 56.1084 71.9661 61.3646 71.9661 73.634Z" fill="#F9BE3C"/>
<path d="M55.7789 99.2547C51.3537 97.1716 48.9875 95.89 50.5863 91.1428C52.3074 86.0334 53.1944 88.8319 58.3036 90.5504C58.4376 90.5955 71.6481 100.311 83.891 102.384C101.232 105.319 104.128 104.457 109.276 100.839C114.423 97.2217 112.58 93.6898 112.559 93.511C112.428 92.6409 112.196 91.789 111.867 90.9728C111.067 88.8197 109.789 86.3601 108.437 83.7568C106.131 79.3208 103.747 74.7341 102.759 69.8485C101.232 62.303 103.537 55.6174 109.248 51.0232C114.658 46.6714 120.781 44.9308 127.448 45.8497C132.46 46.5404 136.977 48.602 141.345 50.5961C146.782 53.0775 151.917 55.4214 157.444 54.9239C157.933 54.8799 159.841 53.5279 161.338 49.7792C163.683 43.9086 163.134 40.1013 160.116 36.6688C156.177 32.1887 150.077 38.7591 145.268 39.9941C140.045 41.3358 133.726 40.4961 128.588 29.9517C123.45 19.4073 132.673 14.0455 137.897 12.703C145.823 10.6668 153.005 10.3121 159.242 11.6483C165.479 12.9845 170.868 16.0685 174.822 20.5665C179.06 25.3873 181.613 31.7078 182.205 38.846C182.687 45.0338 181.752 51.2499 179.472 57.0225C175.445 67.1075 167.864 73.5942 159.192 74.3748C148.514 75.3362 140.042 71.4693 133.235 68.3626C125.788 64.9631 123.972 64.5855 122.178 65.7337C122.085 65.7925 122.013 65.8787 121.972 65.9804C121.931 66.082 121.923 66.1939 121.949 66.3005C122.474 68.4229 124.486 72.2913 125.764 74.7506C128.201 79.4405 130.721 84.2896 131.699 89.565C133.157 97.428 130.608 104.424 124.522 109.265C116.203 115.881 102.193 117.278 81.6913 113.537C68.1002 111.056 57.3202 99.8415 56.8325 99.6783C56.4734 99.5575 56.1216 99.4161 55.7789 99.2547Z" fill="#F9BE3C"/>
<mask id="mask0_1859_24164" style="mask-type:luminance" maskUnits="userSpaceOnUse" x="50" y="10" width="133" height="106">
<path d="M55.7789 99.2547C51.3537 97.1716 48.9875 95.89 50.5863 91.1428C52.3074 86.0334 53.1944 88.8319 58.3036 90.5504C58.4376 90.5955 71.6481 100.311 83.891 102.384C101.232 105.319 104.128 104.457 109.276 100.839C114.423 97.2217 112.58 93.6898 112.559 93.511C112.428 92.6409 112.196 91.789 111.867 90.9728C111.067 88.8197 109.789 86.3601 108.437 83.7568C106.131 79.3208 103.747 74.7341 102.759 69.8485C101.232 62.303 103.537 55.6174 109.248 51.0232C114.658 46.6714 120.781 44.9308 127.448 45.8497C132.46 46.5404 136.977 48.602 141.345 50.5961C146.782 53.0775 151.917 55.4214 157.444 54.9239C157.933 54.8799 159.841 53.5279 161.338 49.7792C163.683 43.9086 163.134 40.1013 160.116 36.6688C156.177 32.1887 150.077 38.7591 145.268 39.9941C140.045 41.3358 133.726 40.4961 128.588 29.9517C123.45 19.4073 132.673 14.0455 137.897 12.703C145.823 10.6668 153.005 10.3121 159.242 11.6483C165.479 12.9845 170.868 16.0685 174.822 20.5665C179.06 25.3873 181.613 31.7078 182.205 38.846C182.687 45.0338 181.752 51.2499 179.472 57.0225C175.445 67.1075 167.864 73.5942 159.192 74.3748C148.514 75.3362 140.042 71.4693 133.235 68.3626C125.788 64.9631 123.972 64.5855 122.178 65.7337C122.085 65.7925 122.013 65.8787 121.972 65.9804C121.931 66.082 121.923 66.1939 121.949 66.3005C122.474 68.4229 124.486 72.2913 125.764 74.7506C128.201 79.4405 130.721 84.2896 131.699 89.565C133.157 97.428 130.608 104.424 124.522 109.265C116.203 115.881 102.193 117.278 81.6913 113.537C68.1002 111.056 57.3202 99.8415 56.8325 99.6783C56.4734 99.5575 56.1216 99.4161 55.7789 99.2547Z" fill="white"/>
</mask>
<g mask="url(#mask0_1859_24164)">
<path d="M122.353 65.0257C122.353 65.0257 117.319 57.5467 138.75 63.5876C160.18 69.6284 164.926 66.9925 170.679 61.0944C176.432 55.1963 183.047 43.9792 184.918 48.8691C186.789 53.759 168.09 84.0109 168.09 84.0109C168.09 84.0109 135.01 75.8129 134.867 75.3813C134.724 74.9496 122.353 65.0257 122.353 65.0257Z" fill="#F28B0E"/>
<path d="M67.124 107.694C67.124 107.694 97.6634 114.646 111.038 109.468C124.413 104.291 124.798 101.941 132.708 95.1815C140.618 88.4216 141.194 108.27 141.05 108.701C140.906 109.133 109.841 129.125 108.258 128.693C106.675 128.261 67.124 107.694 67.124 107.694Z" fill="#F28B0E"/>
<path d="M135.873 39.9518C136.449 39.376 144.982 37.8425 152.269 32.0903C159.556 26.3382 162.913 35.5411 162.913 38.1307C162.913 40.7202 156.776 47.0479 156.776 47.0479L135.873 39.9518Z" fill="#F28B0E"/>
</g>
<path d="M80.242 76.8372C79.8459 79.4052 77.3169 81.1848 74.5942 80.8112C73.8048 80.7121 73.0508 80.4247 72.3957 79.9732C71.7407 79.5218 71.2037 78.9195 70.83 78.2172C70.6207 78.0382 68.2762 71.8351 62.0324 67.5068C59.3495 66.3438 57.6813 63.6186 58.1267 60.7239C58.6702 57.2002 62.1395 54.7589 65.8755 55.2714C66.8605 55.3966 67.8064 55.735 68.6473 56.2629C69.4883 56.7907 70.2041 57.4955 70.7451 58.3281C72.5793 60.7612 78.0931 68.3906 79.9753 74.5075C80.2723 75.2459 80.3644 76.0508 80.242 76.8372Z" fill="#F9BE3C"/>
<path d="M81.1287 96.7397C76.494 98.0253 72.8917 81.6539 71.3279 78.7026C71.3259 78.7006 71.3259 78.7006 71.3259 78.6986C71.2748 78.6004 71.2162 78.5062 71.1507 78.417C71.0471 78.283 70.955 78.1407 70.8753 77.9913C70.8602 77.9631 70.8475 77.935 70.8347 77.9087C70.531 77.2967 70.3734 76.6226 70.374 75.9393C70.374 73.3423 72.605 71.24 75.3563 71.24C77.6642 71.24 79.605 72.7186 80.1703 74.7263L80.1768 74.7323C80.1768 74.7323 86.6916 95.1987 81.1287 96.7397Z" fill="#F9BE3C"/>
<path d="M3.10873 76.0768C3.41267 78.6556 5.87652 80.515 8.61126 80.2281C9.40469 80.1539 10.1688 79.8906 10.8396 79.4604C11.5104 79.0302 12.0684 78.4456 12.4669 77.7555C12.6827 77.583 15.2487 71.4581 21.6423 67.3305C24.3655 66.254 26.1301 63.5831 25.7873 60.6758C25.3702 57.1369 21.99 54.5867 18.2378 54.9803C17.2479 55.0746 16.2903 55.3828 15.4312 55.8835C14.572 56.3842 13.8319 57.0655 13.2618 57.8802C11.3412 60.2535 5.5578 67.7033 3.45773 73.7577C3.13516 74.4853 3.01459 75.2864 3.10873 76.0768Z" fill="#F9BE3C"/>
<path d="M2.24763 96.4686C6.8824 97.7539 10.4847 81.3825 12.0484 78.4315C12.0504 78.4295 12.0504 78.4295 12.0504 78.4275C12.1015 78.3292 12.1601 78.235 12.2257 78.1458C12.3292 78.0119 12.4213 77.8695 12.5011 77.7202C12.5159 77.6922 12.5286 77.6639 12.5417 77.6378C12.8453 77.0257 13.003 76.3515 13.0023 75.6682C13.0023 73.0712 10.7713 70.9688 8.02006 70.9688C5.71219 70.9688 3.7711 72.4475 3.20603 74.4552L3.19952 74.4612C3.19952 74.4612 -3.31524 94.9276 2.24763 96.4686Z" fill="#F9BE3C"/>
<path d="M42.4389 61.0999C59.8613 61.0999 73.9849 47.4807 73.9849 30.6805C73.9849 13.8804 59.8613 0.261139 42.4389 0.261139C25.0165 0.261139 10.8928 13.8804 10.8928 30.6805C10.8928 47.4807 25.0165 61.0999 42.4389 61.0999Z" fill="#F9BE3C"/>
<mask id="mask1_1859_24164" style="mask-type:luminance" maskUnits="userSpaceOnUse" x="10" y="0" width="64" height="62">
<path d="M42.4389 61.0999C59.8613 61.0999 73.9849 47.4807 73.9849 30.6805C73.9849 13.8804 59.8613 0.261139 42.4389 0.261139C25.0165 0.261139 10.8928 13.8804 10.8928 30.6805C10.8928 47.4807 25.0165 61.0999 42.4389 61.0999Z" fill="white"/>
</mask>
<g mask="url(#mask1_1859_24164)">
<path d="M71.151 42.9244C70.6395 43.1162 57.2477 59.5124 35.2901 58.7453C13.3326 57.9781 12.1814 53.3757 12.1814 53.3757L28.1943 64.7861L62.9044 62.9642L73.3567 52.8006L71.151 42.9244Z" fill="#F28B0E"/>
</g>
<path d="M42.3936 24.5466C48.6422 24.5466 53.7101 34.8711 53.7101 34.8711C53.7101 34.8711 56.4178 44.4584 42.532 44.4584H42.3981C28.5123 44.4584 31.22 34.8711 31.22 34.8711C31.22 34.8711 36.2884 24.5466 42.5365 24.5466" fill="#D66709"/>
<path d="M19.5963 24.1568C19.5963 24.1568 19.8004 13.7516 27.431 13.4251C35.0616 13.0986 33.5517 24.32 33.5517 24.32C33.5517 24.32 31.7563 34.0725 25.3092 33.909C18.862 33.7455 19.5963 24.1568 19.5963 24.1568Z" fill="black"/>
<path d="M65.2401 24.1568C65.2401 24.1568 65.0361 13.7516 57.4054 13.4251C49.7748 13.0986 51.2847 24.32 51.2847 24.32C51.2847 24.32 53.0801 34.0725 59.5273 33.909C65.9744 33.7455 65.2401 24.1568 65.2401 24.1568Z" fill="black"/>
<path d="M26.9003 31.9934C30.3425 31.9934 33.1329 27.9581 33.1329 22.9803C33.1329 18.0025 30.3425 13.9671 26.9003 13.9671C23.4582 13.9671 20.6677 18.0025 20.6677 22.9803C20.6677 27.9581 23.4582 31.9934 26.9003 31.9934Z" fill="black"/>
<path d="M42.5296 31.9219C44.2771 31.9219 45.6937 30.8235 45.6937 29.4685C45.6937 28.1136 44.2771 27.0152 42.5296 27.0152C40.7821 27.0152 39.3655 28.1136 39.3655 29.4685C39.3655 30.8235 40.7821 31.9219 42.5296 31.9219Z" fill="black"/>
<path d="M58.0627 31.9934C61.5048 31.9934 64.2953 27.9581 64.2953 22.9803C64.2953 18.0025 61.5048 13.9671 58.0627 13.9671C54.6205 13.9671 51.8301 18.0025 51.8301 22.9803C51.8301 27.9581 54.6205 31.9934 58.0627 31.9934Z" fill="black"/>
<path d="M24.5354 22.3812C25.7931 22.3812 26.8127 20.9109 26.8127 19.0971C26.8127 17.2834 25.7931 15.8131 24.5354 15.8131C23.2776 15.8131 22.2581 17.2834 22.2581 19.0971C22.2581 20.9109 23.2776 22.3812 24.5354 22.3812Z" fill="#DCDCDC"/>
<path d="M55.2822 22.3812C56.5399 22.3812 57.5595 20.9109 57.5595 19.0971C57.5595 17.2834 56.5399 15.8131 55.2822 15.8131C54.0245 15.8131 53.0049 17.2834 53.0049 19.0971C53.0049 20.9109 54.0245 22.3812 55.2822 22.3812Z" fill="#DCDCDC"/>
<path d="M42.5016 35.7724C42.8764 35.7978 43.2055 36.031 43.3539 36.3761C43.3538 36.3759 43.3536 36.3752 43.3534 36.3749C43.3531 36.3742 43.3527 36.3735 43.3524 36.3729C43.3519 36.3717 43.3514 36.3705 43.351 36.3695C43.35 36.3674 43.3493 36.3657 43.3488 36.3646L43.3634 36.3929C43.381 36.4256 43.4135 36.4822 43.4634 36.5551C43.5636 36.7011 43.7314 36.909 43.9859 37.1211C44.4796 37.5325 45.356 38.0078 46.8443 38.0079C48.3459 38.0079 49.2886 37.5471 49.8421 37.135C50.1247 36.9246 50.317 36.7186 50.4336 36.5739C50.4918 36.5016 50.5305 36.4451 50.5519 36.4123L50.571 36.3822C50.5704 36.3831 50.5696 36.3845 50.5685 36.3863C50.568 36.3873 50.5674 36.3884 50.5668 36.3895L50.5653 36.3925V36.3927C50.8274 35.9062 51.4339 35.7238 51.9208 35.9854C52.4081 36.2472 52.5909 36.8544 52.3292 37.3416L51.447 36.8675C52.286 37.3183 52.3267 37.341 52.3284 37.3426C52.3283 37.3428 52.3281 37.3434 52.3279 37.3438C52.3275 37.3446 52.3269 37.3454 52.3265 37.3462C52.3255 37.3479 52.3246 37.3499 52.3235 37.3519C52.3214 37.3558 52.319 37.3604 52.3162 37.3653C52.3106 37.3753 52.3036 37.3873 52.2954 37.4013C52.2789 37.4291 52.2569 37.4647 52.2294 37.5069C52.1744 37.5911 52.0965 37.7021 51.993 37.8306C51.786 38.0874 51.4747 38.4166 51.0382 38.7416C50.1534 39.4003 48.7945 40.0108 46.8443 40.0108C44.881 40.0108 43.5522 39.367 42.7035 38.6597C42.5796 38.5564 42.4675 38.4523 42.3656 38.3504C42.2394 38.4627 42.0998 38.5786 41.9453 38.6937C41.0444 39.3647 39.6719 40.0108 37.7674 40.0108C35.8857 40.0108 34.617 39.4346 33.8028 38.7854C33.4031 38.4666 33.1279 38.1422 32.9481 37.8866C32.8582 37.7588 32.7918 37.6477 32.7451 37.5624C32.7218 37.5197 32.7034 37.4831 32.6894 37.4541C32.6824 37.4396 32.6764 37.4269 32.6715 37.4162C32.6691 37.4108 32.6669 37.4059 32.6649 37.4015C32.664 37.3993 32.6631 37.3973 32.6623 37.3954C32.6619 37.3945 32.6614 37.3936 32.661 37.3927C32.6608 37.3922 32.6604 37.3915 32.6603 37.3912C32.6604 37.3905 32.6774 37.3824 33.5803 36.9954L32.6598 37.39C32.4419 36.8816 32.6776 36.293 33.186 36.0751C33.6939 35.8575 34.2821 36.0923 34.5004 36.5998C34.5003 36.5996 34.5001 36.599 34.4999 36.5986C34.4996 36.5978 34.4992 36.5971 34.4989 36.5964C34.4983 36.5949 34.4975 36.5937 34.497 36.5925C34.4959 36.59 34.495 36.5879 34.4943 36.5863C34.4931 36.5838 34.4924 36.5824 34.4923 36.5822C34.4926 36.5828 34.4962 36.5895 34.5028 36.6017C34.5164 36.6265 34.5433 36.6728 34.5862 36.7338C34.672 36.8557 34.8203 37.0347 35.0517 37.2194C35.5001 37.5769 36.3251 38.0078 37.7674 38.0079C39.1869 38.0079 40.1478 37.5351 40.749 37.0873C41.0541 36.8601 41.2713 36.6354 41.4082 36.4739C41.4764 36.3934 41.5238 36.3295 41.5515 36.2903C41.5652 36.2708 41.5739 36.2574 41.5779 36.2514L41.5784 36.2507C41.5779 36.2514 41.5775 36.2524 41.5769 36.2533L41.5754 36.2555V36.2558C41.769 35.9337 42.1266 35.747 42.5016 35.7724Z" fill="black"/>
<path d="M46.4902 43.6959C46.8837 43.3521 47.4819 43.3677 47.8567 43.7428C48.2476 44.1341 48.2472 44.7683 47.8559 45.1592L47.1481 44.4506C47.856 45.1591 47.8552 45.1599 47.8545 45.1606C47.8542 45.161 47.8535 45.1617 47.853 45.1621C47.852 45.1631 47.8509 45.164 47.8498 45.165C47.8478 45.1671 47.8457 45.1693 47.8435 45.1714C47.839 45.1757 47.8343 45.1802 47.8293 45.1849C47.8194 45.1941 47.8083 45.2042 47.7963 45.2147C47.7722 45.2357 47.7438 45.2591 47.7107 45.2844C47.6444 45.3351 47.5596 45.3932 47.4528 45.4555C47.239 45.5801 46.9389 45.7206 46.5247 45.8523C45.6989 46.115 44.4092 46.3469 42.4178 46.3469C40.4532 46.3469 39.2594 46.184 38.5257 45.9959C38.1564 45.9012 37.8883 45.7964 37.6907 45.6924C37.5913 45.6401 37.5078 45.5869 37.4374 45.534C37.4022 45.5075 37.3701 45.4811 37.3411 45.4548C37.3266 45.4416 37.313 45.4284 37.3 45.4154C37.2935 45.4089 37.2871 45.4023 37.2809 45.3959C37.2779 45.3926 37.2748 45.3895 37.2719 45.3863L37.2653 45.379C37.2642 45.3778 37.2631 45.3766 38.0071 44.7064L37.2631 45.3765C36.8929 44.9656 36.9258 44.3323 37.3367 43.9621C37.7067 43.6288 38.2568 43.6227 38.633 43.9247C38.6744 43.9452 38.7908 43.9962 39.023 44.0558C39.5359 44.1873 40.5476 44.344 42.4178 44.344C44.2613 44.344 45.3368 44.1285 45.9176 43.9438C46.2065 43.8519 46.37 43.7684 46.444 43.7252C46.469 43.7106 46.4839 43.7003 46.4902 43.6959ZM38.7489 44.0335C38.7485 44.0331 38.7476 44.0318 38.7469 44.0311C38.7455 44.0295 38.744 44.028 38.7425 44.0264C38.7398 44.0234 38.737 44.0205 38.7342 44.0176C38.7287 44.0118 38.7232 44.0061 38.7179 44.0008C38.7171 44 38.7164 43.9993 38.7157 43.9986C38.727 44.0099 38.738 44.0215 38.7489 44.0335ZM46.4616 43.7215C46.4584 43.7245 46.4551 43.7277 46.4516 43.7311C46.4498 43.7328 46.448 43.7346 46.4462 43.7364C46.4538 43.7289 46.4616 43.7217 46.4694 43.7144C46.467 43.7166 46.4643 43.719 46.4616 43.7215Z" fill="#772D10"/>
<path d="M42.5537 103.621C53.2639 103.621 61.9462 94.9384 61.9462 84.2282C61.9462 73.518 53.2639 64.8356 42.5537 64.8356C31.8435 64.8356 23.1611 73.518 23.1611 84.2282C23.1611 94.9384 31.8435 103.621 42.5537 103.621Z" fill="#FBDC8C"/>
<path d="M41.1538 66.8796H43.7206C45.1038 66.8796 46.3108 68.3372 46.6523 70.4205L49.1455 87.3127C49.6332 90.2858 45.0468 98.2179 43.0729 98.2179H41.7945C39.8166 98.2179 35.3186 90.2758 35.8125 87.2994L38.2243 70.4073C38.569 68.3305 39.7741 66.8796 41.1538 66.8796Z" fill="#45BC9E"/>
<path d="M64.5373 51.4581C64.5373 51.4581 58.9954 58.8732 46.6612 58.8732C34.3269 58.8732 47.1975 63.6036 47.1975 63.6036C47.1975 63.6036 59.6371 64.3705 67.3241 53.7592C68.2767 52.4809 66.0868 49.6682 64.5373 51.4581Z" fill="#45BC9E"/>
<path d="M20.1974 51.4581C20.1974 51.4581 25.7392 58.8732 38.0735 58.8732C50.4078 58.8732 37.5372 63.6036 37.5372 63.6036C37.5372 63.6036 25.0978 64.3705 17.4106 53.7592C16.4582 52.4809 18.6481 49.6682 20.1974 51.4581Z" fill="#45BC9E"/>
<path d="M64.6811 51.6018C64.6811 51.6018 59.139 59.0169 46.805 59.0169C34.471 59.0169 47.3416 63.7473 47.3416 63.7473C47.3416 63.7473 59.781 64.5144 67.4682 53.9032C68.4203 52.6246 66.2304 49.812 64.6811 51.6018Z" fill="#45BC9E"/>
<path d="M20.3411 51.6018C20.3411 51.6018 25.8832 59.0169 38.2172 59.0169C50.5512 59.0169 37.6809 63.7473 37.6809 63.7473C37.6809 63.7473 25.2413 64.5144 17.554 53.9032C16.6019 52.6246 18.7918 49.812 20.3411 51.6018Z" fill="#45BC9E"/>
<path d="M43.7039 68.3658H41.1369C39.7539 68.3658 38.5468 67.5361 38.2051 66.3504L36.8141 61.5218C36.3264 59.8296 37.7717 58.1844 39.7456 58.1844H45.1119C47.0898 58.1844 48.5354 59.8354 48.0412 61.5293L46.6329 66.3581C46.2886 67.5399 45.0836 68.3658 43.7039 68.3658Z" fill="#A6E9D4"/>
<path d="M21.1475 8.66264L21.4031 7.28814L23.2888 6.681L24.3436 5.49828C24.3436 5.49828 25.27 4.98703 25.4302 4.98703C25.5904 4.98703 26.2932 4.3158 26.4209 4.28375C26.5486 4.25171 27.316 4.12402 27.6675 3.8684C28.019 3.61277 29.713 3.22921 29.713 3.22921C29.713 3.22921 30.6393 2.65337 30.9595 2.43005C31.2797 2.20672 32.973 1.4063 32.973 1.4063L34.7946 1.24657L35.7217 0L38.119 0.09589C38.119 0.09589 38.7261 0.415607 38.822 0.47945C38.9179 0.543293 40.1645 0.47945 40.7719 0.47945C41.3792 0.47945 43.8721 0.159733 44.1916 0.159733C44.5111 0.159733 46.2371 0.09589 46.4609 0.159733C46.6847 0.223576 47.3557 0.255623 47.6754 0.38356C47.9951 0.511497 48.6018 0.511497 49.1776 0.639183C49.6142 0.713718 50.0424 0.831124 50.456 0.989695C50.7119 1.11763 51.351 1.37325 51.351 1.37325L54.3875 2.17242C54.3875 2.17242 55.1226 2.10858 54.9633 2.61982C54.8041 3.13107 55.4428 3.06723 55.9863 2.97034C56.5299 2.87344 57.2008 3.32085 57.2008 3.32085C57.2008 3.32085 57.9677 3.60852 57.9998 3.70441C58.0318 3.8003 59.2143 2.58552 59.4061 3.89594C59.5978 5.20635 59.4699 5.17455 59.5978 5.2066C59.7258 5.23865 61.0362 5.04662 61.1321 5.2384C61.228 5.43018 61.3557 5.14251 61.3557 5.52607C61.3671 5.65039 61.4079 5.77022 61.4745 5.87579C61.5412 5.98135 61.6319 6.06964 61.7392 6.13345C61.7392 6.13345 61.963 6.1973 61.931 6.74059C61.8989 7.28388 61.931 7.53976 61.931 7.98716C61.931 8.43456 61.963 8.563 61.963 8.69019C61.963 8.81737 55.3461 9.01316 54.5472 9.0452C53.7163 9.10905 21.1475 8.66264 21.1475 8.66264Z" fill="#F9BE3C"/>
<path d="M54.5246 11.9075C56.3268 11.3845 58.8853 11.2642 62.0417 12.6686C62.5469 12.8934 62.7742 13.4853 62.5495 13.9906C62.3247 14.4959 61.7328 14.7234 61.2275 14.4987C58.515 13.2918 56.4434 13.4363 55.0828 13.8312C54.3928 14.0314 53.8685 14.3013 53.5234 14.515C53.351 14.6218 53.2244 14.7139 53.1454 14.7752C53.1059 14.8058 53.0784 14.8285 53.0632 14.8414C53.0557 14.8479 53.0512 14.8519 53.0498 14.8532C53.0491 14.8537 53.0492 14.8537 53.05 14.8529C53.0504 14.8525 53.0512 14.852 53.052 14.8512L53.0542 14.849L53.0539 14.8488C52.6482 15.2238 52.0154 15.1997 51.6398 14.7942C51.2639 14.3885 51.2883 13.7547 51.694 13.3789L52.3454 14.082C51.716 13.4026 51.695 13.3793 51.6948 13.3781C51.6949 13.378 51.6956 13.3775 51.696 13.3771C51.6967 13.3765 51.6974 13.3757 51.6982 13.3749C51.6998 13.3734 51.7017 13.3717 51.7038 13.3698C51.708 13.366 51.7131 13.3616 51.719 13.3564C51.7308 13.3459 51.746 13.3324 51.7647 13.3165C51.8021 13.2847 51.8533 13.2425 51.918 13.1923C52.0473 13.092 52.2316 12.959 52.4688 12.8121C52.943 12.5185 53.6332 12.1661 54.5246 11.9075Z" fill="black"/>
<path d="M22.8517 12.6686C26.0075 11.2642 28.5657 11.3845 30.3678 11.9075C31.2591 12.1661 31.9494 12.5184 32.4235 12.8121C32.6608 12.9591 32.845 13.092 32.9743 13.1923C33.039 13.2424 33.09 13.2847 33.1274 13.3165C33.1461 13.3324 33.1616 13.3459 33.1734 13.3564C33.1792 13.3615 33.1841 13.366 33.1883 13.3698C33.1903 13.3717 33.1923 13.3734 33.1939 13.3749C33.1947 13.3757 33.1956 13.3765 33.1963 13.3771C33.1967 13.3775 33.1972 13.378 33.1973 13.3781C33.1967 13.3797 33.1702 13.4093 32.5237 14.1072L33.1983 13.3788C33.6041 13.7547 33.6282 14.3885 33.2523 14.7942C32.877 15.1994 32.2447 15.224 31.8389 14.8497L31.8423 14.8532C31.8409 14.8519 31.8364 14.8478 31.8289 14.8414C31.8137 14.8285 31.7863 14.8057 31.747 14.7752C31.6679 14.7139 31.5413 14.6217 31.369 14.515C31.0239 14.3013 30.4995 14.0314 29.8096 13.8312C28.4491 13.4363 26.3777 13.2918 23.6658 14.4986C23.1606 14.7234 22.5687 14.496 22.3438 13.9908C22.119 13.4855 22.3463 12.8935 22.8517 12.6686Z" fill="black"/>
</svg>
